<?xml version="1.0" encoding="UTF-8" standalone="no"?>
<!DOCTYPE svg PUBLIC "-//W3C//DTD SVG 1.1//EN" "http://www.w3.org/Graphics/SVG/1.1/DTD/svg11.dtd">
<!-- Generated by graphviz version 2.40.1 (20161225.0304)
 -->
<!-- Title: G Pages: 1 -->
<svg width="259pt" height="565pt" viewBox="0.00 0.00 258.55 565.17" xmlns="http://www.w3.org/2000/svg" xmlns:xlink="http://www.w3.org/1999/xlink">
<g id="graph0" class="graph" transform="scale(1 1) rotate(0) translate(4 561.1704)">
<title>G</title>
<polygon fill="#ffffff" stroke="transparent" points="-4,4 -4,-561.1704 254.5486,-561.1704 254.5486,4 -4,4"/>
<!-- 2251338358064 -->
<g id="node1" class="node">
<title>2251338358064</title>
<ellipse fill="none" stroke="#000000" cx="142.5486" cy="-539.1704" rx="18" ry="18"/>
</g>
<!-- 2251339909392 -->
<g id="node2" class="node">
<title>2251339909392</title>
<ellipse fill="none" stroke="#000000" cx="82.5486" cy="-446.3704" rx="18" ry="18"/>
<ellipse fill="none" stroke="#000000" cx="82.5486" cy="-446.3704" rx="22" ry="22"/>
<text text-anchor="middle" x="82.5486" y="-442.1704" font-family="Times,serif" font-size="14.00" fill="#000000">i</text>
</g>
<!-- 2251338358064&#45;&gt;2251339909392 -->
<g id="edge1" class="edge">
<title>2251338358064-&gt;2251339909392</title>
<path fill="none" stroke="#000000" d="M132.6409,-523.8464C123.8225,-510.2074 110.7177,-489.9385 100.1237,-473.5531"/>
<polygon fill="#000000" stroke="#000000" points="102.9083,-471.4137 94.5396,-464.9164 97.03,-475.2144 102.9083,-471.4137"/>
<text text-anchor="middle" x="119.4939" y="-490.5704" font-family="Times,serif" font-size="14.00" fill="#000000">i</text>
</g>
<!-- 2251339939456 -->
<g id="node3" class="node">
<title>2251339939456</title>
<ellipse fill="none" stroke="#000000" cx="204.5486" cy="-446.3704" rx="18" ry="18"/>
<text text-anchor="middle" x="204.5486" y="-442.1704" font-family="Times,serif" font-size="14.00" fill="#000000">s</text>
</g>
<!-- 2251338358064&#45;&gt;2251339939456 -->
<g id="edge2" class="edge">
<title>2251338358064-&gt;2251339939456</title>
<path fill="none" stroke="#000000" d="M158.7397,-530.5242C169.0183,-524.2369 181.7986,-514.8038 189.5486,-503.1704 195.1963,-494.693 198.7203,-484.1849 200.9181,-474.521"/>
<polygon fill="#000000" stroke="#000000" points="204.3936,-474.9793 202.8202,-464.502 197.5164,-473.6737 204.3936,-474.9793"/>
<text text-anchor="middle" x="199.2709" y="-490.5704" font-family="Times,serif" font-size="14.00" fill="#000000">s</text>
</g>
<!-- 2251339937776 -->
<g id="node4" class="node">
<title>2251339937776</title>
<ellipse fill="none" stroke="#000000" cx="150.5486" cy="-446.3704" rx="18" ry="18"/>
<text text-anchor="middle" x="150.5486" y="-442.1704" font-family="Times,serif" font-size="14.00" fill="#000000">t</text>
</g>
<!-- 2251338358064&#45;&gt;2251339937776 -->
<g id="edge3" class="edge">
<title>2251338358064-&gt;2251339937776</title>
<path fill="none" stroke="#000000" d="M144.1292,-520.8361C145.2651,-507.6596 146.818,-489.6462 148.1119,-474.6369"/>
<polygon fill="#000000" stroke="#000000" points="151.6267,-474.6146 148.9986,-464.3509 144.6526,-474.0133 151.6267,-474.6146"/>
<text text-anchor="middle" x="148.4939" y="-490.5704" font-family="Times,serif" font-size="14.00" fill="#000000">t</text>
</g>
<!-- 2251339909392&#45;&gt;2251338358064 -->
<g id="edge23" class="edge">
<title>2251339909392-&gt;2251338358064</title>
<path fill="none" stroke="#ff0000" d="M88.3245,-467.6876C91.9396,-478.8351 97.3014,-492.3693 104.5486,-503.1704 108.9348,-509.7075 114.7036,-515.9426 120.4171,-521.3315"/>
<polygon fill="#ff0000" stroke="#ff0000" points="118.239,-524.0782 128.039,-528.1045 122.8888,-518.8457 118.239,-524.0782"/>
</g>
<!-- 2251337713936 -->
<g id="node7" class="node">
<title>2251337713936</title>
<ellipse fill="none" stroke="#000000" cx="22.5486" cy="-349.0218" rx="18.5887" ry="18.5887"/>
<ellipse fill="none" stroke="#000000" cx="22.5486" cy="-349.0218" rx="22.5974" ry="22.5974"/>
<text text-anchor="middle" x="22.5486" y="-344.8218" font-family="Times,serif" font-size="14.00" fill="#000000">in</text>
</g>
<!-- 2251339909392&#45;&gt;2251337713936 -->
<g id="edge22" class="edge">
<title>2251339909392-&gt;2251337713936</title>
<path fill="none" stroke="#000000" d="M70.98,-427.6006C62.1304,-413.2424 49.7872,-393.2158 39.7768,-376.974"/>
<polygon fill="#000000" stroke="#000000" points="42.7189,-375.0768 34.4924,-368.4003 36.7598,-378.7497 42.7189,-375.0768"/>
<text text-anchor="middle" x="59.0486" y="-393.7704" font-family="Times,serif" font-size="14.00" fill="#000000">n</text>
</g>
<!-- 2251339939456&#45;&gt;2251338358064 -->
<g id="edge12" class="edge">
<title>2251339939456-&gt;2251338358064</title>
<path fill="none" stroke="#ff0000" d="M194.5011,-461.4093C184.7274,-476.0384 169.7302,-498.4858 158.357,-515.509"/>
<polygon fill="#ff0000" stroke="#ff0000" points="155.4317,-513.587 152.7867,-523.8464 161.2522,-517.4758 155.4317,-513.587"/>
</g>
<!-- 2251339939552 -->
<g id="node8" class="node">
<title>2251339939552</title>
<ellipse fill="none" stroke="#000000" cx="173.5486" cy="-349.0218" rx="18" ry="18"/>
<text text-anchor="middle" x="173.5486" y="-344.8218" font-family="Times,serif" font-size="14.00" fill="#000000">st</text>
</g>
<!-- 2251339939456&#45;&gt;2251339939552 -->
<g id="edge11" class="edge">
<title>2251339939456-&gt;2251339939552</title>
<path fill="none" stroke="#000000" d="M199.0065,-428.9665C194.3337,-414.2926 187.567,-393.0435 182.1844,-376.1404"/>
<polygon fill="#000000" stroke="#000000" points="185.4122,-374.7416 179.0428,-366.2751 178.7422,-376.8657 185.4122,-374.7416"/>
<text text-anchor="middle" x="192.4939" y="-393.7704" font-family="Times,serif" font-size="14.00" fill="#000000">t</text>
</g>
<!-- 2251339937776&#45;&gt;2251338358064 -->
<g id="edge5" class="edge">
<title>2251339937776-&gt;2251338358064</title>
<path fill="none" stroke="#ff0000" d="M145.7581,-463.7522C144.0681,-470.7246 142.3819,-478.8714 141.5486,-486.3704 140.7241,-493.7914 141.445,-495.7045 141.5486,-503.1704 141.5823,-505.5969 141.6288,-508.1151 141.6834,-510.6415"/>
<polygon fill="#ff0000" stroke="#ff0000" points="138.19,-510.95 141.9416,-520.8584 145.1877,-510.7731 138.19,-510.95"/>
</g>
<!-- 2251339937728 -->
<g id="node5" class="node">
<title>2251339937728</title>
<ellipse fill="none" stroke="#000000" cx="81.5486" cy="-349.0218" rx="18" ry="18"/>
<text text-anchor="middle" x="81.5486" y="-344.8218" font-family="Times,serif" font-size="14.00" fill="#000000">ti</text>
</g>
<!-- 2251339937776&#45;&gt;2251339937728 -->
<g id="edge4" class="edge">
<title>2251339937776-&gt;2251339937728</title>
<path fill="none" stroke="#000000" d="M140.069,-431.5853C128.8732,-415.7897 110.9775,-390.5415 97.9205,-372.1201"/>
<polygon fill="#000000" stroke="#000000" points="100.7651,-370.0806 92.1269,-363.9461 95.0541,-374.1285 100.7651,-370.0806"/>
<text text-anchor="middle" x="121.4939" y="-393.7704" font-family="Times,serif" font-size="14.00" fill="#000000">i</text>
</g>
<!-- 2251339937728&#45;&gt;2251339909392 -->
<g id="edge7" class="edge">
<title>2251339937728-&gt;2251339909392</title>
<path fill="none" stroke="#ff0000" d="M76.4188,-366.3521C75.1012,-379.7408 74.9413,-398.6352 75.8537,-414.702"/>
<polygon fill="#ff0000" stroke="#ff0000" points="72.3702,-415.0547 76.6067,-424.7656 79.3507,-414.5323 72.3702,-415.0547"/>
</g>
<!-- 2251339937728&#45;&gt;2251339909392 -->
<g id="edge8" class="edge">
<title>2251339937728-&gt;2251339909392</title>
<path fill="none" stroke="#0000ff" d="M87.0346,-366.3521C88.6272,-379.7408 89.1753,-398.6352 88.593,-414.702"/>
<polygon fill="#0000ff" stroke="#0000ff" points="85.094,-414.5906 88.0467,-424.7656 92.0837,-414.97 85.094,-414.5906"/>
</g>
<!-- 2251339936768 -->
<g id="node6" class="node">
<title>2251339936768</title>
<ellipse fill="none" stroke="#000000" cx="64.5486" cy="-248.4408" rx="21.4296" ry="21.4296"/>
<ellipse fill="none" stroke="#000000" cx="64.5486" cy="-248.4408" rx="25.4668" ry="25.4668"/>
<text text-anchor="middle" x="64.5486" y="-244.2408" font-family="Times,serif" font-size="14.00" fill="#000000">tin</text>
</g>
<!-- 2251339937728&#45;&gt;2251339936768 -->
<g id="edge6" class="edge">
<title>2251339937728-&gt;2251339936768</title>
<path fill="none" stroke="#000000" d="M78.5094,-331.0399C76.2844,-317.876 73.1938,-299.5903 70.486,-283.5694"/>
<polygon fill="#000000" stroke="#000000" points="73.8925,-282.7217 68.7748,-273.4449 66.9904,-283.8884 73.8925,-282.7217"/>
<text text-anchor="middle" x="78.0486" y="-295.8731" font-family="Times,serif" font-size="14.00" fill="#000000">n</text>
</g>
<!-- 2251339936768&#45;&gt;2251337713936 -->
<g id="edge9" class="edge">
<title>2251339936768-&gt;2251337713936</title>
<path fill="none" stroke="#ff0000" d="M50.2303,-269.3271C43.262,-283.0771 35.3847,-301.3476 29.6101,-316.9258"/>
<polygon fill="#ff0000" stroke="#ff0000" points="26.188,-316.1049 26.1498,-326.6996 32.7866,-318.4411 26.188,-316.1049"/>
</g>
<!-- 2251339936768&#45;&gt;2251337713936 -->
<g id="edge10" class="edge">
<title>2251339936768-&gt;2251337713936</title>
<path fill="none" stroke="#0000ff" d="M59.9829,-273.5905C54.9463,-288.109 47.3682,-306.3909 40.2203,-321.3203"/>
<polygon fill="#0000ff" stroke="#0000ff" points="36.9373,-320.0615 35.6162,-330.5737 43.2044,-323.1798 36.9373,-320.0615"/>
</g>
<!-- 2251337713936&#45;&gt;2251338358064 -->
<g id="edge24" class="edge">
<title>2251337713936-&gt;2251338358064</title>
<path fill="none" stroke="#ff0000" d="M23.9595,-371.6907C26.4188,-396.9257 33.1505,-438.1311 51.5486,-468.3704 67.2478,-494.1737 96.0547,-514.156 117.0635,-526.2149"/>
<polygon fill="#ff0000" stroke="#ff0000" points="115.6449,-529.4293 126.0923,-531.1904 119.0234,-523.2986 115.6449,-529.4293"/>
</g>
<!-- 2251339939552&#45;&gt;2251339937776 -->
<g id="edge14" class="edge">
<title>2251339939552-&gt;2251339937776</title>
<path fill="none" stroke="#ff0000" d="M169.3568,-366.7638C165.9278,-381.2772 161.0187,-402.0555 157.0756,-418.7448"/>
<polygon fill="#ff0000" stroke="#ff0000" points="153.6604,-417.9783 154.7672,-428.5152 160.4728,-419.5879 153.6604,-417.9783"/>
</g>
<!-- 2251339939648 -->
<g id="node9" class="node">
<title>2251339939648</title>
<ellipse fill="none" stroke="#000000" cx="127.5486" cy="-248.4408" rx="20.3201" ry="20.3201"/>
<text text-anchor="middle" x="127.5486" y="-244.2408" font-family="Times,serif" font-size="14.00" fill="#000000">sti</text>
</g>
<!-- 2251339939552&#45;&gt;2251339939648 -->
<g id="edge13" class="edge">
<title>2251339939552-&gt;2251339939648</title>
<path fill="none" stroke="#000000" d="M165.9527,-332.4129C158.9767,-317.1595 148.5016,-294.2554 140.2529,-276.2191"/>
<polygon fill="#000000" stroke="#000000" points="143.2777,-274.4176 135.9356,-266.7793 136.9118,-277.3291 143.2777,-274.4176"/>
<text text-anchor="middle" x="156.4939" y="-295.8731" font-family="Times,serif" font-size="14.00" fill="#000000">i</text>
</g>
<!-- 2251339939648&#45;&gt;2251339909392 -->
<g id="edge17" class="edge">
<title>2251339939648-&gt;2251339909392</title>
<path fill="none" stroke="#0000ff" d="M126.9032,-268.668C125.4207,-299.2362 120.5459,-358.6935 104.5486,-406.3704 103.1589,-410.5124 101.3475,-414.7253 99.3606,-418.7865"/>
<polygon fill="#0000ff" stroke="#0000ff" points="96.1283,-417.4104 94.5216,-427.8827 102.3082,-420.6981 96.1283,-417.4104"/>
</g>
<!-- 2251339939648&#45;&gt;2251339937728 -->
<g id="edge16" class="edge">
<title>2251339939648-&gt;2251339937728</title>
<path fill="none" stroke="#ff0000" d="M119.1617,-266.7793C111.9338,-282.5834 101.4194,-305.5735 93.3438,-323.2312"/>
<polygon fill="#ff0000" stroke="#ff0000" points="90.1208,-321.8631 89.1446,-332.4129 96.4867,-324.7745 90.1208,-321.8631"/>
</g>
<!-- 2251339939792 -->
<g id="node10" class="node">
<title>2251339939792</title>
<ellipse fill="none" stroke="#000000" cx="94.5486" cy="-145.4206" rx="24.9758" ry="24.9758"/>
<text text-anchor="middle" x="94.5486" y="-141.2206" font-family="Times,serif" font-size="14.00" fill="#000000">stin</text>
</g>
<!-- 2251339939648&#45;&gt;2251339939792 -->
<g id="edge15" class="edge">
<title>2251339939648-&gt;2251339939792</title>
<path fill="none" stroke="#000000" d="M121.3416,-229.0635C116.8578,-215.0658 110.6855,-195.797 105.3952,-179.2816"/>
<polygon fill="#000000" stroke="#000000" points="108.622,-177.8816 102.2382,-169.426 101.9556,-180.0171 108.622,-177.8816"/>
<text text-anchor="middle" x="116.0486" y="-192.6085" font-family="Times,serif" font-size="14.00" fill="#000000">n</text>
</g>
<!-- 2251339939792&#45;&gt;2251339936768 -->
<g id="edge19" class="edge">
<title>2251339939792-&gt;2251339936768</title>
<path fill="none" stroke="#ff0000" d="M82.4396,-167.5636C77.4582,-180.8513 72.1881,-198.0543 68.3755,-213.1763"/>
<polygon fill="#ff0000" stroke="#ff0000" points="64.8911,-212.7016 65.9904,-223.2393 71.7024,-214.3161 64.8911,-212.7016"/>
</g>
<!-- 2251339939792&#45;&gt;2251339936768 -->
<g id="edge20" class="edge">
<title>2251339939792-&gt;2251339936768</title>
<path fill="none" stroke="#0000ff" d="M93.106,-170.6263C90.0721,-184.4087 85.1941,-201.625 80.1954,-216.3573"/>
<polygon fill="#0000ff" stroke="#0000ff" points="76.7884,-215.4923 76.7366,-226.087 83.384,-217.837 76.7884,-215.4923"/>
</g>
<!-- 2251339939696 -->
<g id="node11" class="node">
<title>2251339939696</title>
<ellipse fill="none" stroke="#000000" cx="186.5486" cy="-33.8164" rx="29.6553" ry="29.6553"/>
<ellipse fill="none" stroke="#000000" cx="186.5486" cy="-33.8164" rx="33.6337" ry="33.6337"/>
<text text-anchor="middle" x="186.5486" y="-29.6164" font-family="Times,serif" font-size="14.00" fill="#000000">sting</text>
</g>
<!-- 2251339939792&#45;&gt;2251339939696 -->
<g id="edge18" class="edge">
<title>2251339939792-&gt;2251339939696</title>
<path fill="none" stroke="#000000" d="M110.5738,-125.9807C123.7274,-110.0242 142.6727,-87.0419 158.3537,-68.0194"/>
<polygon fill="#000000" stroke="#000000" points="161.1877,-70.0839 164.8479,-60.1414 155.7863,-65.6313 161.1877,-70.0839"/>
<text text-anchor="middle" x="146.0486" y="-89.8327" font-family="Times,serif" font-size="14.00" fill="#000000">g</text>
</g>
<!-- 2251339939696&#45;&gt;2251338358064 -->
<g id="edge21" class="edge">
<title>2251339939696-&gt;2251338358064</title>
<path fill="none" stroke="#ff0000" d="M210.3799,-58.1415C228.576,-79.3594 250.5486,-111.9173 250.5486,-145.4206 250.5486,-446.3704 250.5486,-446.3704 250.5486,-446.3704 250.5486,-488.9766 201.5984,-516.2759 169.6078,-529.5676"/>
<polygon fill="#ff0000" stroke="#ff0000" points="167.9214,-526.4702 159.9007,-533.3926 170.4876,-532.9828 167.9214,-526.4702"/>
</g>
</g>
</svg>