<?xml version="1.0" encoding="UTF-8" standalone="no"?>
<!DOCTYPE svg PUBLIC "-//W3C//DTD SVG 1.1//EN" "http://www.w3.org/Graphics/SVG/1.1/DTD/svg11.dtd">
<!-- Generated by graphviz version 2.40.1 (20161225.0304)
 -->
<!-- Title: G Pages: 1 -->
<svg width="230pt" height="374pt" viewBox="0.00 0.00 229.87 374.15" xmlns="http://www.w3.org/2000/svg" xmlns:xlink="http://www.w3.org/1999/xlink">
<g id="graph0" class="graph" transform="scale(1 1) rotate(0) translate(4 370.1507)">
<title>G</title>
<polygon fill="#ffffff" stroke="transparent" points="-4,4 -4,-370.1507 225.8675,-370.1507 225.8675,4 -4,4"/>
<!-- 1293697598512 -->
<g id="node1" class="node">
<title>1293697598512</title>
<ellipse fill="none" stroke="#000000" cx="102.4481" cy="-348.1507" rx="18" ry="18"/>
</g>
<!-- 1293697599616 -->
<g id="node2" class="node">
<title>1293697599616</title>
<ellipse fill="none" stroke="#000000" cx="36.4481" cy="-255.3428" rx="18.0143" ry="18.0143"/>
<ellipse fill="none" stroke="#000000" cx="36.4481" cy="-255.3428" rx="22.0157" ry="22.0157"/>
<text text-anchor="middle" x="36.4481" y="-251.1428" font-family="Times,serif" font-size="14.00" fill="#000000">A</text>
</g>
<!-- 1293697598512&#45;&gt;1293697599616 -->
<g id="edge1" class="edge">
<title>1293697598512-&gt;1293697599616</title>
<path fill="none" stroke="#000000" d="M91.844,-333.2395C81.9765,-319.364 67.0507,-298.3756 55.1775,-281.6797"/>
<polygon fill="#000000" stroke="#000000" points="57.9375,-279.5216 49.2898,-273.4006 52.2329,-283.5784 57.9375,-279.5216"/>
<text text-anchor="middle" x="80.5014" y="-299.5507" font-family="Times,serif" font-size="14.00" fill="#000000">A</text>
</g>
<!-- 1293695404304 -->
<g id="node3" class="node">
<title>1293695404304</title>
<ellipse fill="none" stroke="#000000" cx="102.4481" cy="-255.3428" rx="18" ry="18"/>
<text text-anchor="middle" x="102.4481" y="-251.1428" font-family="Times,serif" font-size="14.00" fill="#000000">B</text>
</g>
<!-- 1293697598512&#45;&gt;1293695404304 -->
<g id="edge2" class="edge">
<title>1293697598512-&gt;1293695404304</title>
<path fill="none" stroke="#000000" d="M102.4481,-329.8149C102.4481,-316.7222 102.4481,-298.8545 102.4481,-283.9026"/>
<polygon fill="#000000" stroke="#000000" points="105.9482,-283.6406 102.4481,-273.6406 98.9482,-283.6406 105.9482,-283.6406"/>
<text text-anchor="middle" x="107.1164" y="-299.5507" font-family="Times,serif" font-size="14.00" fill="#000000">B</text>
</g>
<!-- 1293697628096 -->
<g id="node4" class="node">
<title>1293697628096</title>
<ellipse fill="none" stroke="#000000" cx="166.4481" cy="-255.3428" rx="18" ry="18"/>
<ellipse fill="none" stroke="#000000" cx="166.4481" cy="-255.3428" rx="22" ry="22"/>
<text text-anchor="middle" x="166.4481" y="-251.1428" font-family="Times,serif" font-size="14.00" fill="#000000">C</text>
</g>
<!-- 1293697598512&#45;&gt;1293697628096 -->
<g id="edge3" class="edge">
<title>1293697598512-&gt;1293697628096</title>
<path fill="none" stroke="#000000" d="M112.7308,-333.2395C122.2391,-319.4513 136.591,-298.6393 148.0687,-281.9952"/>
<polygon fill="#000000" stroke="#000000" points="150.9722,-283.95 153.7679,-273.7307 145.2095,-279.9761 150.9722,-283.95"/>
<text text-anchor="middle" x="142.1164" y="-299.5507" font-family="Times,serif" font-size="14.00" fill="#000000">C</text>
</g>
<!-- 1293695404400 -->
<g id="node9" class="node">
<title>1293695404400</title>
<ellipse fill="none" stroke="#000000" cx="28.4481" cy="-152.0869" rx="24.4035" ry="24.4035"/>
<ellipse fill="none" stroke="#000000" cx="28.4481" cy="-152.0869" rx="28.3962" ry="28.3962"/>
<text text-anchor="middle" x="28.4481" y="-147.8869" font-family="Times,serif" font-size="14.00" fill="#000000">AB</text>
</g>
<!-- 1293697599616&#45;&gt;1293695404400 -->
<g id="edge8" class="edge">
<title>1293697599616-&gt;1293695404400</title>
<path fill="none" stroke="#000000" d="M34.7319,-233.1919C33.7713,-220.794 32.5465,-204.9856 31.4338,-190.6242"/>
<polygon fill="#000000" stroke="#000000" points="34.9109,-190.1918 30.6488,-180.492 27.9318,-190.7325 34.9109,-190.1918"/>
<text text-anchor="middle" x="38.1164" y="-202.735" font-family="Times,serif" font-size="14.00" fill="#000000">B</text>
</g>
<!-- 1293697628144 -->
<g id="node7" class="node">
<title>1293697628144</title>
<ellipse fill="none" stroke="#000000" cx="102.4481" cy="-152.0869" rx="23.846" ry="23.846"/>
<ellipse fill="none" stroke="#000000" cx="102.4481" cy="-152.0869" rx="27.8341" ry="27.8341"/>
<text text-anchor="middle" x="102.4481" y="-147.8869" font-family="Times,serif" font-size="14.00" fill="#000000">BC</text>
</g>
<!-- 1293695404304&#45;&gt;1293697628144 -->
<g id="edge6" class="edge">
<title>1293695404304-&gt;1293697628144</title>
<path fill="none" stroke="#000000" d="M102.4481,-236.8828C102.4481,-223.9397 102.4481,-206.1737 102.4481,-190.2464"/>
<polygon fill="#000000" stroke="#000000" points="105.9482,-190.1145 102.4481,-180.1146 98.9482,-190.1146 105.9482,-190.1145"/>
<text text-anchor="middle" x="107.1164" y="-202.735" font-family="Times,serif" font-size="14.00" fill="#000000">C</text>
</g>
<!-- 1293697628000 -->
<g id="node5" class="node">
<title>1293697628000</title>
<ellipse fill="none" stroke="#000000" cx="181.4481" cy="-152.0869" rx="24.3963" ry="24.3963"/>
<text text-anchor="middle" x="181.4481" y="-147.8869" font-family="Times,serif" font-size="14.00" fill="#000000">CA</text>
</g>
<!-- 1293697628096&#45;&gt;1293697628000 -->
<g id="edge4" class="edge">
<title>1293697628096-&gt;1293697628000</title>
<path fill="none" stroke="#000000" d="M169.6292,-233.4449C171.5996,-219.881 174.1734,-202.1639 176.4159,-186.7271"/>
<polygon fill="#000000" stroke="#000000" points="179.9299,-186.8829 177.904,-176.4836 173.0026,-185.8765 179.9299,-186.8829"/>
<text text-anchor="middle" x="178.5014" y="-202.735" font-family="Times,serif" font-size="14.00" fill="#000000">A</text>
</g>
<!-- 1293697627136 -->
<g id="node6" class="node">
<title>1293697627136</title>
<ellipse fill="none" stroke="#000000" cx="186.4481" cy="-35.4194" rx="31.3481" ry="31.3481"/>
<ellipse fill="none" stroke="#000000" cx="186.4481" cy="-35.4194" rx="35.339" ry="35.339"/>
<text text-anchor="middle" x="186.4481" y="-31.2194" font-family="Times,serif" font-size="14.00" fill="#000000">CAA</text>
</g>
<!-- 1293697628000&#45;&gt;1293697627136 -->
<g id="edge5" class="edge">
<title>1293697628000-&gt;1293697627136</title>
<path fill="none" stroke="#000000" d="M182.4962,-127.6296C183.0741,-114.146 183.8103,-96.967 184.4903,-81.1001"/>
<polygon fill="#000000" stroke="#000000" points="187.9954,-81.0555 184.9269,-70.9148 181.0018,-80.7557 187.9954,-81.0555"/>
<text text-anchor="middle" x="188.5014" y="-93.0388" font-family="Times,serif" font-size="14.00" fill="#000000">A</text>
</g>
<!-- 1293697628048 -->
<g id="node8" class="node">
<title>1293697628048</title>
<ellipse fill="none" stroke="#000000" cx="98.4481" cy="-35.4194" rx="30.7897" ry="30.7897"/>
<ellipse fill="none" stroke="#000000" cx="98.4481" cy="-35.4194" rx="34.7769" ry="34.7769"/>
<text text-anchor="middle" x="98.4481" y="-31.2194" font-family="Times,serif" font-size="14.00" fill="#000000">BCA</text>
</g>
<!-- 1293697628144&#45;&gt;1293697628048 -->
<g id="edge7" class="edge">
<title>1293697628144-&gt;1293697628048</title>
<path fill="none" stroke="#000000" d="M101.49,-124.1421C101.0473,-111.2317 100.5102,-95.5658 100.0112,-81.0124"/>
<polygon fill="#000000" stroke="#000000" points="103.4972,-80.5413 99.6566,-70.6671 96.5014,-80.7812 103.4972,-80.5413"/>
<text text-anchor="middle" x="105.5014" y="-93.0388" font-family="Times,serif" font-size="14.00" fill="#000000">A</text>
</g>
</g>
</svg>