<?xml version="1.0" encoding="UTF-8" standalone="no"?>
<!DOCTYPE svg PUBLIC "-//W3C//DTD SVG 1.1//EN" "http://www.w3.org/Graphics/SVG/1.1/DTD/svg11.dtd">
<!-- Generated by graphviz version 2.40.1 (20161225.0304)
 -->
<!-- Title: G Pages: 1 -->
<svg width="412pt" height="893pt" viewBox="0.00 0.00 412.34 892.66" xmlns="http://www.w3.org/2000/svg" xmlns:xlink="http://www.w3.org/1999/xlink">
<g id="graph0" class="graph" transform="scale(1 1) rotate(0) translate(4 888.6573)">
<title>G</title>
<polygon fill="#ffffff" stroke="transparent" points="-4,4 -4,-888.6573 408.3366,-888.6573 408.3366,4 -4,4"/>
<!-- 1924511351856 -->
<g id="node1" class="node">
<title>1924511351856</title>
<ellipse fill="none" stroke="#000000" cx="133" cy="-866.6573" rx="18" ry="18"/>
</g>
<!-- 1924511351856&#45;&gt;1924511351856 -->
<g id="edge4" class="edge">
<title>1924511351856-&gt;1924511351856</title>
<path fill="none" stroke="#0000ff" d="M149.2903,-874.3252C159.3892,-876.1742 169,-873.6182 169,-866.6573 169,-862.198 165.0557,-859.5464 159.5656,-858.7027"/>
<polygon fill="#0000ff" stroke="#0000ff" points="159.1887,-855.2117 149.2903,-858.9894 159.384,-862.209 159.1887,-855.2117"/>
</g>
<!-- 1924511352960 -->
<g id="node2" class="node">
<title>1924511352960</title>
<ellipse fill="none" stroke="#000000" cx="210" cy="-773.8494" rx="18.0143" ry="18.0143"/>
<ellipse fill="none" stroke="#000000" cx="210" cy="-773.8494" rx="22.0157" ry="22.0157"/>
<text text-anchor="middle" x="210" y="-769.6494" font-family="Times,serif" font-size="14.00" fill="#000000">A</text>
</g>
<!-- 1924511351856&#45;&gt;1924511352960 -->
<g id="edge1" class="edge">
<title>1924511351856-&gt;1924511352960</title>
<path fill="none" stroke="#000000" d="M144.694,-852.6479C150.2463,-845.9903 156.9712,-837.918 163,-830.6573 171.6244,-820.2707 181.1199,-808.8002 189.305,-798.9019"/>
<polygon fill="#000000" stroke="#000000" points="192.1506,-800.9529 195.8244,-791.0153 186.7554,-796.4929 192.1506,-800.9529"/>
<text text-anchor="middle" x="180.0533" y="-818.0573" font-family="Times,serif" font-size="14.00" fill="#000000">A</text>
</g>
<!-- 1924509157648 -->
<g id="node3" class="node">
<title>1924509157648</title>
<ellipse fill="none" stroke="#000000" cx="193" cy="-571.3454" rx="18" ry="18"/>
<text text-anchor="middle" x="193" y="-567.1454" font-family="Times,serif" font-size="14.00" fill="#000000">B</text>
</g>
<!-- 1924511351856&#45;&gt;1924509157648 -->
<g id="edge2" class="edge">
<title>1924511351856-&gt;1924509157648</title>
<path fill="none" stroke="#000000" d="M127.8839,-849.3206C115.9455,-805.211 90.6945,-686.6094 138,-607.3454 144.6043,-596.2795 156.0836,-587.9714 166.8522,-582.1413"/>
<polygon fill="#000000" stroke="#000000" points="168.5616,-585.2011 175.9922,-577.6488 165.4737,-578.919 168.5616,-585.2011"/>
<text text-anchor="middle" x="114.6683" y="-721.2416" font-family="Times,serif" font-size="14.00" fill="#000000">B</text>
</g>
<!-- 1924511381440 -->
<g id="node4" class="node">
<title>1924511381440</title>
<ellipse fill="none" stroke="#000000" cx="170" cy="-247.335" rx="18" ry="18"/>
<ellipse fill="none" stroke="#000000" cx="170" cy="-247.335" rx="22" ry="22"/>
<text text-anchor="middle" x="170" y="-243.135" font-family="Times,serif" font-size="14.00" fill="#000000">C</text>
</g>
<!-- 1924511351856&#45;&gt;1924511381440 -->
<g id="edge3" class="edge">
<title>1924511351856-&gt;1924511381440</title>
<path fill="none" stroke="#000000" d="M115.3386,-863.0447C79.16,-854.5024 0,-829.458 0,-773.8494 0,-773.8494 0,-773.8494 0,-357.0233 0,-320.1546 15.7292,-309.7519 45,-287.335 72.3086,-266.4209 110.8769,-256.2631 137.9292,-251.4483"/>
<polygon fill="#000000" stroke="#000000" points="138.7333,-254.8636 148.0402,-249.8008 137.6074,-247.9547 138.7333,-254.8636"/>
<text text-anchor="middle" x="4.6683" y="-567.1454" font-family="Times,serif" font-size="14.00" fill="#000000">C</text>
</g>
<!-- 1924511352960&#45;&gt;1924511351856 -->
<g id="edge23" class="edge">
<title>1924511352960-&gt;1924511351856</title>
<path fill="none" stroke="#0000ff" d="M205.521,-795.477C202.3478,-806.8468 197.1656,-820.4927 189,-830.6573 180.9382,-840.6927 169.2916,-848.8101 158.7054,-854.7789"/>
<polygon fill="#0000ff" stroke="#0000ff" points="157.0144,-851.7136 149.792,-859.4653 160.272,-857.9094 157.0144,-851.7136"/>
</g>
<!-- 1924511352960&#45;&gt;1924511352960 -->
<g id="edge20" class="edge">
<title>1924511352960-&gt;1924511352960</title>
<path fill="none" stroke="#00ff00" d="M230.5848,-782.5836C240.8508,-783.7921 250.0079,-780.8807 250.0079,-773.8494 250.0079,-769.3451 246.2498,-766.5315 240.8496,-765.4087"/>
<polygon fill="#00ff00" stroke="#00ff00" points="240.6808,-761.9025 230.5848,-765.1153 240.4808,-768.8996 240.6808,-761.9025"/>
<text text-anchor="middle" x="255.0612" y="-769.6494" font-family="Times,serif" font-size="14.00" fill="#000000">A</text>
</g>
<!-- 1924511352960&#45;&gt;1924511381440 -->
<g id="edge22" class="edge">
<title>1924511352960-&gt;1924511381440</title>
<path fill="none" stroke="#00ff00" d="M187.8661,-771.0254C141.4117,-763.7309 38,-739.7286 38,-670.5935 38,-670.5935 38,-670.5935 38,-357.0233 38,-324.2654 39.105,-310.7636 62,-287.335 82.2075,-266.6565 114.0446,-256.5763 137.926,-251.7191"/>
<polygon fill="#00ff00" stroke="#00ff00" points="138.7342,-255.1294 147.9419,-249.8884 137.4756,-248.2435 138.7342,-255.1294"/>
<text text-anchor="middle" x="42.6683" y="-522.7454" font-family="Times,serif" font-size="14.00" fill="#000000">C</text>
</g>
<!-- 1924509157744 -->
<g id="node7" class="node">
<title>1924509157744</title>
<ellipse fill="none" stroke="#000000" cx="255" cy="-670.5935" rx="24.4035" ry="24.4035"/>
<ellipse fill="none" stroke="#000000" cx="255" cy="-670.5935" rx="28.3962" ry="28.3962"/>
<text text-anchor="middle" x="255" y="-666.3935" font-family="Times,serif" font-size="14.00" fill="#000000">AB</text>
</g>
<!-- 1924511352960&#45;&gt;1924509157744 -->
<g id="edge21" class="edge">
<title>1924511352960-&gt;1924509157744</title>
<path fill="none" stroke="#000000" d="M218.8906,-753.4494C224.745,-740.016 232.5684,-722.0645 239.4362,-706.3058"/>
<polygon fill="#000000" stroke="#000000" points="242.7761,-707.4027 243.5628,-696.8371 236.359,-704.606 242.7761,-707.4027"/>
<text text-anchor="middle" x="237.6683" y="-721.2416" font-family="Times,serif" font-size="14.00" fill="#000000">B</text>
</g>
<!-- 1924509157648&#45;&gt;1924511351856 -->
<g id="edge15" class="edge">
<title>1924509157648-&gt;1924511351856</title>
<path fill="none" stroke="#0000ff" d="M189.385,-589.138C179.3142,-638.7053 150.8805,-778.6517 138.6779,-838.7114"/>
<polygon fill="#0000ff" stroke="#0000ff" points="135.2242,-838.1321 136.6629,-848.6288 142.084,-839.5259 135.2242,-838.1321"/>
</g>
<!-- 1924509157648&#45;&gt;1924511352960 -->
<g id="edge12" class="edge">
<title>1924509157648-&gt;1924511352960</title>
<path fill="none" stroke="#00ff00" d="M194.5265,-589.5287C197.4071,-623.8427 203.679,-698.5535 207.291,-741.58"/>
<polygon fill="#00ff00" stroke="#00ff00" points="203.824,-742.1204 208.1483,-751.7925 210.7994,-741.5347 203.824,-742.1204"/>
<text text-anchor="middle" x="208.0533" y="-666.3935" font-family="Times,serif" font-size="14.00" fill="#000000">A</text>
</g>
<!-- 1924509157648&#45;&gt;1924509157648 -->
<g id="edge13" class="edge">
<title>1924509157648-&gt;1924509157648</title>
<path fill="none" stroke="#00ff00" d="M209.2903,-579.0134C219.3892,-580.8624 229,-578.3064 229,-571.3454 229,-566.8861 225.0557,-564.2345 219.5656,-563.3908"/>
<polygon fill="#00ff00" stroke="#00ff00" points="219.1887,-559.8999 209.2903,-563.6775 219.384,-566.8971 219.1887,-559.8999"/>
<text text-anchor="middle" x="233.6683" y="-567.1454" font-family="Times,serif" font-size="14.00" fill="#000000">B</text>
</g>
<!-- 1924511381488 -->
<g id="node8" class="node">
<title>1924511381488</title>
<ellipse fill="none" stroke="#000000" cx="195" cy="-472.6285" rx="23.846" ry="23.846"/>
<ellipse fill="none" stroke="#000000" cx="195" cy="-472.6285" rx="27.8341" ry="27.8341"/>
<text text-anchor="middle" x="195" y="-468.4285" font-family="Times,serif" font-size="14.00" fill="#000000">BC</text>
</g>
<!-- 1924509157648&#45;&gt;1924511381488 -->
<g id="edge14" class="edge">
<title>1924509157648-&gt;1924511381488</title>
<path fill="none" stroke="#000000" d="M193.3668,-553.2392C193.6064,-541.4146 193.9283,-525.5248 194.223,-510.979"/>
<polygon fill="#000000" stroke="#000000" points="197.7279,-510.7711 194.4312,-500.7022 190.7293,-510.6292 197.7279,-510.7711"/>
<text text-anchor="middle" x="198.6683" y="-522.7454" font-family="Times,serif" font-size="14.00" fill="#000000">C</text>
</g>
<!-- 1924511381440&#45;&gt;1924511351856 -->
<g id="edge6" class="edge">
<title>1924511381440-&gt;1924511351856</title>
<path fill="none" stroke="#0000ff" d="M150.5231,-258.3741C122.99,-275.5932 76,-311.63 76,-357.0233 76,-773.8494 76,-773.8494 76,-773.8494 76,-802.5449 96.0307,-829.833 112.3436,-847.2983"/>
<polygon fill="#0000ff" stroke="#0000ff" points="109.9956,-849.9031 119.4918,-854.6014 114.9982,-845.0067 109.9956,-849.9031"/>
</g>
<!-- 1924511381344 -->
<g id="node5" class="node">
<title>1924511381344</title>
<ellipse fill="none" stroke="#000000" cx="273" cy="-148.0869" rx="24.3963" ry="24.3963"/>
<text text-anchor="middle" x="273" y="-143.8869" font-family="Times,serif" font-size="14.00" fill="#000000">CA</text>
</g>
<!-- 1924511381440&#45;&gt;1924511381344 -->
<g id="edge5" class="edge">
<title>1924511381440-&gt;1924511381344</title>
<path fill="none" stroke="#000000" d="M180.623,-228.0562C187.6626,-216.3586 197.6518,-201.6031 208.8934,-190.535 218.8005,-180.7807 231.2579,-171.937 242.5504,-164.8777"/>
<polygon fill="#000000" stroke="#000000" points="244.5261,-167.7735 251.286,-159.6154 240.9141,-161.7774 244.5261,-167.7735"/>
<text text-anchor="middle" x="213.0533" y="-194.735" font-family="Times,serif" font-size="14.00" fill="#000000">A</text>
</g>
<!-- 1924511381344&#45;&gt;1924511352960 -->
<g id="edge9" class="edge">
<title>1924511381344-&gt;1924511352960</title>
<path fill="none" stroke="#0000ff" d="M276.589,-172.3127C290.0243,-265.8256 334.4587,-602.8341 292,-699.0416 280.9348,-724.1143 256.8565,-744.4169 237.6389,-757.5112"/>
<polygon fill="#0000ff" stroke="#0000ff" points="235.6748,-754.6135 229.2154,-763.0115 239.502,-760.4747 235.6748,-754.6135"/>
</g>
<!-- 1924511381344&#45;&gt;1924511381440 -->
<g id="edge8" class="edge">
<title>1924511381344-&gt;1924511381440</title>
<path fill="none" stroke="#00ff00" d="M257.1232,-166.8927C246.7019,-178.8798 232.5413,-194.5119 219,-207.335 211.739,-214.2109 203.4436,-221.2564 195.7684,-227.4808"/>
<polygon fill="#00ff00" stroke="#00ff00" points="193.398,-224.8944 187.7618,-233.8657 197.7624,-230.3673 193.398,-224.8944"/>
<text text-anchor="middle" x="238.6683" y="-194.735" font-family="Times,serif" font-size="14.00" fill="#000000">C</text>
</g>
<!-- 1924511380480 -->
<g id="node6" class="node">
<title>1924511380480</title>
<ellipse fill="none" stroke="#000000" cx="349" cy="-35.4194" rx="31.3481" ry="31.3481"/>
<ellipse fill="none" stroke="#000000" cx="349" cy="-35.4194" rx="35.339" ry="35.339"/>
<text text-anchor="middle" x="349" y="-31.2194" font-family="Times,serif" font-size="14.00" fill="#000000">CAA</text>
</g>
<!-- 1924511381344&#45;&gt;1924511380480 -->
<g id="edge7" class="edge">
<title>1924511381344-&gt;1924511380480</title>
<path fill="none" stroke="#000000" d="M286.763,-127.6837C296.9089,-112.6428 311.0109,-91.737 323.2264,-73.628"/>
<polygon fill="#000000" stroke="#000000" points="326.3552,-75.2483 329.0459,-65.0008 320.5521,-71.3337 326.3552,-75.2483"/>
<text text-anchor="middle" x="316.0533" y="-93.0388" font-family="Times,serif" font-size="14.00" fill="#000000">A</text>
</g>
<!-- 1924511380480&#45;&gt;1924511352960 -->
<g id="edge11" class="edge">
<title>1924511380480-&gt;1924511352960</title>
<path fill="none" stroke="#0000ff" d="M349,-70.94C349,-93.1193 349,-122.2673 349,-148.0869 349,-670.5935 349,-670.5935 349,-670.5935 349,-723.9413 282.2055,-752.9451 241.2214,-765.7203"/>
<polygon fill="#0000ff" stroke="#0000ff" points="240.0093,-762.4289 231.4141,-768.6235 241.9963,-769.141 240.0093,-762.4289"/>
</g>
<!-- 1924511380480&#45;&gt;1924509157744 -->
<g id="edge10" class="edge">
<title>1924511380480-&gt;1924509157744</title>
<path fill="none" stroke="#00ff00" d="M368.5081,-65.1658C381.0454,-87.1435 395,-118.2967 395,-148.0869 395,-571.3454 395,-571.3454 395,-571.3454 395,-621.5769 334.2766,-648.6924 292.8132,-661.3524"/>
<polygon fill="#00ff00" stroke="#00ff00" points="291.6274,-658.0519 282.9946,-664.194 293.5734,-664.7759 291.6274,-658.0519"/>
<text text-anchor="middle" x="399.6683" y="-352.8233" font-family="Times,serif" font-size="14.00" fill="#000000">B</text>
</g>
<!-- 1924509157744&#45;&gt;1924509157648 -->
<g id="edge24" class="edge">
<title>1924509157744-&gt;1924509157648</title>
<path fill="none" stroke="#00ff00" d="M239.731,-646.513C235.19,-639.326 230.2133,-631.4243 225.6634,-624.1454 219.8964,-614.9196 213.5992,-604.7607 208.0864,-595.8386"/>
<polygon fill="#00ff00" stroke="#00ff00" points="210.9111,-593.7513 202.6806,-587.0797 204.9543,-597.4277 210.9111,-593.7513"/>
<text text-anchor="middle" x="229.6683" y="-611.5454" font-family="Times,serif" font-size="14.00" fill="#000000">B</text>
</g>
<!-- 1924509157744&#45;&gt;1924509157648 -->
<g id="edge26" class="edge">
<title>1924509157744-&gt;1924509157648</title>
<path fill="none" stroke="#0000ff" d="M249.6384,-642.3376C246.5771,-630.8369 241.9235,-617.8164 235,-607.3454 230.1583,-600.023 223.4196,-593.34 216.7558,-587.7734"/>
<polygon fill="#0000ff" stroke="#0000ff" points="218.5459,-584.7317 208.5035,-581.3552 214.2484,-590.2573 218.5459,-584.7317"/>
</g>
<!-- 1924509157744&#45;&gt;1924511381488 -->
<g id="edge25" class="edge">
<title>1924509157744-&gt;1924511381488</title>
<path fill="none" stroke="#00ff00" d="M257.2925,-641.7669C258.2339,-617.4802 257.2489,-582.1827 247,-553.3454 240.5602,-535.2259 229.3651,-517.046 219.008,-502.5396"/>
<polygon fill="#00ff00" stroke="#00ff00" points="221.7984,-500.4262 213.0491,-494.4512 216.1626,-504.5782 221.7984,-500.4262"/>
<text text-anchor="middle" x="259.6683" y="-567.1454" font-family="Times,serif" font-size="14.00" fill="#000000">C</text>
</g>
<!-- 1924511381488&#45;&gt;1924511381440 -->
<g id="edge17" class="edge">
<title>1924511381488-&gt;1924511381440</title>
<path fill="none" stroke="#0000ff" d="M191.8843,-444.5505C187.2288,-402.5963 178.4806,-323.7601 173.5726,-279.53"/>
<polygon fill="#0000ff" stroke="#0000ff" points="177.0229,-278.8882 172.4413,-269.3352 170.0656,-279.6603 177.0229,-278.8882"/>
</g>
<!-- 1924511381392 -->
<g id="node9" class="node">
<title>1924511381392</title>
<ellipse fill="none" stroke="#000000" cx="233" cy="-357.0233" rx="30.7897" ry="30.7897"/>
<ellipse fill="none" stroke="#000000" cx="233" cy="-357.0233" rx="34.7769" ry="34.7769"/>
<text text-anchor="middle" x="233" y="-352.8233" font-family="Times,serif" font-size="14.00" fill="#000000">BCA</text>
</g>
<!-- 1924511381488&#45;&gt;1924511381392 -->
<g id="edge16" class="edge">
<title>1924511381488-&gt;1924511381392</title>
<path fill="none" stroke="#000000" d="M203.718,-446.1063C208.1757,-432.5449 213.7139,-415.6962 218.7703,-400.3135"/>
<polygon fill="#000000" stroke="#000000" points="222.2095,-401.0589 222.0072,-390.4659 215.5595,-398.8729 222.2095,-401.0589"/>
<text text-anchor="middle" x="220.0533" y="-414.1116" font-family="Times,serif" font-size="14.00" fill="#000000">A</text>
</g>
<!-- 1924511381392&#45;&gt;1924511381440 -->
<g id="edge18" class="edge">
<title>1924511381392-&gt;1924511381440</title>
<path fill="none" stroke="#00ff00" d="M215.6182,-326.7601C206.3627,-310.6455 195.0568,-290.961 186.016,-275.2202"/>
<polygon fill="#00ff00" stroke="#00ff00" points="189.0028,-273.393 180.9873,-266.4647 182.9328,-276.8794 189.0028,-273.393"/>
<text text-anchor="middle" x="205.6683" y="-291.535" font-family="Times,serif" font-size="14.00" fill="#000000">C</text>
</g>
<!-- 1924511381392&#45;&gt;1924511381344 -->
<g id="edge19" class="edge">
<title>1924511381392-&gt;1924511381344</title>
<path fill="none" stroke="#0000ff" d="M248.0115,-325.4934C261.2662,-295.7902 279.6003,-249.6527 287,-207.335 288.531,-198.5796 287.5454,-189.1831 285.5315,-180.5115"/>
<polygon fill="#0000ff" stroke="#0000ff" points="288.8617,-179.4248 282.784,-170.7465 282.1233,-181.3207 288.8617,-179.4248"/>
</g>
</g>
</svg>