<?xml version="1.0" encoding="UTF-8"?>
<svg xmlns="http://www.w3.org/2000/svg" xmlns:xlink="http://www.w3.org/1999/xlink" width="74.1pt" height="71.4pt" viewBox="0 0 74.1 71.4" version="1.1">
<g id="surface1">
<path style="fill-rule:nonzero;fill:rgb(75.294495%,75.294495%,75.294495%);fill-opacity:1;stroke-width:1;stroke-linecap:round;stroke-linejoin:miter;stroke:rgb(0%,0%,0%);stroke-opacity:1;stroke-miterlimit:10;" d="M 63.005208 144.002604 L 108.005208 144.002604 L 108.005208 215.994792 L 63.005208 215.994792 Z M 63.005208 144.002604 " transform="matrix(0.3,0,0,0.3,-18.3,-26.4)"/>
<path style="fill-rule:nonzero;fill:rgb(75.294495%,75.294495%,75.294495%);fill-opacity:1;stroke-width:1;stroke-linecap:round;stroke-linejoin:miter;stroke:rgb(0%,0%,0%);stroke-opacity:1;stroke-miterlimit:10;" d="M 63.005208 90.005208 L 171 90.005208 L 171 144.002604 L 63.005208 144.002604 Z M 63.005208 90.005208 " transform="matrix(0.3,0,0,0.3,-18.3,-26.4)"/>
<path style="fill-rule:nonzero;fill:rgb(100%,98.823547%,47.450256%);fill-opacity:1;stroke-width:1;stroke-linecap:round;stroke-linejoin:miter;stroke:rgb(0%,0%,0%);stroke-opacity:1;stroke-miterlimit:10;" d="M 108.005208 215.994792 L 198.005208 215.994792 L 198.005208 270.005208 L 108.005208 270.005208 Z M 108.005208 215.994792 " transform="matrix(0.3,0,0,0.3,-18.3,-26.4)"/>
<path style="fill-rule:nonzero;fill:rgb(100%,98.823547%,47.450256%);fill-opacity:1;stroke-width:1;stroke-linecap:round;stroke-linejoin:miter;stroke:rgb(0%,0%,0%);stroke-opacity:1;stroke-miterlimit:10;" d="M 143.994792 161.997396 L 198.005208 161.997396 L 198.005208 215.994792 L 143.994792 215.994792 Z M 143.994792 161.997396 " transform="matrix(0.3,0,0,0.3,-18.3,-26.4)"/>
<path style="fill-rule:nonzero;fill:rgb(100%,98.823547%,47.450256%);fill-opacity:1;stroke-width:1;stroke-linecap:round;stroke-linejoin:miter;stroke:rgb(0%,0%,0%);stroke-opacity:1;stroke-miterlimit:10;" d="M 198.005208 189.002604 L 252.002604 189.002604 L 252.002604 315.005208 L 198.005208 315.005208 Z M 198.005208 189.002604 " transform="matrix(0.3,0,0,0.3,-18.3,-26.4)"/>
<path style="fill-rule:nonzero;fill:rgb(75.294495%,75.294495%,75.294495%);fill-opacity:1;stroke-width:1;stroke-linecap:round;stroke-linejoin:miter;stroke:rgb(0%,0%,0%);stroke-opacity:1;stroke-miterlimit:10;" d="M 252.002604 144.002604 L 306 144.002604 L 306 270.005208 L 252.002604 270.005208 Z M 252.002604 144.002604 " transform="matrix(0.3,0,0,0.3,-18.3,-26.4)"/>
<path style="fill-rule:nonzero;fill:rgb(75.294495%,75.294495%,75.294495%);fill-opacity:1;stroke-width:1;stroke-linecap:round;stroke-linejoin:miter;stroke:rgb(0%,0%,0%);stroke-opacity:1;stroke-miterlimit:10;" d="M 171 90.005208 L 278.994792 90.005208 L 278.994792 144.002604 L 171 144.002604 Z M 171 90.005208 " transform="matrix(0.3,0,0,0.3,-18.3,-26.4)"/>
<path style="fill-rule:nonzero;fill:rgb(75.294495%,75.294495%,75.294495%);fill-opacity:1;stroke-width:1;stroke-linecap:round;stroke-linejoin:miter;stroke:rgb(0%,0%,0%);stroke-opacity:1;stroke-miterlimit:10;" d="M 63.005208 270.005208 L 153.005208 270.005208 L 153.005208 324.002604 L 63.005208 324.002604 Z M 63.005208 270.005208 " transform="matrix(0.3,0,0,0.3,-18.3,-26.4)"/>
<path style="fill-rule:nonzero;fill:rgb(100%,14.901733%,0%);fill-opacity:0.5;stroke-width:1;stroke-linecap:round;stroke-linejoin:miter;stroke:rgb(0%,0%,0%);stroke-opacity:1;stroke-miterlimit:10;" d="M 143.994792 180.005208 L 233.994792 180.005208 L 233.994792 234.002604 L 143.994792 234.002604 Z M 143.994792 180.005208 " transform="matrix(0.3,0,0,0.3,-18.3,-26.4)"/>
<path style="fill-rule:nonzero;fill:rgb(0%,58.824158%,100%);fill-opacity:0.5;stroke-width:1;stroke-linecap:round;stroke-linejoin:miter;stroke:rgb(0%,0%,0%);stroke-opacity:1;stroke-miterlimit:10;" d="M 171 234.002604 L 252.002604 234.002604 L 252.002604 296.997396 L 171 296.997396 Z M 171 234.002604 " transform="matrix(0.3,0,0,0.3,-18.3,-26.4)"/>
<path style="fill-rule:nonzero;fill:rgb(0%,58.824158%,100%);fill-opacity:0.5;stroke-width:1;stroke-linecap:round;stroke-linejoin:miter;stroke:rgb(0%,0%,0%);stroke-opacity:1;stroke-miterlimit:10;" d="M 108.005208 198 L 143.994792 198 L 143.994792 234.002604 L 108.005208 234.002604 Z M 108.005208 198 " transform="matrix(0.3,0,0,0.3,-18.3,-26.4)"/>
</g>
</svg>
