<?xml version="1.0" encoding="utf-8"?>
<svg xmlns="http://www.w3.org/2000/svg" stroke-miterlimit="10.000000" x="-1pt" viewBox="-1 -1 1702.79 285.465" height="285.465pt" version="1.1" width="1702.79pt" y="-1pt" fill="none" stroke-width="0.566929">
 <path d="M0 -0L1700.79 -0L1700.79 283.465L0 283.465Z" stroke="black"/>
 <path stroke="black" fill="#ccc" d="M1587.4 226.772L1700.79 226.772L1700.79 283.465L1587.4 283.465Z"/>
 <path stroke="black" fill="#ccc" d="M1445.67 226.772L1587.4 226.772L1587.4 283.465L1445.67 283.465Z"/>
 <path stroke="black" fill="#ccc" d="M1360.63 226.772L1445.67 226.772L1445.67 283.465L1360.63 283.465Z"/>
 <path stroke="black" fill="#ccc" d="M1190.55 226.772L1360.63 226.772L1360.63 283.465L1190.55 283.465Z"/>
 <path stroke="black" fill="#ccc" d="M708.661 226.772L878.74 226.772L878.74 283.465L708.661 283.465Z"/>
 <path stroke="black" fill="#ccc" d="M538.583 226.772L708.661 226.772L708.661 283.465L538.583 283.465Z"/>
 <path stroke="black" fill="#ccc" d="M340.157 226.772L510.236 226.772L510.236 283.465L340.157 283.465Z"/>
 <path stroke="black" fill="#ccc" d="M170.079 226.772L340.157 226.772L340.157 283.465L170.079 283.465Z"/>
 <path stroke="black" fill="#ccc" d="M0 226.772L170.079 226.772L170.079 283.465L0 283.465Z"/>
 <path stroke="black" fill="#ccc" d="M1303.94 198.425L1644.09 198.425L1644.09 226.772L1303.94 226.772Z"/>
 <path stroke="black" fill="#ccc" d="M963.78 198.425L1303.94 198.425L1303.94 226.772L963.78 226.772Z"/>
 <path stroke="black" fill="#ccc" d="M340.157 198.425L680.315 198.425L680.315 226.772L340.157 226.772Z"/>
 <path stroke="black" fill="#ccc" d="M0 198.425L340.157 198.425L340.157 226.772L0 226.772Z"/>
 <path stroke="black" fill="#ccc" d="M1559.06 141.732L1700.79 141.732L1700.79 198.425L1559.06 198.425Z"/>
 <path stroke="black" fill="#ccc" d="M1388.98 141.732L1559.06 141.732L1559.06 198.425L1388.98 198.425Z"/>
 <path stroke="black" fill="#ccc" d="M1218.9 141.732L1388.98 141.732L1388.98 198.425L1218.9 198.425Z"/>
 <path stroke="black" fill="#ccc" d="M1048.82 141.732L1218.9 141.732L1218.9 198.425L1048.82 198.425Z"/>
 <path stroke="black" fill="#ccc" d="M878.74 141.732L1048.82 141.732L1048.82 198.425L878.74 198.425Z"/>
 <path stroke="black" fill="#ccc" d="M255.118 141.732L425.197 141.732L425.197 198.425L255.118 198.425Z"/>
 <path stroke="black" fill="#ccc" d="M85.0394 141.732L255.118 141.732L255.118 198.425L85.0394 198.425Z"/>
 <path stroke="black" fill="#ccc" d="M1360.63 113.386L1700.79 113.386L1700.79 141.732L1360.63 141.732Z"/>
 <path stroke="black" fill="#ccc" d="M1020.47 113.386L1360.63 113.386L1360.63 141.732L1020.47 141.732Z"/>
 <path stroke="black" fill="#ccc" d="M708.661 113.386L1020.47 113.386L1020.47 141.732L708.661 141.732Z"/>
 <path stroke="black" fill="#ccc" d="M368.504 113.386L708.661 113.386L708.661 141.732L368.504 141.732Z"/>
 <path stroke="black" fill="#ccc" d="M28.3465 113.386L368.504 113.386L368.504 141.732L28.3465 141.732Z"/>
 <path stroke="black" fill="#ccc" d="M1388.98 85.0394L1700.79 85.0394L1700.79 113.386L1388.98 113.386Z"/>
 <path stroke="black" fill="#ccc" d="M1048.82 85.0394L1388.98 85.0394L1388.98 113.386L1048.82 113.386Z"/>
 <path stroke="black" fill="#ccc" d="M340.157 85.0394L680.315 85.0394L680.315 113.386L340.157 113.386Z"/>
 <path stroke="black" fill="#ccc" d="M0 85.0394L340.157 85.0394L340.157 113.386L0 113.386Z"/>
 <path stroke="black" fill="#ccc" d="M1530.71 28.3465L1700.79 28.3465L1700.79 85.0394L1530.71 85.0394Z"/>
 <path stroke="black" fill="#ccc" d="M1360.63 28.3465L1530.71 28.3465L1530.71 85.0394L1360.63 85.0394Z"/>
 <path stroke="black" fill="#ccc" d="M1275.59 28.3465L1360.63 28.3465L1360.63 85.0394L1275.59 85.0394Z"/>
 <path stroke="black" fill="#ccc" d="M1133.86 28.3465L1275.59 28.3465L1275.59 85.0394L1133.86 85.0394Z"/>
 <path stroke="black" fill="#ccc" d="M992.126 28.3465L1133.86 28.3465L1133.86 85.0394L992.126 85.0394Z"/>
 <path stroke="black" fill="#ccc" d="M822.047 28.3465L992.126 28.3465L992.126 85.0394L822.047 85.0394Z"/>
 <path stroke="black" fill="#ccc" d="M651.969 28.3465L822.047 28.3465L822.047 85.0394L651.969 85.0394Z"/>
 <path stroke="black" fill="#ccc" d="M396.85 28.3465L566.929 28.3465L566.929 85.0394L396.85 85.0394Z"/>
 <path stroke="black" fill="#ccc" d="M198.425 28.3465L368.504 28.3465L368.504 85.0394L198.425 85.0394Z"/>
 <path stroke="black" fill="#ccc" d="M28.3465 28.3465L198.425 28.3465L198.425 85.0394L28.3465 85.0394Z"/>
 <path stroke="black" fill="#ccc" d="M1332.28 -0L1672.44 -0L1672.44 28.3465L1332.28 28.3465Z"/>
 <path stroke="black" fill="#ccc" d="M992.126 -0L1332.28 -0L1332.28 28.3465L992.126 28.3465Z"/>
 <path stroke="black" fill="#ccc" d="M651.969 -0L992.126 -0L992.126 28.3465L651.969 28.3465Z"/>
 <path stroke="black" fill="#ccc" d="M368.504 -0L651.969 -0L651.969 28.3465L368.504 28.3465Z"/>
 <path stroke="black" fill="#ccc" d="M255.118 -0L368.504 -0L368.504 28.3465L255.118 28.3465Z"/>
 <path stroke="black" fill="#ccc" d="M0 -0L255.118 -0L255.118 28.3465L0 28.3465Z"/>
 <path stroke="black" fill="#f2f2f2" d="M55.2756 14.1732L55.2756 14.151A12.7559 12.7559 0 0 0 29.7638 14.1732A12.7559 12.7559 0 0 0 55.2756 14.1955Z"/>
 <path stroke="black" fill="#f2f2f2" d="M111.969 14.1732L111.968 14.151A12.7559 12.7559 0 0 0 86.4567 14.1732A12.7559 12.7559 0 0 0 111.968 14.1955Z"/>
 <path stroke="black" fill="#f2f2f2" d="M225.354 14.1732L225.354 14.151A12.7559 12.7559 0 0 0 199.843 14.1732A12.7559 12.7559 0 0 0 225.354 14.1955Z"/>
 <path stroke="black" fill="#f2f2f2" d="M282.047 14.1732L282.047 14.151A12.7559 12.7559 0 0 0 256.535 14.1732A12.7559 12.7559 0 0 0 282.047 14.1955Z"/>
 <path stroke="black" fill="#f2f2f2" d="M310.394 14.1732L310.394 14.151A12.7559 12.7559 0 0 0 284.882 14.1732A12.7559 12.7559 0 0 0 310.394 14.1955Z"/>
 <path stroke="black" fill="#f2f2f2" d="M367.087 14.1732L367.087 14.151A12.7559 12.7559 0 0 0 341.575 14.1732A12.7559 12.7559 0 0 0 367.087 14.1955Z"/>
 <path stroke="black" fill="#f2f2f2" d="M395.433 14.1732L395.433 14.151A12.7559 12.7559 0 0 0 369.921 14.1732A12.7559 12.7559 0 0 0 395.433 14.1955Z"/>
 <path stroke="black" fill="#f2f2f2" d="M480.472 14.1732L480.472 14.151A12.7559 12.7559 0 0 0 454.961 14.1732A12.7559 12.7559 0 0 0 480.472 14.1955Z"/>
 <path stroke="black" fill="#f2f2f2" d="M565.512 14.1732L565.512 14.151A12.7559 12.7559 0 0 0 540 14.1732A12.7559 12.7559 0 0 0 565.512 14.1955Z"/>
 <path stroke="black" fill="#f2f2f2" d="M678.898 14.1732L678.898 14.151A12.7559 12.7559 0 0 0 653.386 14.1732A12.7559 12.7559 0 0 0 678.898 14.1955Z"/>
 <path stroke="black" fill="#f2f2f2" d="M763.937 14.1732L763.937 14.151A12.7559 12.7559 0 0 0 738.425 14.1732A12.7559 12.7559 0 0 0 763.937 14.1955Z"/>
 <path stroke="black" fill="#f2f2f2" d="M792.283 14.1732L792.283 14.151A12.7559 12.7559 0 0 0 766.772 14.1732A12.7559 12.7559 0 0 0 792.283 14.1955Z"/>
 <path stroke="black" fill="#f2f2f2" d="M1189.13 14.1732L1189.13 14.151A12.7559 12.7559 0 0 0 1163.62 14.1732A12.7559 12.7559 0 0 0 1189.13 14.1955Z"/>
 <path stroke="black" fill="#f2f2f2" d="M1217.48 14.1732L1217.48 14.151A12.7559 12.7559 0 0 0 1191.97 14.1732A12.7559 12.7559 0 0 0 1217.48 14.1955Z"/>
 <path stroke="black" fill="#f2f2f2" d="M1274.17 14.1732L1274.17 14.151A12.7559 12.7559 0 0 0 1248.66 14.1732A12.7559 12.7559 0 0 0 1274.17 14.1955Z"/>
 <path stroke="black" fill="#f2f2f2" d="M1302.52 14.1732L1302.52 14.151A12.7559 12.7559 0 0 0 1277.01 14.1732A12.7559 12.7559 0 0 0 1302.52 14.1955Z"/>
 <path stroke="black" fill="#f2f2f2" d="M1330.87 14.1732L1330.87 14.151A12.7559 12.7559 0 0 0 1305.35 14.1732A12.7559 12.7559 0 0 0 1330.87 14.1955Z"/>
 <path stroke="black" fill="#f2f2f2" d="M1472.6 14.1732L1472.6 14.151A12.7559 12.7559 0 0 0 1447.09 14.1732A12.7559 12.7559 0 0 0 1472.6 14.1955Z"/>
 <path stroke="black" fill="#f2f2f2" d="M1614.33 14.1732L1614.33 14.151A12.7559 12.7559 0 0 0 1588.82 14.1732A12.7559 12.7559 0 0 0 1614.33 14.1955Z"/>
 <path stroke="black" fill="#f2f2f2" d="M1671.02 14.1732L1671.02 14.151A12.7559 12.7559 0 0 0 1645.51 14.1732A12.7559 12.7559 0 0 0 1671.02 14.1955Z"/>
 <path stroke="black" fill="#f2f2f2" d="M197.008 42.5197L197.008 42.4974A12.7559 12.7559 0 0 0 171.496 42.5197A12.7559 12.7559 0 0 0 197.008 42.5419Z"/>
 <path stroke="black" fill="#f2f2f2" d="M225.354 42.5197L225.354 42.4974A12.7559 12.7559 0 0 0 199.843 42.5197A12.7559 12.7559 0 0 0 225.354 42.5419Z"/>
 <path stroke="black" fill="#f2f2f2" d="M310.394 42.5197L310.394 42.4974A12.7559 12.7559 0 0 0 284.882 42.5197A12.7559 12.7559 0 0 0 310.394 42.5419Z"/>
 <path stroke="black" fill="#f2f2f2" d="M565.512 42.5197L565.512 42.4974A12.7559 12.7559 0 0 0 540 42.5197A12.7559 12.7559 0 0 0 565.512 42.5419Z"/>
 <path stroke="black" fill="#f2f2f2" d="M735.591 42.5197L735.591 42.4974A12.7559 12.7559 0 0 0 710.079 42.5197A12.7559 12.7559 0 0 0 735.591 42.5419Z"/>
 <path stroke="black" fill="#f2f2f2" d="M820.63 42.5197L820.63 42.4974A12.7559 12.7559 0 0 0 795.118 42.5197A12.7559 12.7559 0 0 0 820.63 42.5419Z"/>
 <path stroke="black" fill="#f2f2f2" d="M848.976 42.5197L848.976 42.4974A12.7559 12.7559 0 0 0 823.465 42.5197A12.7559 12.7559 0 0 0 848.976 42.5419Z"/>
 <path stroke="black" fill="#f2f2f2" d="M877.323 42.5197L877.323 42.4974A12.7559 12.7559 0 0 0 851.811 42.5197A12.7559 12.7559 0 0 0 877.323 42.5419Z"/>
 <path stroke="black" fill="#f2f2f2" d="M990.709 42.5197L990.709 42.4974A12.7559 12.7559 0 0 0 965.197 42.5197A12.7559 12.7559 0 0 0 990.709 42.5419Z"/>
 <path stroke="black" fill="#f2f2f2" d="M1160.79 42.5197L1160.79 42.4974A12.7559 12.7559 0 0 0 1135.28 42.5197A12.7559 12.7559 0 0 0 1160.79 42.5419Z"/>
 <path stroke="black" fill="#f2f2f2" d="M1330.87 42.5197L1330.87 42.4974A12.7559 12.7559 0 0 0 1305.35 42.5197A12.7559 12.7559 0 0 0 1330.87 42.5419Z"/>
 <path stroke="black" fill="#f2f2f2" d="M1529.29 42.5197L1529.29 42.4974A12.7559 12.7559 0 0 0 1503.78 42.5197A12.7559 12.7559 0 0 0 1529.29 42.5419Z"/>
 <path stroke="black" fill="#f2f2f2" d="M1699.37 42.5197L1699.37 42.4974A12.7559 12.7559 0 0 0 1673.86 42.5197A12.7559 12.7559 0 0 0 1699.37 42.5419Z"/>
 <path stroke="black" fill="#f2f2f2" d="M140.315 70.8661L140.315 70.8439A12.7559 12.7559 0 0 0 114.803 70.8661A12.7559 12.7559 0 0 0 140.315 70.8884Z"/>
 <path stroke="black" fill="#f2f2f2" d="M197.008 70.8661L197.008 70.8439A12.7559 12.7559 0 0 0 171.496 70.8661A12.7559 12.7559 0 0 0 197.008 70.8884Z"/>
 <path stroke="black" fill="#f2f2f2" d="M338.74 70.8661L338.74 70.8439A12.7559 12.7559 0 0 0 313.228 70.8661A12.7559 12.7559 0 0 0 338.74 70.8884Z"/>
 <path stroke="black" fill="#f2f2f2" d="M423.78 70.8661L423.78 70.8439A12.7559 12.7559 0 0 0 398.268 70.8661A12.7559 12.7559 0 0 0 423.78 70.8884Z"/>
 <path stroke="black" fill="#f2f2f2" d="M480.472 70.8661L480.472 70.8439A12.7559 12.7559 0 0 0 454.961 70.8661A12.7559 12.7559 0 0 0 480.472 70.8884Z"/>
 <path stroke="black" fill="#f2f2f2" d="M565.512 70.8661L565.512 70.8439A12.7559 12.7559 0 0 0 540 70.8661A12.7559 12.7559 0 0 0 565.512 70.8884Z"/>
 <path stroke="black" fill="#f2f2f2" d="M735.591 70.8661L735.591 70.8439A12.7559 12.7559 0 0 0 710.079 70.8661A12.7559 12.7559 0 0 0 735.591 70.8884Z"/>
 <path stroke="black" fill="#f2f2f2" d="M820.63 70.8661L820.63 70.8439A12.7559 12.7559 0 0 0 795.118 70.8661A12.7559 12.7559 0 0 0 820.63 70.8884Z"/>
 <path stroke="black" fill="#f2f2f2" d="M990.709 70.8661L990.709 70.8439A12.7559 12.7559 0 0 0 965.197 70.8661A12.7559 12.7559 0 0 0 990.709 70.8884Z"/>
 <path stroke="black" fill="#f2f2f2" d="M1019.06 70.8661L1019.06 70.8439A12.7559 12.7559 0 0 0 993.543 70.8661A12.7559 12.7559 0 0 0 1019.06 70.8884Z"/>
 <path stroke="black" fill="#f2f2f2" d="M1104.09 70.8661L1104.09 70.8439A12.7559 12.7559 0 0 0 1078.58 70.8661A12.7559 12.7559 0 0 0 1104.09 70.8884Z"/>
 <path stroke="black" fill="#f2f2f2" d="M1132.44 70.8661L1132.44 70.8439A12.7559 12.7559 0 0 0 1106.93 70.8661A12.7559 12.7559 0 0 0 1132.44 70.8884Z"/>
 <path stroke="black" fill="#f2f2f2" d="M1160.79 70.8661L1160.79 70.8439A12.7559 12.7559 0 0 0 1135.28 70.8661A12.7559 12.7559 0 0 0 1160.79 70.8884Z"/>
 <path stroke="black" fill="#f2f2f2" d="M1217.48 70.8661L1217.48 70.8439A12.7559 12.7559 0 0 0 1191.97 70.8661A12.7559 12.7559 0 0 0 1217.48 70.8884Z"/>
 <path stroke="black" fill="#f2f2f2" d="M1302.52 70.8661L1302.52 70.8439A12.7559 12.7559 0 0 0 1277.01 70.8661A12.7559 12.7559 0 0 0 1302.52 70.8884Z"/>
 <path stroke="black" fill="#f2f2f2" d="M1330.87 70.8661L1330.87 70.8439A12.7559 12.7559 0 0 0 1305.35 70.8661A12.7559 12.7559 0 0 0 1330.87 70.8884Z"/>
 <path stroke="black" fill="#f2f2f2" d="M1387.56 70.8661L1387.56 70.8439A12.7559 12.7559 0 0 0 1362.05 70.8661A12.7559 12.7559 0 0 0 1387.56 70.8884Z"/>
 <path stroke="black" fill="#f2f2f2" d="M1415.91 70.8661L1415.91 70.8439A12.7559 12.7559 0 0 0 1390.39 70.8661A12.7559 12.7559 0 0 0 1415.91 70.8884Z"/>
 <path stroke="black" fill="#f2f2f2" d="M1585.98 70.8661L1585.98 70.8439A12.7559 12.7559 0 0 0 1560.47 70.8661A12.7559 12.7559 0 0 0 1585.98 70.8884Z"/>
 <path stroke="black" fill="#f2f2f2" d="M1614.33 70.8661L1614.33 70.8439A12.7559 12.7559 0 0 0 1588.82 70.8661A12.7559 12.7559 0 0 0 1614.33 70.8884Z"/>
 <path stroke="black" fill="#f2f2f2" d="M111.969 99.2126L111.968 99.1903A12.7559 12.7559 0 0 0 86.4567 99.2126A12.7559 12.7559 0 0 0 111.968 99.2349Z"/>
 <path stroke="black" fill="#f2f2f2" d="M225.354 99.2126L225.354 99.1903A12.7559 12.7559 0 0 0 199.843 99.2126A12.7559 12.7559 0 0 0 225.354 99.2349Z"/>
 <path stroke="black" fill="#f2f2f2" d="M253.701 99.2126L253.701 99.1903A12.7559 12.7559 0 0 0 228.189 99.2126A12.7559 12.7559 0 0 0 253.701 99.2349Z"/>
 <path stroke="black" fill="#f2f2f2" d="M367.087 99.2126L367.087 99.1903A12.7559 12.7559 0 0 0 341.575 99.2126A12.7559 12.7559 0 0 0 367.087 99.2349Z"/>
 <path stroke="black" fill="#f2f2f2" d="M508.819 99.2126L508.819 99.1903A12.7559 12.7559 0 0 0 483.307 99.2126A12.7559 12.7559 0 0 0 508.819 99.2349Z"/>
 <path stroke="black" fill="#f2f2f2" d="M678.898 99.2126L678.898 99.1903A12.7559 12.7559 0 0 0 653.386 99.2126A12.7559 12.7559 0 0 0 678.898 99.2349Z"/>
 <path stroke="black" fill="#f2f2f2" d="M735.591 99.2126L735.591 99.1903A12.7559 12.7559 0 0 0 710.079 99.2126A12.7559 12.7559 0 0 0 735.591 99.2349Z"/>
 <path stroke="black" fill="#f2f2f2" d="M792.283 99.2126L792.283 99.1903A12.7559 12.7559 0 0 0 766.772 99.2126A12.7559 12.7559 0 0 0 792.283 99.2349Z"/>
 <path stroke="black" fill="#f2f2f2" d="M1104.09 99.2126L1104.09 99.1903A12.7559 12.7559 0 0 0 1078.58 99.2126A12.7559 12.7559 0 0 0 1104.09 99.2349Z"/>
 <path stroke="black" fill="#f2f2f2" d="M1274.17 99.2126L1274.17 99.1903A12.7559 12.7559 0 0 0 1248.66 99.2126A12.7559 12.7559 0 0 0 1274.17 99.2349Z"/>
 <path stroke="black" fill="#f2f2f2" d="M1387.56 99.2126L1387.56 99.1903A12.7559 12.7559 0 0 0 1362.05 99.2126A12.7559 12.7559 0 0 0 1387.56 99.2349Z"/>
 <path stroke="black" fill="#f2f2f2" d="M1444.25 99.2126L1444.25 99.1903A12.7559 12.7559 0 0 0 1418.74 99.2126A12.7559 12.7559 0 0 0 1444.25 99.2349Z"/>
 <path stroke="black" fill="#f2f2f2" d="M1472.6 99.2126L1472.6 99.1903A12.7559 12.7559 0 0 0 1447.09 99.2126A12.7559 12.7559 0 0 0 1472.6 99.2349Z"/>
 <path stroke="black" fill="#f2f2f2" d="M1557.64 99.2126L1557.64 99.1903A12.7559 12.7559 0 0 0 1532.13 99.2126A12.7559 12.7559 0 0 0 1557.64 99.2349Z"/>
 <path stroke="black" fill="#f2f2f2" d="M1585.98 99.2126L1585.98 99.1903A12.7559 12.7559 0 0 0 1560.47 99.2126A12.7559 12.7559 0 0 0 1585.98 99.2349Z"/>
 <path stroke="black" fill="#f2f2f2" d="M1642.68 99.2126L1642.68 99.1903A12.7559 12.7559 0 0 0 1617.17 99.2126A12.7559 12.7559 0 0 0 1642.68 99.2349Z"/>
 <path stroke="black" fill="#f2f2f2" d="M140.315 127.559L140.315 127.537A12.7559 12.7559 0 0 0 114.803 127.559A12.7559 12.7559 0 0 0 140.315 127.581Z"/>
 <path stroke="black" fill="#f2f2f2" d="M197.008 127.559L197.008 127.537A12.7559 12.7559 0 0 0 171.496 127.559A12.7559 12.7559 0 0 0 197.008 127.581Z"/>
 <path stroke="black" fill="#f2f2f2" d="M367.087 127.559L367.087 127.537A12.7559 12.7559 0 0 0 341.575 127.559A12.7559 12.7559 0 0 0 367.087 127.581Z"/>
 <path stroke="black" fill="#f2f2f2" d="M480.472 127.559L480.472 127.537A12.7559 12.7559 0 0 0 454.961 127.559A12.7559 12.7559 0 0 0 480.472 127.581Z"/>
 <path stroke="black" fill="#f2f2f2" d="M508.819 127.559L508.819 127.537A12.7559 12.7559 0 0 0 483.307 127.559A12.7559 12.7559 0 0 0 508.819 127.581Z"/>
 <path stroke="black" fill="#f2f2f2" d="M678.898 127.559L678.898 127.537A12.7559 12.7559 0 0 0 653.386 127.559A12.7559 12.7559 0 0 0 678.898 127.581Z"/>
 <path stroke="black" fill="#f2f2f2" d="M848.976 127.559L848.976 127.537A12.7559 12.7559 0 0 0 823.465 127.559A12.7559 12.7559 0 0 0 848.976 127.581Z"/>
 <path stroke="black" fill="#f2f2f2" d="M990.709 127.559L990.709 127.537A12.7559 12.7559 0 0 0 965.197 127.559A12.7559 12.7559 0 0 0 990.709 127.581Z"/>
 <path stroke="black" fill="#f2f2f2" d="M1019.06 127.559L1019.06 127.537A12.7559 12.7559 0 0 0 993.543 127.559A12.7559 12.7559 0 0 0 1019.06 127.581Z"/>
 <path stroke="black" fill="#f2f2f2" d="M1047.4 127.559L1047.4 127.537A12.7559 12.7559 0 0 0 1021.89 127.559A12.7559 12.7559 0 0 0 1047.4 127.581Z"/>
 <path stroke="black" fill="#f2f2f2" d="M1189.13 127.559L1189.13 127.537A12.7559 12.7559 0 0 0 1163.62 127.559A12.7559 12.7559 0 0 0 1189.13 127.581Z"/>
 <path stroke="black" fill="#f2f2f2" d="M1359.21 127.559L1359.21 127.537A12.7559 12.7559 0 0 0 1333.7 127.559A12.7559 12.7559 0 0 0 1359.21 127.581Z"/>
 <path stroke="black" fill="#f2f2f2" d="M1444.25 127.559L1444.25 127.537A12.7559 12.7559 0 0 0 1418.74 127.559A12.7559 12.7559 0 0 0 1444.25 127.581Z"/>
 <path stroke="black" fill="#f2f2f2" d="M1642.68 127.559L1642.68 127.537A12.7559 12.7559 0 0 0 1617.17 127.559A12.7559 12.7559 0 0 0 1642.68 127.581Z"/>
 <path stroke="black" fill="#f2f2f2" d="M1671.02 127.559L1671.02 127.537A12.7559 12.7559 0 0 0 1645.51 127.559A12.7559 12.7559 0 0 0 1671.02 127.581Z"/>
 <path stroke="black" fill="#f2f2f2" d="M140.315 155.906L140.315 155.883A12.7559 12.7559 0 0 0 114.803 155.906A12.7559 12.7559 0 0 0 140.315 155.928Z"/>
 <path stroke="black" fill="#f2f2f2" d="M168.661 155.906L168.661 155.883A12.7559 12.7559 0 0 0 143.15 155.906A12.7559 12.7559 0 0 0 168.661 155.928Z"/>
 <path stroke="black" fill="#f2f2f2" d="M338.74 155.906L338.74 155.883A12.7559 12.7559 0 0 0 313.228 155.906A12.7559 12.7559 0 0 0 338.74 155.928Z"/>
 <path stroke="black" fill="#f2f2f2" d="M367.087 155.906L367.087 155.883A12.7559 12.7559 0 0 0 341.575 155.906A12.7559 12.7559 0 0 0 367.087 155.928Z"/>
 <path stroke="black" fill="#f2f2f2" d="M395.433 155.906L395.433 155.883A12.7559 12.7559 0 0 0 369.921 155.906A12.7559 12.7559 0 0 0 395.433 155.928Z"/>
 <path stroke="black" fill="#f2f2f2" d="M537.165 155.906L537.165 155.883A12.7559 12.7559 0 0 0 511.654 155.906A12.7559 12.7559 0 0 0 537.165 155.928Z"/>
 <path stroke="black" fill="#f2f2f2" d="M707.244 155.906L707.244 155.883A12.7559 12.7559 0 0 0 681.732 155.906A12.7559 12.7559 0 0 0 707.244 155.928Z"/>
 <path stroke="black" fill="#f2f2f2" d="M962.362 155.906L962.362 155.883A12.7559 12.7559 0 0 0 936.85 155.906A12.7559 12.7559 0 0 0 962.362 155.928Z"/>
 <path stroke="black" fill="#f2f2f2" d="M1047.4 155.906L1047.4 155.883A12.7559 12.7559 0 0 0 1021.89 155.906A12.7559 12.7559 0 0 0 1047.4 155.928Z"/>
 <path stroke="black" fill="#f2f2f2" d="M1189.13 155.906L1189.13 155.883A12.7559 12.7559 0 0 0 1163.62 155.906A12.7559 12.7559 0 0 0 1189.13 155.928Z"/>
 <path stroke="black" fill="#f2f2f2" d="M1217.48 155.906L1217.48 155.883A12.7559 12.7559 0 0 0 1191.97 155.906A12.7559 12.7559 0 0 0 1217.48 155.928Z"/>
 <path stroke="black" fill="#f2f2f2" d="M1245.83 155.906L1245.83 155.883A12.7559 12.7559 0 0 0 1220.31 155.906A12.7559 12.7559 0 0 0 1245.83 155.928Z"/>
 <path stroke="black" fill="#f2f2f2" d="M1529.29 155.906L1529.29 155.883A12.7559 12.7559 0 0 0 1503.78 155.906A12.7559 12.7559 0 0 0 1529.29 155.928Z"/>
 <path stroke="black" fill="#f2f2f2" d="M1585.98 155.906L1585.98 155.883A12.7559 12.7559 0 0 0 1560.47 155.906A12.7559 12.7559 0 0 0 1585.98 155.928Z"/>
 <path stroke="black" fill="#f2f2f2" d="M1671.02 155.906L1671.02 155.883A12.7559 12.7559 0 0 0 1645.51 155.906A12.7559 12.7559 0 0 0 1671.02 155.928Z"/>
 <path stroke="black" fill="#f2f2f2" d="M253.701 184.252L253.701 184.23A12.7559 12.7559 0 0 0 228.189 184.252A12.7559 12.7559 0 0 0 253.701 184.274Z"/>
 <path stroke="black" fill="#f2f2f2" d="M452.126 184.252L452.126 184.23A12.7559 12.7559 0 0 0 426.614 184.252A12.7559 12.7559 0 0 0 452.126 184.274Z"/>
 <path stroke="black" fill="#f2f2f2" d="M763.937 184.252L763.937 184.23A12.7559 12.7559 0 0 0 738.425 184.252A12.7559 12.7559 0 0 0 763.937 184.274Z"/>
 <path stroke="black" fill="#f2f2f2" d="M990.709 184.252L990.709 184.23A12.7559 12.7559 0 0 0 965.197 184.252A12.7559 12.7559 0 0 0 990.709 184.274Z"/>
 <path stroke="black" fill="#f2f2f2" d="M1189.13 184.252L1189.13 184.23A12.7559 12.7559 0 0 0 1163.62 184.252A12.7559 12.7559 0 0 0 1189.13 184.274Z"/>
 <path stroke="black" fill="#f2f2f2" d="M1302.52 184.252L1302.52 184.23A12.7559 12.7559 0 0 0 1277.01 184.252A12.7559 12.7559 0 0 0 1302.52 184.274Z"/>
 <path stroke="black" fill="#f2f2f2" d="M1330.87 184.252L1330.87 184.23A12.7559 12.7559 0 0 0 1305.35 184.252A12.7559 12.7559 0 0 0 1330.87 184.274Z"/>
 <path stroke="black" fill="#f2f2f2" d="M1529.29 184.252L1529.29 184.23A12.7559 12.7559 0 0 0 1503.78 184.252A12.7559 12.7559 0 0 0 1529.29 184.274Z"/>
 <path stroke="black" fill="#f2f2f2" d="M1557.64 184.252L1557.64 184.23A12.7559 12.7559 0 0 0 1532.13 184.252A12.7559 12.7559 0 0 0 1557.64 184.274Z"/>
 <path stroke="black" fill="#f2f2f2" d="M1585.98 184.252L1585.98 184.23A12.7559 12.7559 0 0 0 1560.47 184.252A12.7559 12.7559 0 0 0 1585.98 184.274Z"/>
 <path stroke="black" fill="#f2f2f2" d="M1614.33 184.252L1614.33 184.23A12.7559 12.7559 0 0 0 1588.82 184.252A12.7559 12.7559 0 0 0 1614.33 184.274Z"/>
 <path stroke="black" fill="#f2f2f2" d="M1699.37 184.252L1699.37 184.23A12.7559 12.7559 0 0 0 1673.86 184.252A12.7559 12.7559 0 0 0 1699.37 184.274Z"/>
 <path stroke="black" fill="#f2f2f2" d="M83.622 212.598L83.622 212.576A12.7559 12.7559 0 0 0 58.1102 212.598A12.7559 12.7559 0 0 0 83.622 212.621Z"/>
 <path stroke="black" fill="#f2f2f2" d="M168.661 212.598L168.661 212.576A12.7559 12.7559 0 0 0 143.15 212.598A12.7559 12.7559 0 0 0 168.661 212.621Z"/>
 <path stroke="black" fill="#f2f2f2" d="M225.354 212.598L225.354 212.576A12.7559 12.7559 0 0 0 199.843 212.598A12.7559 12.7559 0 0 0 225.354 212.621Z"/>
 <path stroke="black" fill="#f2f2f2" d="M310.394 212.598L310.394 212.576A12.7559 12.7559 0 0 0 284.882 212.598A12.7559 12.7559 0 0 0 310.394 212.621Z"/>
 <path stroke="black" fill="#f2f2f2" d="M367.087 212.598L367.087 212.576A12.7559 12.7559 0 0 0 341.575 212.598A12.7559 12.7559 0 0 0 367.087 212.621Z"/>
 <path stroke="black" fill="#f2f2f2" d="M452.126 212.598L452.126 212.576A12.7559 12.7559 0 0 0 426.614 212.598A12.7559 12.7559 0 0 0 452.126 212.621Z"/>
 <path stroke="black" fill="#f2f2f2" d="M480.472 212.598L480.472 212.576A12.7559 12.7559 0 0 0 454.961 212.598A12.7559 12.7559 0 0 0 480.472 212.621Z"/>
 <path stroke="black" fill="#f2f2f2" d="M990.709 212.598L990.709 212.576A12.7559 12.7559 0 0 0 965.197 212.598A12.7559 12.7559 0 0 0 990.709 212.621Z"/>
 <path stroke="black" fill="#f2f2f2" d="M1160.79 212.598L1160.79 212.576A12.7559 12.7559 0 0 0 1135.28 212.598A12.7559 12.7559 0 0 0 1160.79 212.621Z"/>
 <path stroke="black" fill="#f2f2f2" d="M1302.52 212.598L1302.52 212.576A12.7559 12.7559 0 0 0 1277.01 212.598A12.7559 12.7559 0 0 0 1302.52 212.621Z"/>
 <path stroke="black" fill="#f2f2f2" d="M1330.87 212.598L1330.87 212.576A12.7559 12.7559 0 0 0 1305.35 212.598A12.7559 12.7559 0 0 0 1330.87 212.621Z"/>
 <path stroke="black" fill="#f2f2f2" d="M1415.91 212.598L1415.91 212.576A12.7559 12.7559 0 0 0 1390.39 212.598A12.7559 12.7559 0 0 0 1415.91 212.621Z"/>
 <path stroke="black" fill="#f2f2f2" d="M1529.29 212.598L1529.29 212.576A12.7559 12.7559 0 0 0 1503.78 212.598A12.7559 12.7559 0 0 0 1529.29 212.621Z"/>
 <path stroke="black" fill="#f2f2f2" d="M55.2756 240.945L55.2756 240.923A12.7559 12.7559 0 0 0 29.7638 240.945A12.7559 12.7559 0 0 0 55.2756 240.967Z"/>
 <path stroke="black" fill="#f2f2f2" d="M310.394 240.945L310.394 240.923A12.7559 12.7559 0 0 0 284.882 240.945A12.7559 12.7559 0 0 0 310.394 240.967Z"/>
 <path stroke="black" fill="#f2f2f2" d="M338.74 240.945L338.74 240.923A12.7559 12.7559 0 0 0 313.228 240.945A12.7559 12.7559 0 0 0 338.74 240.967Z"/>
 <path stroke="black" fill="#f2f2f2" d="M395.433 240.945L395.433 240.923A12.7559 12.7559 0 0 0 369.921 240.945A12.7559 12.7559 0 0 0 395.433 240.967Z"/>
 <path stroke="black" fill="#f2f2f2" d="M508.819 240.945L508.819 240.923A12.7559 12.7559 0 0 0 483.307 240.945A12.7559 12.7559 0 0 0 508.819 240.967Z"/>
 <path stroke="black" fill="#f2f2f2" d="M565.512 240.945L565.512 240.923A12.7559 12.7559 0 0 0 540 240.945A12.7559 12.7559 0 0 0 565.512 240.967Z"/>
 <path stroke="black" fill="#f2f2f2" d="M622.205 240.945L622.205 240.923A12.7559 12.7559 0 0 0 596.693 240.945A12.7559 12.7559 0 0 0 622.205 240.967Z"/>
 <path stroke="black" fill="#f2f2f2" d="M707.244 240.945L707.244 240.923A12.7559 12.7559 0 0 0 681.732 240.945A12.7559 12.7559 0 0 0 707.244 240.967Z"/>
 <path stroke="black" fill="#f2f2f2" d="M763.937 240.945L763.937 240.923A12.7559 12.7559 0 0 0 738.425 240.945A12.7559 12.7559 0 0 0 763.937 240.967Z"/>
 <path stroke="black" fill="#f2f2f2" d="M820.63 240.945L820.63 240.923A12.7559 12.7559 0 0 0 795.118 240.945A12.7559 12.7559 0 0 0 820.63 240.967Z"/>
 <path stroke="black" fill="#f2f2f2" d="M877.323 240.945L877.323 240.923A12.7559 12.7559 0 0 0 851.811 240.945A12.7559 12.7559 0 0 0 877.323 240.967Z"/>
 <path stroke="black" fill="#f2f2f2" d="M1075.75 240.945L1075.75 240.923A12.7559 12.7559 0 0 0 1050.24 240.945A12.7559 12.7559 0 0 0 1075.75 240.967Z"/>
 <path stroke="black" fill="#f2f2f2" d="M1104.09 240.945L1104.09 240.923A12.7559 12.7559 0 0 0 1078.58 240.945A12.7559 12.7559 0 0 0 1104.09 240.967Z"/>
 <path stroke="black" fill="#f2f2f2" d="M1359.21 240.945L1359.21 240.923A12.7559 12.7559 0 0 0 1333.7 240.945A12.7559 12.7559 0 0 0 1359.21 240.967Z"/>
 <path stroke="black" fill="#f2f2f2" d="M1387.56 240.945L1387.56 240.923A12.7559 12.7559 0 0 0 1362.05 240.945A12.7559 12.7559 0 0 0 1387.56 240.967Z"/>
 <path stroke="black" fill="#f2f2f2" d="M1415.91 240.945L1415.91 240.923A12.7559 12.7559 0 0 0 1390.39 240.945A12.7559 12.7559 0 0 0 1415.91 240.967Z"/>
 <path stroke="black" fill="#f2f2f2" d="M1444.25 240.945L1444.25 240.923A12.7559 12.7559 0 0 0 1418.74 240.945A12.7559 12.7559 0 0 0 1444.25 240.967Z"/>
 <path stroke="black" fill="#f2f2f2" d="M1529.29 240.945L1529.29 240.923A12.7559 12.7559 0 0 0 1503.78 240.945A12.7559 12.7559 0 0 0 1529.29 240.967Z"/>
 <path stroke="black" fill="#f2f2f2" d="M1614.33 240.945L1614.33 240.923A12.7559 12.7559 0 0 0 1588.82 240.945A12.7559 12.7559 0 0 0 1614.33 240.967Z"/>
 <path stroke="black" fill="#f2f2f2" d="M1699.37 240.945L1699.37 240.923A12.7559 12.7559 0 0 0 1673.86 240.945A12.7559 12.7559 0 0 0 1699.37 240.967Z"/>
 <path stroke="black" fill="#f2f2f2" d="M83.622 269.291L83.622 269.269A12.7559 12.7559 0 0 0 58.1102 269.291A12.7559 12.7559 0 0 0 83.622 269.314Z"/>
 <path stroke="black" fill="#f2f2f2" d="M111.969 269.291L111.968 269.269A12.7559 12.7559 0 0 0 86.4567 269.291A12.7559 12.7559 0 0 0 111.968 269.314Z"/>
 <path stroke="black" fill="#f2f2f2" d="M282.047 269.291L282.047 269.269A12.7559 12.7559 0 0 0 256.535 269.291A12.7559 12.7559 0 0 0 282.047 269.314Z"/>
 <path stroke="black" fill="#f2f2f2" d="M367.087 269.291L367.087 269.269A12.7559 12.7559 0 0 0 341.575 269.291A12.7559 12.7559 0 0 0 367.087 269.314Z"/>
 <path stroke="black" fill="#f2f2f2" d="M480.472 269.291L480.472 269.269A12.7559 12.7559 0 0 0 454.961 269.291A12.7559 12.7559 0 0 0 480.472 269.314Z"/>
 <path stroke="black" fill="#f2f2f2" d="M763.937 269.291L763.937 269.269A12.7559 12.7559 0 0 0 738.425 269.291A12.7559 12.7559 0 0 0 763.937 269.314Z"/>
 <path stroke="black" fill="#f2f2f2" d="M1245.83 269.291L1245.83 269.269A12.7559 12.7559 0 0 0 1220.31 269.291A12.7559 12.7559 0 0 0 1245.83 269.314Z"/>
 <path stroke="black" fill="#f2f2f2" d="M1302.52 269.291L1302.52 269.269A12.7559 12.7559 0 0 0 1277.01 269.291A12.7559 12.7559 0 0 0 1302.52 269.314Z"/>
 <path stroke="black" fill="#f2f2f2" d="M1415.91 269.291L1415.91 269.269A12.7559 12.7559 0 0 0 1390.39 269.291A12.7559 12.7559 0 0 0 1415.91 269.314Z"/>
 <path stroke="black" fill="#f2f2f2" d="M1472.6 269.291L1472.6 269.269A12.7559 12.7559 0 0 0 1447.09 269.291A12.7559 12.7559 0 0 0 1472.6 269.314Z"/>
 <path stroke="black" fill="#f2f2f2" d="M1500.94 269.291L1500.94 269.269A12.7559 12.7559 0 0 0 1475.43 269.291A12.7559 12.7559 0 0 0 1500.94 269.314Z"/>
 <path stroke="black" fill="#f2f2f2" d="M1671.02 269.291L1671.02 269.269A12.7559 12.7559 0 0 0 1645.51 269.291A12.7559 12.7559 0 0 0 1671.02 269.314Z"/>
</svg>
