<?xml version="1.0" encoding="UTF-8" standalone="no"?>
<svg
   xmlns:dc="http://purl.org/dc/elements/1.1/"
   xmlns:cc="http://creativecommons.org/ns#"
   xmlns:rdf="http://www.w3.org/1999/02/22-rdf-syntax-ns#"
   xmlns:svg="http://www.w3.org/2000/svg"
   xmlns="http://www.w3.org/2000/svg"
   xmlns:sodipodi="http://sodipodi.sourceforge.net/DTD/sodipodi-0.dtd"
   xmlns:inkscape="http://www.inkscape.org/namespaces/inkscape"
   version="1.1"
   fill="none"
   stroke-width="0.566929"
   stroke-miterlimit="10.000000"
   viewBox="-1 -1 1702.79 285.465"
   width="1702.79pt"
   y="-1pt"
   x="-1pt"
   height="285.465pt"
   id="svg2"
   inkscape:version="0.91 r13725"
   sodipodi:docname="pizza-guillotine.svg">
  <metadata
     id="metadata422">
    <rdf:RDF>
      <cc:Work
         rdf:about="">
        <dc:format>image/svg+xml</dc:format>
        <dc:type
           rdf:resource="http://purl.org/dc/dcmitype/StillImage" />
      </cc:Work>
    </rdf:RDF>
  </metadata>
  <defs
     id="defs420" />
  <sodipodi:namedview
     pagecolor="#ffffff"
     bordercolor="#666666"
     borderopacity="1"
     objecttolerance="10"
     gridtolerance="10"
     guidetolerance="10"
     inkscape:pageopacity="0"
     inkscape:pageshadow="2"
     inkscape:window-width="1395"
     inkscape:window-height="832"
     id="namedview418"
     showgrid="false"
     inkscape:zoom="0.63"
     inkscape:cx="584.3017"
     inkscape:cy="270.7573"
     inkscape:window-x="0"
     inkscape:window-y="0"
     inkscape:window-maximized="0"
     inkscape:current-layer="svg2" />
  <path
     stroke="black"
     d="M0 -0L1700.79 -0L1700.79 283.465L0 283.465Z"
     id="path4" />
  <path
     stroke="black"
     fill="#ccc"
     d="M1672.44 -0L1700.79 -0L1700.79 283.465L1672.44 283.465Z"
     id="path6" />
  <path
     stroke="black"
     fill="#ccc"
     d="M1502.36 226.772L1672.44 226.772L1672.44 283.465L1502.36 283.465Z"
     id="path8" />
  <path
     stroke="black"
     fill="#ccc"
     d="M1417.32 226.772L1502.36 226.772L1502.36 283.465L1417.32 283.465Z"
     id="path10" />
  <path
     stroke="black"
     fill="#ccc"
     d="M1077.17 255.118L1417.32 255.118L1417.32 283.465L1077.17 283.465Z"
     id="path12" />
  <path
     stroke="black"
     fill="#ccc"
     d="M1105.51 226.772L1417.32 226.772L1417.32 255.118L1105.51 255.118Z"
     id="path14" />
  <path
     stroke="black"
     fill="#ccc"
     d="M822.047 226.772L1105.51 226.772L1105.51 255.118L822.047 255.118Z"
     id="path16" />
  <path
     stroke="black"
     fill="#ccc"
     d="M1530.71 170.079L1672.44 170.079L1672.44 226.772L1530.71 226.772Z"
     id="path18" />
  <path
     stroke="black"
     fill="#ccc"
     d="M1360.63 170.079L1530.71 170.079L1530.71 226.772L1360.63 226.772Z"
     id="path20" />
  <path
     stroke="black"
     fill="#ccc"
     d="M1332.28 141.732L1672.44 141.732L1672.44 170.079L1332.28 170.079Z"
     id="path22" />
  <path
     stroke="black"
     fill="#ccc"
     d="M992.126 198.425L1332.28 198.425L1332.28 226.772L992.126 226.772Z"
     id="path24" />
  <path
     stroke="black"
     fill="#ccc"
     d="M992.126 170.079L1332.28 170.079L1332.28 198.425L992.126 198.425Z"
     id="path26" />
  <path
     stroke="black"
     fill="#ccc"
     d="M992.126 141.732L1332.28 141.732L1332.28 170.079L992.126 170.079Z"
     id="path28" />
  <path
     stroke="black"
     fill="#ccc"
     d="M878.74 141.732L992.126 141.732L992.126 226.772L878.74 226.772Z"
     id="path30" />
  <path
     stroke="black"
     fill="#ccc"
     d="M1587.4 85.0394L1672.44 85.0394L1672.44 141.732L1587.4 141.732Z"
     id="path32" />
  <path
     stroke="black"
     fill="#ccc"
     d="M1587.4 -0L1672.44 -0L1672.44 85.0394L1587.4 85.0394Z"
     id="path34" />
  <path
     stroke="black"
     fill="#ccc"
     d="M1530.71 -0L1587.4 -0L1587.4 141.732L1530.71 141.732Z"
     id="path36" />
  <path
     stroke="black"
     fill="#ccc"
     d="M1388.98 85.0394L1530.71 85.0394L1530.71 141.732L1388.98 141.732Z"
     id="path38" />
  <path
     stroke="black"
     fill="#ccc"
     d="M1218.9 85.0394L1388.98 85.0394L1388.98 141.732L1218.9 141.732Z"
     id="path40" />
  <path
     stroke="black"
     fill="#ccc"
     d="M1360.63 28.3465L1530.71 28.3465L1530.71 85.0394L1360.63 85.0394Z"
     id="path42" />
  <path
     stroke="black"
     fill="#ccc"
     d="M1218.9 28.3465L1360.63 28.3465L1360.63 85.0394L1218.9 85.0394Z"
     id="path44" />
  <path
     stroke="black"
     fill="#ccc"
     d="M1133.86 28.3465L1218.9 28.3465L1218.9 141.732L1133.86 141.732Z"
     id="path46" />
  <path
     stroke="black"
     fill="#ccc"
     d="M1048.82 28.3465L1133.86 28.3465L1133.86 141.732L1048.82 141.732Z"
     id="path48" />
  <path
     stroke="black"
     fill="#ccc"
     d="M878.74 85.0394L1048.82 85.0394L1048.82 141.732L878.74 141.732Z"
     id="path50" />
  <path
     stroke="black"
     fill="#ccc"
     d="M878.74 28.3465L1048.82 28.3465L1048.82 85.0394L878.74 85.0394Z"
     id="path52" />
  <path
     stroke="black"
     fill="#ccc"
     d="M1275.59 -0L1530.71 -0L1530.71 28.3465L1275.59 28.3465Z"
     id="path54" />
  <path
     stroke="black"
     fill="#ccc"
     d="M935.433 -0L1275.59 -0L1275.59 28.3465L935.433 28.3465Z"
     id="path56" />
  <path
     stroke="black"
     fill="#ccc"
     d="M822.047 28.3465L878.74 28.3465L878.74 198.425L822.047 198.425Z"
     id="path58" />
  <path
     stroke="black"
     fill="#ccc"
     d="M793.701 -0L822.047 -0L822.047 283.465L793.701 283.465Z"
     id="path60" />
  <path
     stroke="black"
     fill="#ccc"
     d="M708.661 170.079L793.701 170.079L793.701 283.465L708.661 283.465Z"
     id="path62" />
  <path
     stroke="black"
     fill="#ccc"
     d="M538.583 226.772L708.661 226.772L708.661 283.465L538.583 283.465Z"
     id="path64" />
  <path
     stroke="black"
     fill="#ccc"
     d="M368.504 226.772L538.583 226.772L538.583 283.465L368.504 283.465Z"
     id="path66" />
  <path
     stroke="black"
     fill="#ccc"
     d="M198.425 226.772L368.504 226.772L368.504 283.465L198.425 283.465Z"
     id="path68" />
  <path
     stroke="black"
     fill="#ccc"
     d="M28.3465 226.772L198.425 226.772L198.425 283.465L28.3465 283.465Z"
     id="path70" />
  <path
     stroke="black"
     fill="#ccc"
     d="M425.197 170.079L595.276 170.079L595.276 226.772L425.197 226.772Z"
     id="path72" />
  <path
     stroke="black"
     fill="#ccc"
     d="M226.772 170.079L396.85 170.079L396.85 226.772L226.772 226.772Z"
     id="path74" />
  <path
     stroke="black"
     fill="#ccc"
     d="M56.6929 170.079L226.772 170.079L226.772 226.772L56.6929 226.772Z"
     id="path76" />
  <path
     stroke="black"
     fill="#ccc"
     d="M680.315 85.0394L793.701 85.0394L793.701 170.079L680.315 170.079Z"
     id="path78" />
  <path
     stroke="black"
     fill="#ccc"
     d="M340.157 141.732L680.315 141.732L680.315 170.079L340.157 170.079Z"
     id="path80" />
  <path
     stroke="black"
     fill="#ccc"
     d="M0 141.732L340.157 141.732L340.157 170.079L0 170.079Z"
     id="path82" />
  <path
     stroke="black"
     fill="#ccc"
     d="M368.504 113.386L680.315 113.386L680.315 141.732L368.504 141.732Z"
     id="path84" />
  <path
     stroke="black"
     fill="#ccc"
     d="M28.3465 113.386L368.504 113.386L368.504 141.732L28.3465 141.732Z"
     id="path86" />
  <path
     stroke="black"
     fill="#ccc"
     d="M340.157 85.0394L680.315 85.0394L680.315 113.386L340.157 113.386Z"
     id="path88" />
  <path
     stroke="black"
     fill="#ccc"
     d="M0 85.0394L340.157 85.0394L340.157 113.386L0 113.386Z"
     id="path90" />
  <path
     stroke="black"
     fill="#ccc"
     d="M453.543 56.6929L793.701 56.6929L793.701 85.0394L453.543 85.0394Z"
     id="path92" />
  <path
     stroke="black"
     fill="#ccc"
     d="M623.622 -0L793.701 -0L793.701 56.6929L623.622 56.6929Z"
     id="path94" />
  <path
     stroke="black"
     fill="#ccc"
     d="M453.543 -0L623.622 -0L623.622 56.6929L453.543 56.6929Z"
     id="path96" />
  <path
     stroke="black"
     fill="#ccc"
     d="M340.157 -0L453.543 -0L453.543 85.0394L340.157 85.0394Z"
     id="path98" />
  <path
     stroke="black"
     fill="#ccc"
     d="M0 56.6929L340.157 56.6929L340.157 85.0394L0 85.0394Z"
     id="path100" />
  <path
     stroke="black"
     fill="#ccc"
     d="M0 28.3465L340.157 28.3465L340.157 56.6929L0 56.6929Z"
     id="path102" />
  <path
     stroke="black"
     fill="#ccc"
     d="M0 -0L340.157 -0L340.157 28.3465L0 28.3465Z"
     id="path104" />
  <path
     stroke="black"
     fill="#f2f2f2"
     d="M55.2756 14.1732L55.2756 14.151A12.7559 12.7559 0 0 0 29.7638 14.1732A12.7559 12.7559 0 0 0 55.2756 14.1955Z"
     id="path106" />
  <path
     stroke="black"
     fill="#f2f2f2"
     d="M111.969 14.1732L111.968 14.151A12.7559 12.7559 0 0 0 86.4567 14.1732A12.7559 12.7559 0 0 0 111.968 14.1955Z"
     id="path108" />
  <path
     stroke="black"
     fill="#f2f2f2"
     d="M225.354 14.1732L225.354 14.151A12.7559 12.7559 0 0 0 199.843 14.1732A12.7559 12.7559 0 0 0 225.354 14.1955Z"
     id="path110" />
  <path
     stroke="black"
     fill="#f2f2f2"
     d="M282.047 14.1732L282.047 14.151A12.7559 12.7559 0 0 0 256.535 14.1732A12.7559 12.7559 0 0 0 282.047 14.1955Z"
     id="path112" />
  <path
     stroke="black"
     fill="#f2f2f2"
     d="M310.394 14.1732L310.394 14.151A12.7559 12.7559 0 0 0 284.882 14.1732A12.7559 12.7559 0 0 0 310.394 14.1955Z"
     id="path114" />
  <path
     stroke="black"
     fill="#f2f2f2"
     d="M367.087 14.1732L367.087 14.151A12.7559 12.7559 0 0 0 341.575 14.1732A12.7559 12.7559 0 0 0 367.087 14.1955Z"
     id="path116" />
  <path
     stroke="black"
     fill="#f2f2f2"
     d="M395.433 14.1732L395.433 14.151A12.7559 12.7559 0 0 0 369.921 14.1732A12.7559 12.7559 0 0 0 395.433 14.1955Z"
     id="path118" />
  <path
     stroke="black"
     fill="#f2f2f2"
     d="M480.472 14.1732L480.472 14.151A12.7559 12.7559 0 0 0 454.961 14.1732A12.7559 12.7559 0 0 0 480.472 14.1955Z"
     id="path120" />
  <path
     stroke="black"
     fill="#f2f2f2"
     d="M565.512 14.1732L565.512 14.151A12.7559 12.7559 0 0 0 540 14.1732A12.7559 12.7559 0 0 0 565.512 14.1955Z"
     id="path122" />
  <path
     stroke="black"
     fill="#f2f2f2"
     d="M678.898 14.1732L678.898 14.151A12.7559 12.7559 0 0 0 653.386 14.1732A12.7559 12.7559 0 0 0 678.898 14.1955Z"
     id="path124" />
  <path
     stroke="black"
     fill="#f2f2f2"
     d="M763.937 14.1732L763.937 14.151A12.7559 12.7559 0 0 0 738.425 14.1732A12.7559 12.7559 0 0 0 763.937 14.1955Z"
     id="path126" />
  <path
     stroke="black"
     fill="#f2f2f2"
     d="M792.283 14.1732L792.283 14.151A12.7559 12.7559 0 0 0 766.772 14.1732A12.7559 12.7559 0 0 0 792.283 14.1955Z"
     id="path128" />
  <path
     stroke="black"
     fill="#f2f2f2"
     d="M1189.13 14.1732L1189.13 14.151A12.7559 12.7559 0 0 0 1163.62 14.1732A12.7559 12.7559 0 0 0 1189.13 14.1955Z"
     id="path130" />
  <path
     stroke="black"
     fill="#f2f2f2"
     d="M1217.48 14.1732L1217.48 14.151A12.7559 12.7559 0 0 0 1191.97 14.1732A12.7559 12.7559 0 0 0 1217.48 14.1955Z"
     id="path132" />
  <path
     stroke="black"
     fill="#f2f2f2"
     d="M1274.17 14.1732L1274.17 14.151A12.7559 12.7559 0 0 0 1248.66 14.1732A12.7559 12.7559 0 0 0 1274.17 14.1955Z"
     id="path134" />
  <path
     stroke="black"
     fill="#f2f2f2"
     d="M1302.52 14.1732L1302.52 14.151A12.7559 12.7559 0 0 0 1277.01 14.1732A12.7559 12.7559 0 0 0 1302.52 14.1955Z"
     id="path136" />
  <path
     stroke="black"
     fill="#f2f2f2"
     d="M1330.87 14.1732L1330.87 14.151A12.7559 12.7559 0 0 0 1305.35 14.1732A12.7559 12.7559 0 0 0 1330.87 14.1955Z"
     id="path138" />
  <path
     stroke="black"
     fill="#f2f2f2"
     d="M1472.6 14.1732L1472.6 14.151A12.7559 12.7559 0 0 0 1447.09 14.1732A12.7559 12.7559 0 0 0 1472.6 14.1955Z"
     id="path140" />
  <path
     stroke="black"
     fill="#f2f2f2"
     d="M1614.33 14.1732L1614.33 14.151A12.7559 12.7559 0 0 0 1588.82 14.1732A12.7559 12.7559 0 0 0 1614.33 14.1955Z"
     id="path142" />
  <path
     stroke="black"
     fill="#f2f2f2"
     d="M1671.02 14.1732L1671.02 14.151A12.7559 12.7559 0 0 0 1645.51 14.1732A12.7559 12.7559 0 0 0 1671.02 14.1955Z"
     id="path144" />
  <path
     stroke="black"
     fill="#f2f2f2"
     d="M197.008 42.5197L197.008 42.4974A12.7559 12.7559 0 0 0 171.496 42.5197A12.7559 12.7559 0 0 0 197.008 42.5419Z"
     id="path146" />
  <path
     stroke="black"
     fill="#f2f2f2"
     d="M225.354 42.5197L225.354 42.4974A12.7559 12.7559 0 0 0 199.843 42.5197A12.7559 12.7559 0 0 0 225.354 42.5419Z"
     id="path148" />
  <path
     stroke="black"
     fill="#f2f2f2"
     d="M310.394 42.5197L310.394 42.4974A12.7559 12.7559 0 0 0 284.882 42.5197A12.7559 12.7559 0 0 0 310.394 42.5419Z"
     id="path150" />
  <path
     stroke="black"
     fill="#f2f2f2"
     d="M565.512 42.5197L565.512 42.4974A12.7559 12.7559 0 0 0 540 42.5197A12.7559 12.7559 0 0 0 565.512 42.5419Z"
     id="path152" />
  <path
     stroke="black"
     fill="#f2f2f2"
     d="M735.591 42.5197L735.591 42.4974A12.7559 12.7559 0 0 0 710.079 42.5197A12.7559 12.7559 0 0 0 735.591 42.5419Z"
     id="path154" />
  <path
     stroke="black"
     fill="#f2f2f2"
     d="M820.63 42.5197L820.63 42.4974A12.7559 12.7559 0 0 0 795.118 42.5197A12.7559 12.7559 0 0 0 820.63 42.5419Z"
     id="path156" />
  <path
     stroke="black"
     fill="#f2f2f2"
     d="M848.976 42.5197L848.976 42.4974A12.7559 12.7559 0 0 0 823.465 42.5197A12.7559 12.7559 0 0 0 848.976 42.5419Z"
     id="path158" />
  <path
     stroke="black"
     fill="#f2f2f2"
     d="M877.323 42.5197L877.323 42.4974A12.7559 12.7559 0 0 0 851.811 42.5197A12.7559 12.7559 0 0 0 877.323 42.5419Z"
     id="path160" />
  <path
     stroke="black"
     fill="#f2f2f2"
     d="M990.709 42.5197L990.709 42.4974A12.7559 12.7559 0 0 0 965.197 42.5197A12.7559 12.7559 0 0 0 990.709 42.5419Z"
     id="path162" />
  <path
     stroke="black"
     fill="#f2f2f2"
     d="M1160.79 42.5197L1160.79 42.4974A12.7559 12.7559 0 0 0 1135.28 42.5197A12.7559 12.7559 0 0 0 1160.79 42.5419Z"
     id="path164" />
  <path
     stroke="black"
     fill="#f2f2f2"
     d="M1330.87 42.5197L1330.87 42.4974A12.7559 12.7559 0 0 0 1305.35 42.5197A12.7559 12.7559 0 0 0 1330.87 42.5419Z"
     id="path166" />
  <path
     stroke="black"
     fill="#f2f2f2"
     d="M1529.29 42.5197L1529.29 42.4974A12.7559 12.7559 0 0 0 1503.78 42.5197A12.7559 12.7559 0 0 0 1529.29 42.5419Z"
     id="path168" />
  <path
     stroke="black"
     fill="#f2f2f2"
     d="M1699.37 42.5197L1699.37 42.4974A12.7559 12.7559 0 0 0 1673.86 42.5197A12.7559 12.7559 0 0 0 1699.37 42.5419Z"
     id="path170" />
  <path
     stroke="black"
     fill="#f2f2f2"
     d="M140.315 70.8661L140.315 70.8439A12.7559 12.7559 0 0 0 114.803 70.8661A12.7559 12.7559 0 0 0 140.315 70.8884Z"
     id="path172" />
  <path
     stroke="black"
     fill="#f2f2f2"
     d="M197.008 70.8661L197.008 70.8439A12.7559 12.7559 0 0 0 171.496 70.8661A12.7559 12.7559 0 0 0 197.008 70.8884Z"
     id="path174" />
  <path
     stroke="black"
     fill="#f2f2f2"
     d="M338.74 70.8661L338.74 70.8439A12.7559 12.7559 0 0 0 313.228 70.8661A12.7559 12.7559 0 0 0 338.74 70.8884Z"
     id="path176" />
  <path
     stroke="black"
     fill="#f2f2f2"
     d="M423.78 70.8661L423.78 70.8439A12.7559 12.7559 0 0 0 398.268 70.8661A12.7559 12.7559 0 0 0 423.78 70.8884Z"
     id="path178" />
  <path
     stroke="black"
     fill="#f2f2f2"
     d="M480.472 70.8661L480.472 70.8439A12.7559 12.7559 0 0 0 454.961 70.8661A12.7559 12.7559 0 0 0 480.472 70.8884Z"
     id="path180" />
  <path
     stroke="black"
     fill="#f2f2f2"
     d="M565.512 70.8661L565.512 70.8439A12.7559 12.7559 0 0 0 540 70.8661A12.7559 12.7559 0 0 0 565.512 70.8884Z"
     id="path182" />
  <path
     stroke="black"
     fill="#f2f2f2"
     d="M735.591 70.8661L735.591 70.8439A12.7559 12.7559 0 0 0 710.079 70.8661A12.7559 12.7559 0 0 0 735.591 70.8884Z"
     id="path184" />
  <path
     stroke="black"
     fill="#f2f2f2"
     d="M820.63 70.8661L820.63 70.8439A12.7559 12.7559 0 0 0 795.118 70.8661A12.7559 12.7559 0 0 0 820.63 70.8884Z"
     id="path186" />
  <path
     stroke="black"
     fill="#f2f2f2"
     d="M990.709 70.8661L990.709 70.8439A12.7559 12.7559 0 0 0 965.197 70.8661A12.7559 12.7559 0 0 0 990.709 70.8884Z"
     id="path188" />
  <path
     stroke="black"
     fill="#f2f2f2"
     d="M1019.06 70.8661L1019.06 70.8439A12.7559 12.7559 0 0 0 993.543 70.8661A12.7559 12.7559 0 0 0 1019.06 70.8884Z"
     id="path190" />
  <path
     stroke="black"
     fill="#f2f2f2"
     d="M1104.09 70.8661L1104.09 70.8439A12.7559 12.7559 0 0 0 1078.58 70.8661A12.7559 12.7559 0 0 0 1104.09 70.8884Z"
     id="path192" />
  <path
     stroke="black"
     fill="#f2f2f2"
     d="M1132.44 70.8661L1132.44 70.8439A12.7559 12.7559 0 0 0 1106.93 70.8661A12.7559 12.7559 0 0 0 1132.44 70.8884Z"
     id="path194" />
  <path
     stroke="black"
     fill="#f2f2f2"
     d="M1160.79 70.8661L1160.79 70.8439A12.7559 12.7559 0 0 0 1135.28 70.8661A12.7559 12.7559 0 0 0 1160.79 70.8884Z"
     id="path196" />
  <path
     stroke="black"
     fill="#f2f2f2"
     d="M1217.48 70.8661L1217.48 70.8439A12.7559 12.7559 0 0 0 1191.97 70.8661A12.7559 12.7559 0 0 0 1217.48 70.8884Z"
     id="path198" />
  <path
     stroke="black"
     fill="#f2f2f2"
     d="M1302.52 70.8661L1302.52 70.8439A12.7559 12.7559 0 0 0 1277.01 70.8661A12.7559 12.7559 0 0 0 1302.52 70.8884Z"
     id="path200" />
  <path
     stroke="black"
     fill="#f2f2f2"
     d="M1330.87 70.8661L1330.87 70.8439A12.7559 12.7559 0 0 0 1305.35 70.8661A12.7559 12.7559 0 0 0 1330.87 70.8884Z"
     id="path202" />
  <path
     stroke="black"
     fill="#f2f2f2"
     d="M1387.56 70.8661L1387.56 70.8439A12.7559 12.7559 0 0 0 1362.05 70.8661A12.7559 12.7559 0 0 0 1387.56 70.8884Z"
     id="path204" />
  <path
     stroke="black"
     fill="#f2f2f2"
     d="M1415.91 70.8661L1415.91 70.8439A12.7559 12.7559 0 0 0 1390.39 70.8661A12.7559 12.7559 0 0 0 1415.91 70.8884Z"
     id="path206" />
  <path
     stroke="black"
     fill="#f2f2f2"
     d="M1585.98 70.8661L1585.98 70.8439A12.7559 12.7559 0 0 0 1560.47 70.8661A12.7559 12.7559 0 0 0 1585.98 70.8884Z"
     id="path208" />
  <path
     stroke="black"
     fill="#f2f2f2"
     d="M1614.33 70.8661L1614.33 70.8439A12.7559 12.7559 0 0 0 1588.82 70.8661A12.7559 12.7559 0 0 0 1614.33 70.8884Z"
     id="path210" />
  <path
     stroke="black"
     fill="#f2f2f2"
     d="M111.969 99.2126L111.968 99.1903A12.7559 12.7559 0 0 0 86.4567 99.2126A12.7559 12.7559 0 0 0 111.968 99.2349Z"
     id="path212" />
  <path
     stroke="black"
     fill="#f2f2f2"
     d="M225.354 99.2126L225.354 99.1903A12.7559 12.7559 0 0 0 199.843 99.2126A12.7559 12.7559 0 0 0 225.354 99.2349Z"
     id="path214" />
  <path
     stroke="black"
     fill="#f2f2f2"
     d="M253.701 99.2126L253.701 99.1903A12.7559 12.7559 0 0 0 228.189 99.2126A12.7559 12.7559 0 0 0 253.701 99.2349Z"
     id="path216" />
  <path
     stroke="black"
     fill="#f2f2f2"
     d="M367.087 99.2126L367.087 99.1903A12.7559 12.7559 0 0 0 341.575 99.2126A12.7559 12.7559 0 0 0 367.087 99.2349Z"
     id="path218" />
  <path
     stroke="black"
     fill="#f2f2f2"
     d="M508.819 99.2126L508.819 99.1903A12.7559 12.7559 0 0 0 483.307 99.2126A12.7559 12.7559 0 0 0 508.819 99.2349Z"
     id="path220" />
  <path
     stroke="black"
     fill="#f2f2f2"
     d="M678.898 99.2126L678.898 99.1903A12.7559 12.7559 0 0 0 653.386 99.2126A12.7559 12.7559 0 0 0 678.898 99.2349Z"
     id="path222" />
  <path
     stroke="black"
     fill="#f2f2f2"
     d="M735.591 99.2126L735.591 99.1903A12.7559 12.7559 0 0 0 710.079 99.2126A12.7559 12.7559 0 0 0 735.591 99.2349Z"
     id="path224" />
  <path
     stroke="black"
     fill="#f2f2f2"
     d="M792.283 99.2126L792.283 99.1903A12.7559 12.7559 0 0 0 766.772 99.2126A12.7559 12.7559 0 0 0 792.283 99.2349Z"
     id="path226" />
  <path
     stroke="black"
     fill="#f2f2f2"
     d="M1104.09 99.2126L1104.09 99.1903A12.7559 12.7559 0 0 0 1078.58 99.2126A12.7559 12.7559 0 0 0 1104.09 99.2349Z"
     id="path228" />
  <path
     stroke="black"
     fill="#f2f2f2"
     d="M1274.17 99.2126L1274.17 99.1903A12.7559 12.7559 0 0 0 1248.66 99.2126A12.7559 12.7559 0 0 0 1274.17 99.2349Z"
     id="path230" />
  <path
     stroke="black"
     fill="#f2f2f2"
     d="M1387.56 99.2126L1387.56 99.1903A12.7559 12.7559 0 0 0 1362.05 99.2126A12.7559 12.7559 0 0 0 1387.56 99.2349Z"
     id="path232" />
  <path
     stroke="black"
     fill="#f2f2f2"
     d="M1444.25 99.2126L1444.25 99.1903A12.7559 12.7559 0 0 0 1418.74 99.2126A12.7559 12.7559 0 0 0 1444.25 99.2349Z"
     id="path234" />
  <path
     stroke="black"
     fill="#f2f2f2"
     d="M1472.6 99.2126L1472.6 99.1903A12.7559 12.7559 0 0 0 1447.09 99.2126A12.7559 12.7559 0 0 0 1472.6 99.2349Z"
     id="path236" />
  <path
     stroke="black"
     fill="#f2f2f2"
     d="M1557.64 99.2126L1557.64 99.1903A12.7559 12.7559 0 0 0 1532.13 99.2126A12.7559 12.7559 0 0 0 1557.64 99.2349Z"
     id="path238" />
  <path
     stroke="black"
     fill="#f2f2f2"
     d="M1585.98 99.2126L1585.98 99.1903A12.7559 12.7559 0 0 0 1560.47 99.2126A12.7559 12.7559 0 0 0 1585.98 99.2349Z"
     id="path240" />
  <path
     stroke="black"
     fill="#f2f2f2"
     d="M1642.68 99.2126L1642.68 99.1903A12.7559 12.7559 0 0 0 1617.17 99.2126A12.7559 12.7559 0 0 0 1642.68 99.2349Z"
     id="path242" />
  <path
     stroke="black"
     fill="#f2f2f2"
     d="M140.315 127.559L140.315 127.537A12.7559 12.7559 0 0 0 114.803 127.559A12.7559 12.7559 0 0 0 140.315 127.581Z"
     id="path244" />
  <path
     stroke="black"
     fill="#f2f2f2"
     d="M197.008 127.559L197.008 127.537A12.7559 12.7559 0 0 0 171.496 127.559A12.7559 12.7559 0 0 0 197.008 127.581Z"
     id="path246" />
  <path
     stroke="black"
     fill="#f2f2f2"
     d="M367.087 127.559L367.087 127.537A12.7559 12.7559 0 0 0 341.575 127.559A12.7559 12.7559 0 0 0 367.087 127.581Z"
     id="path248" />
  <path
     stroke="black"
     fill="#f2f2f2"
     d="M480.472 127.559L480.472 127.537A12.7559 12.7559 0 0 0 454.961 127.559A12.7559 12.7559 0 0 0 480.472 127.581Z"
     id="path250" />
  <path
     stroke="black"
     fill="#f2f2f2"
     d="M508.819 127.559L508.819 127.537A12.7559 12.7559 0 0 0 483.307 127.559A12.7559 12.7559 0 0 0 508.819 127.581Z"
     id="path252" />
  <path
     stroke="black"
     fill="#f2f2f2"
     d="M678.898 127.559L678.898 127.537A12.7559 12.7559 0 0 0 653.386 127.559A12.7559 12.7559 0 0 0 678.898 127.581Z"
     id="path254" />
  <path
     stroke="black"
     fill="#f2f2f2"
     d="M848.976 127.559L848.976 127.537A12.7559 12.7559 0 0 0 823.465 127.559A12.7559 12.7559 0 0 0 848.976 127.581Z"
     id="path256" />
  <path
     stroke="black"
     fill="#f2f2f2"
     d="M990.709 127.559L990.709 127.537A12.7559 12.7559 0 0 0 965.197 127.559A12.7559 12.7559 0 0 0 990.709 127.581Z"
     id="path258" />
  <path
     stroke="black"
     fill="#f2f2f2"
     d="M1019.06 127.559L1019.06 127.537A12.7559 12.7559 0 0 0 993.543 127.559A12.7559 12.7559 0 0 0 1019.06 127.581Z"
     id="path260" />
  <path
     stroke="black"
     fill="#f2f2f2"
     d="M1047.4 127.559L1047.4 127.537A12.7559 12.7559 0 0 0 1021.89 127.559A12.7559 12.7559 0 0 0 1047.4 127.581Z"
     id="path262" />
  <path
     stroke="black"
     fill="#f2f2f2"
     d="M1189.13 127.559L1189.13 127.537A12.7559 12.7559 0 0 0 1163.62 127.559A12.7559 12.7559 0 0 0 1189.13 127.581Z"
     id="path264" />
  <path
     stroke="black"
     fill="#f2f2f2"
     d="M1359.21 127.559L1359.21 127.537A12.7559 12.7559 0 0 0 1333.7 127.559A12.7559 12.7559 0 0 0 1359.21 127.581Z"
     id="path266" />
  <path
     stroke="black"
     fill="#f2f2f2"
     d="M1444.25 127.559L1444.25 127.537A12.7559 12.7559 0 0 0 1418.74 127.559A12.7559 12.7559 0 0 0 1444.25 127.581Z"
     id="path268" />
  <path
     stroke="black"
     fill="#f2f2f2"
     d="M1642.68 127.559L1642.68 127.537A12.7559 12.7559 0 0 0 1617.17 127.559A12.7559 12.7559 0 0 0 1642.68 127.581Z"
     id="path270" />
  <path
     stroke="black"
     fill="#f2f2f2"
     d="M1671.02 127.559L1671.02 127.537A12.7559 12.7559 0 0 0 1645.51 127.559A12.7559 12.7559 0 0 0 1671.02 127.581Z"
     id="path272" />
  <path
     stroke="black"
     fill="#f2f2f2"
     d="M140.315 155.906L140.315 155.883A12.7559 12.7559 0 0 0 114.803 155.906A12.7559 12.7559 0 0 0 140.315 155.928Z"
     id="path274" />
  <path
     stroke="black"
     fill="#f2f2f2"
     d="M168.661 155.906L168.661 155.883A12.7559 12.7559 0 0 0 143.15 155.906A12.7559 12.7559 0 0 0 168.661 155.928Z"
     id="path276" />
  <path
     stroke="black"
     fill="#f2f2f2"
     d="M338.74 155.906L338.74 155.883A12.7559 12.7559 0 0 0 313.228 155.906A12.7559 12.7559 0 0 0 338.74 155.928Z"
     id="path278" />
  <path
     stroke="black"
     fill="#f2f2f2"
     d="M367.087 155.906L367.087 155.883A12.7559 12.7559 0 0 0 341.575 155.906A12.7559 12.7559 0 0 0 367.087 155.928Z"
     id="path280" />
  <path
     stroke="black"
     fill="#f2f2f2"
     d="M395.433 155.906L395.433 155.883A12.7559 12.7559 0 0 0 369.921 155.906A12.7559 12.7559 0 0 0 395.433 155.928Z"
     id="path282" />
  <path
     stroke="black"
     fill="#f2f2f2"
     d="M537.165 155.906L537.165 155.883A12.7559 12.7559 0 0 0 511.654 155.906A12.7559 12.7559 0 0 0 537.165 155.928Z"
     id="path284" />
  <path
     stroke="black"
     fill="#f2f2f2"
     d="M707.244 155.906L707.244 155.883A12.7559 12.7559 0 0 0 681.732 155.906A12.7559 12.7559 0 0 0 707.244 155.928Z"
     id="path286" />
  <path
     stroke="black"
     fill="#f2f2f2"
     d="M962.362 155.906L962.362 155.883A12.7559 12.7559 0 0 0 936.85 155.906A12.7559 12.7559 0 0 0 962.362 155.928Z"
     id="path288" />
  <path
     stroke="black"
     fill="#f2f2f2"
     d="M1047.4 155.906L1047.4 155.883A12.7559 12.7559 0 0 0 1021.89 155.906A12.7559 12.7559 0 0 0 1047.4 155.928Z"
     id="path290" />
  <path
     stroke="black"
     fill="#f2f2f2"
     d="M1189.13 155.906L1189.13 155.883A12.7559 12.7559 0 0 0 1163.62 155.906A12.7559 12.7559 0 0 0 1189.13 155.928Z"
     id="path292" />
  <path
     stroke="black"
     fill="#f2f2f2"
     d="M1217.48 155.906L1217.48 155.883A12.7559 12.7559 0 0 0 1191.97 155.906A12.7559 12.7559 0 0 0 1217.48 155.928Z"
     id="path294" />
  <path
     stroke="black"
     fill="#f2f2f2"
     d="M1245.83 155.906L1245.83 155.883A12.7559 12.7559 0 0 0 1220.31 155.906A12.7559 12.7559 0 0 0 1245.83 155.928Z"
     id="path296" />
  <path
     stroke="black"
     fill="#f2f2f2"
     d="M1529.29 155.906L1529.29 155.883A12.7559 12.7559 0 0 0 1503.78 155.906A12.7559 12.7559 0 0 0 1529.29 155.928Z"
     id="path298" />
  <path
     stroke="black"
     fill="#f2f2f2"
     d="M1585.98 155.906L1585.98 155.883A12.7559 12.7559 0 0 0 1560.47 155.906A12.7559 12.7559 0 0 0 1585.98 155.928Z"
     id="path300" />
  <path
     stroke="black"
     fill="#f2f2f2"
     d="M1671.02 155.906L1671.02 155.883A12.7559 12.7559 0 0 0 1645.51 155.906A12.7559 12.7559 0 0 0 1671.02 155.928Z"
     id="path302" />
  <path
     stroke="black"
     fill="#f2f2f2"
     d="M253.701 184.252L253.701 184.23A12.7559 12.7559 0 0 0 228.189 184.252A12.7559 12.7559 0 0 0 253.701 184.274Z"
     id="path304" />
  <path
     stroke="black"
     fill="#f2f2f2"
     d="M452.126 184.252L452.126 184.23A12.7559 12.7559 0 0 0 426.614 184.252A12.7559 12.7559 0 0 0 452.126 184.274Z"
     id="path306" />
  <path
     stroke="black"
     fill="#f2f2f2"
     d="M763.937 184.252L763.937 184.23A12.7559 12.7559 0 0 0 738.425 184.252A12.7559 12.7559 0 0 0 763.937 184.274Z"
     id="path308" />
  <path
     stroke="black"
     fill="#f2f2f2"
     d="M990.709 184.252L990.709 184.23A12.7559 12.7559 0 0 0 965.197 184.252A12.7559 12.7559 0 0 0 990.709 184.274Z"
     id="path310" />
  <path
     stroke="black"
     fill="#f2f2f2"
     d="M1189.13 184.252L1189.13 184.23A12.7559 12.7559 0 0 0 1163.62 184.252A12.7559 12.7559 0 0 0 1189.13 184.274Z"
     id="path312" />
  <path
     stroke="black"
     fill="#f2f2f2"
     d="M1302.52 184.252L1302.52 184.23A12.7559 12.7559 0 0 0 1277.01 184.252A12.7559 12.7559 0 0 0 1302.52 184.274Z"
     id="path314" />
  <path
     stroke="black"
     fill="#f2f2f2"
     d="M1330.87 184.252L1330.87 184.23A12.7559 12.7559 0 0 0 1305.35 184.252A12.7559 12.7559 0 0 0 1330.87 184.274Z"
     id="path316" />
  <path
     stroke="black"
     fill="#f2f2f2"
     d="M1529.29 184.252L1529.29 184.23A12.7559 12.7559 0 0 0 1503.78 184.252A12.7559 12.7559 0 0 0 1529.29 184.274Z"
     id="path318" />
  <path
     stroke="black"
     fill="#f2f2f2"
     d="M1557.64 184.252L1557.64 184.23A12.7559 12.7559 0 0 0 1532.13 184.252A12.7559 12.7559 0 0 0 1557.64 184.274Z"
     id="path320" />
  <path
     stroke="black"
     fill="#f2f2f2"
     d="M1585.98 184.252L1585.98 184.23A12.7559 12.7559 0 0 0 1560.47 184.252A12.7559 12.7559 0 0 0 1585.98 184.274Z"
     id="path322" />
  <path
     stroke="black"
     fill="#f2f2f2"
     d="M1614.33 184.252L1614.33 184.23A12.7559 12.7559 0 0 0 1588.82 184.252A12.7559 12.7559 0 0 0 1614.33 184.274Z"
     id="path324" />
  <path
     stroke="black"
     fill="#f2f2f2"
     d="M1699.37 184.252L1699.37 184.23A12.7559 12.7559 0 0 0 1673.86 184.252A12.7559 12.7559 0 0 0 1699.37 184.274Z"
     id="path326" />
  <path
     stroke="black"
     fill="#f2f2f2"
     d="M83.622 212.598L83.622 212.576A12.7559 12.7559 0 0 0 58.1102 212.598A12.7559 12.7559 0 0 0 83.622 212.621Z"
     id="path328" />
  <path
     stroke="black"
     fill="#f2f2f2"
     d="M168.661 212.598L168.661 212.576A12.7559 12.7559 0 0 0 143.15 212.598A12.7559 12.7559 0 0 0 168.661 212.621Z"
     id="path330" />
  <path
     stroke="black"
     fill="#f2f2f2"
     d="M225.354 212.598L225.354 212.576A12.7559 12.7559 0 0 0 199.843 212.598A12.7559 12.7559 0 0 0 225.354 212.621Z"
     id="path332" />
  <path
     stroke="black"
     fill="#f2f2f2"
     d="M310.394 212.598L310.394 212.576A12.7559 12.7559 0 0 0 284.882 212.598A12.7559 12.7559 0 0 0 310.394 212.621Z"
     id="path334" />
  <path
     stroke="black"
     fill="#f2f2f2"
     d="M367.087 212.598L367.087 212.576A12.7559 12.7559 0 0 0 341.575 212.598A12.7559 12.7559 0 0 0 367.087 212.621Z"
     id="path336" />
  <path
     stroke="black"
     fill="#f2f2f2"
     d="M452.126 212.598L452.126 212.576A12.7559 12.7559 0 0 0 426.614 212.598A12.7559 12.7559 0 0 0 452.126 212.621Z"
     id="path338" />
  <path
     stroke="black"
     fill="#f2f2f2"
     d="M480.472 212.598L480.472 212.576A12.7559 12.7559 0 0 0 454.961 212.598A12.7559 12.7559 0 0 0 480.472 212.621Z"
     id="path340" />
  <path
     stroke="black"
     fill="#f2f2f2"
     d="M990.709 212.598L990.709 212.576A12.7559 12.7559 0 0 0 965.197 212.598A12.7559 12.7559 0 0 0 990.709 212.621Z"
     id="path342" />
  <path
     stroke="black"
     fill="#f2f2f2"
     d="M1160.79 212.598L1160.79 212.576A12.7559 12.7559 0 0 0 1135.28 212.598A12.7559 12.7559 0 0 0 1160.79 212.621Z"
     id="path344" />
  <path
     stroke="black"
     fill="#f2f2f2"
     d="M1302.52 212.598L1302.52 212.576A12.7559 12.7559 0 0 0 1277.01 212.598A12.7559 12.7559 0 0 0 1302.52 212.621Z"
     id="path346" />
  <path
     stroke="black"
     fill="#f2f2f2"
     d="M1330.87 212.598L1330.87 212.576A12.7559 12.7559 0 0 0 1305.35 212.598A12.7559 12.7559 0 0 0 1330.87 212.621Z"
     id="path348" />
  <path
     stroke="black"
     fill="#f2f2f2"
     d="M1415.91 212.598L1415.91 212.576A12.7559 12.7559 0 0 0 1390.39 212.598A12.7559 12.7559 0 0 0 1415.91 212.621Z"
     id="path350" />
  <path
     stroke="black"
     fill="#f2f2f2"
     d="M1529.29 212.598L1529.29 212.576A12.7559 12.7559 0 0 0 1503.78 212.598A12.7559 12.7559 0 0 0 1529.29 212.621Z"
     id="path352" />
  <path
     stroke="black"
     fill="#f2f2f2"
     d="M55.2756 240.945L55.2756 240.923A12.7559 12.7559 0 0 0 29.7638 240.945A12.7559 12.7559 0 0 0 55.2756 240.967Z"
     id="path354" />
  <path
     stroke="black"
     fill="#f2f2f2"
     d="M310.394 240.945L310.394 240.923A12.7559 12.7559 0 0 0 284.882 240.945A12.7559 12.7559 0 0 0 310.394 240.967Z"
     id="path356" />
  <path
     stroke="black"
     fill="#f2f2f2"
     d="M338.74 240.945L338.74 240.923A12.7559 12.7559 0 0 0 313.228 240.945A12.7559 12.7559 0 0 0 338.74 240.967Z"
     id="path358" />
  <path
     stroke="black"
     fill="#f2f2f2"
     d="M395.433 240.945L395.433 240.923A12.7559 12.7559 0 0 0 369.921 240.945A12.7559 12.7559 0 0 0 395.433 240.967Z"
     id="path360" />
  <path
     stroke="black"
     fill="#f2f2f2"
     d="M508.819 240.945L508.819 240.923A12.7559 12.7559 0 0 0 483.307 240.945A12.7559 12.7559 0 0 0 508.819 240.967Z"
     id="path362" />
  <path
     stroke="black"
     fill="#f2f2f2"
     d="M565.512 240.945L565.512 240.923A12.7559 12.7559 0 0 0 540 240.945A12.7559 12.7559 0 0 0 565.512 240.967Z"
     id="path364" />
  <path
     stroke="black"
     fill="#f2f2f2"
     d="M622.205 240.945L622.205 240.923A12.7559 12.7559 0 0 0 596.693 240.945A12.7559 12.7559 0 0 0 622.205 240.967Z"
     id="path366" />
  <path
     stroke="black"
     fill="#f2f2f2"
     d="M707.244 240.945L707.244 240.923A12.7559 12.7559 0 0 0 681.732 240.945A12.7559 12.7559 0 0 0 707.244 240.967Z"
     id="path368" />
  <path
     stroke="black"
     fill="#f2f2f2"
     d="M763.937 240.945L763.937 240.923A12.7559 12.7559 0 0 0 738.425 240.945A12.7559 12.7559 0 0 0 763.937 240.967Z"
     id="path370" />
  <path
     stroke="black"
     fill="#f2f2f2"
     d="M820.63 240.945L820.63 240.923A12.7559 12.7559 0 0 0 795.118 240.945A12.7559 12.7559 0 0 0 820.63 240.967Z"
     id="path372" />
  <path
     stroke="black"
     fill="#f2f2f2"
     d="M877.323 240.945L877.323 240.923A12.7559 12.7559 0 0 0 851.811 240.945A12.7559 12.7559 0 0 0 877.323 240.967Z"
     id="path374" />
  <path
     stroke="black"
     fill="#f2f2f2"
     d="M1075.75 240.945L1075.75 240.923A12.7559 12.7559 0 0 0 1050.24 240.945A12.7559 12.7559 0 0 0 1075.75 240.967Z"
     id="path376" />
  <path
     stroke="black"
     fill="#f2f2f2"
     d="M1104.09 240.945L1104.09 240.923A12.7559 12.7559 0 0 0 1078.58 240.945A12.7559 12.7559 0 0 0 1104.09 240.967Z"
     id="path378" />
  <path
     stroke="black"
     fill="#f2f2f2"
     d="M1359.21 240.945L1359.21 240.923A12.7559 12.7559 0 0 0 1333.7 240.945A12.7559 12.7559 0 0 0 1359.21 240.967Z"
     id="path380" />
  <path
     stroke="black"
     fill="#f2f2f2"
     d="M1387.56 240.945L1387.56 240.923A12.7559 12.7559 0 0 0 1362.05 240.945A12.7559 12.7559 0 0 0 1387.56 240.967Z"
     id="path382" />
  <path
     stroke="black"
     fill="#f2f2f2"
     d="M1415.91 240.945L1415.91 240.923A12.7559 12.7559 0 0 0 1390.39 240.945A12.7559 12.7559 0 0 0 1415.91 240.967Z"
     id="path384" />
  <path
     stroke="black"
     fill="#f2f2f2"
     d="M1444.25 240.945L1444.25 240.923A12.7559 12.7559 0 0 0 1418.74 240.945A12.7559 12.7559 0 0 0 1444.25 240.967Z"
     id="path386" />
  <path
     stroke="black"
     fill="#f2f2f2"
     d="M1529.29 240.945L1529.29 240.923A12.7559 12.7559 0 0 0 1503.78 240.945A12.7559 12.7559 0 0 0 1529.29 240.967Z"
     id="path388" />
  <path
     stroke="black"
     fill="#f2f2f2"
     d="M1614.33 240.945L1614.33 240.923A12.7559 12.7559 0 0 0 1588.82 240.945A12.7559 12.7559 0 0 0 1614.33 240.967Z"
     id="path390" />
  <path
     stroke="black"
     fill="#f2f2f2"
     d="M1699.37 240.945L1699.37 240.923A12.7559 12.7559 0 0 0 1673.86 240.945A12.7559 12.7559 0 0 0 1699.37 240.967Z"
     id="path392" />
  <path
     stroke="black"
     fill="#f2f2f2"
     d="M83.622 269.291L83.622 269.269A12.7559 12.7559 0 0 0 58.1102 269.291A12.7559 12.7559 0 0 0 83.622 269.314Z"
     id="path394" />
  <path
     stroke="black"
     fill="#f2f2f2"
     d="M111.969 269.291L111.968 269.269A12.7559 12.7559 0 0 0 86.4567 269.291A12.7559 12.7559 0 0 0 111.968 269.314Z"
     id="path396" />
  <path
     stroke="black"
     fill="#f2f2f2"
     d="M282.047 269.291L282.047 269.269A12.7559 12.7559 0 0 0 256.535 269.291A12.7559 12.7559 0 0 0 282.047 269.314Z"
     id="path398" />
  <path
     stroke="black"
     fill="#f2f2f2"
     d="M367.087 269.291L367.087 269.269A12.7559 12.7559 0 0 0 341.575 269.291A12.7559 12.7559 0 0 0 367.087 269.314Z"
     id="path400" />
  <path
     stroke="black"
     fill="#f2f2f2"
     d="M480.472 269.291L480.472 269.269A12.7559 12.7559 0 0 0 454.961 269.291A12.7559 12.7559 0 0 0 480.472 269.314Z"
     id="path402" />
  <path
     stroke="black"
     fill="#f2f2f2"
     d="M763.937 269.291L763.937 269.269A12.7559 12.7559 0 0 0 738.425 269.291A12.7559 12.7559 0 0 0 763.937 269.314Z"
     id="path404" />
  <path
     stroke="black"
     fill="#f2f2f2"
     d="M1245.83 269.291L1245.83 269.269A12.7559 12.7559 0 0 0 1220.31 269.291A12.7559 12.7559 0 0 0 1245.83 269.314Z"
     id="path406" />
  <path
     stroke="black"
     fill="#f2f2f2"
     d="M1302.52 269.291L1302.52 269.269A12.7559 12.7559 0 0 0 1277.01 269.291A12.7559 12.7559 0 0 0 1302.52 269.314Z"
     id="path408" />
  <path
     stroke="black"
     fill="#f2f2f2"
     d="M1415.91 269.291L1415.91 269.269A12.7559 12.7559 0 0 0 1390.39 269.291A12.7559 12.7559 0 0 0 1415.91 269.314Z"
     id="path410" />
  <path
     stroke="black"
     fill="#f2f2f2"
     d="M1472.6 269.291L1472.6 269.269A12.7559 12.7559 0 0 0 1447.09 269.291A12.7559 12.7559 0 0 0 1472.6 269.314Z"
     id="path412" />
  <path
     stroke="black"
     fill="#f2f2f2"
     d="M1500.94 269.291L1500.94 269.269A12.7559 12.7559 0 0 0 1475.43 269.291A12.7559 12.7559 0 0 0 1500.94 269.314Z"
     id="path414" />
  <path
     stroke="black"
     fill="#f2f2f2"
     d="M1671.02 269.291L1671.02 269.269A12.7559 12.7559 0 0 0 1645.51 269.291A12.7559 12.7559 0 0 0 1671.02 269.314Z"
     id="path416" />
  <path
     style="fill:#ff0000;fill-opacity:1;fill-rule:evenodd;stroke:#ff0009;stroke-width:3.2;stroke-linecap:butt;stroke-linejoin:miter;stroke-opacity:1;stroke-miterlimit:10;stroke-dasharray:none"
     d="m 792.65079,-16.487385 0,320.000005"
     id="path4550"
     inkscape:connector-curvature="0"
     sodipodi:nodetypes="cc" />
  <path
     style="fill:#00ff00;fill-rule:evenodd;stroke:#00ff00;stroke-width:3.20000005;stroke-linecap:butt;stroke-linejoin:miter;stroke-miterlimit:10;stroke-dasharray:none;stroke-opacity:1"
     d="m -14.968254,167.6396 c 806.349204,0 806.349204,0 806.349204,0"
     id="path4552"
     inkscape:connector-curvature="0" />
  <path
     style="fill:none;fill-rule:evenodd;stroke:#00ff00;stroke-width:3.2;stroke-linecap:butt;stroke-linejoin:miter;stroke-opacity:1;stroke-miterlimit:10;stroke-dasharray:none"
     d="m 823.12696,-11.408019 0,308.571429"
     id="path4574"
     inkscape:connector-curvature="0" />
  <path
     style="fill:none;fill-rule:evenodd;stroke:#00ffff;stroke-width:3.2;stroke-linecap:butt;stroke-linejoin:miter;stroke-opacity:1;stroke-miterlimit:10;stroke-dasharray:none"
     d="m 1671.381,-12.677861 1.2698,308.571431"
     id="path4576"
     inkscape:connector-curvature="0" />
  <path
     style="fill:none;fill-rule:evenodd;stroke:#00ffff;stroke-width:3.2;stroke-linecap:butt;stroke-linejoin:miter;stroke-opacity:1;stroke-miterlimit:10;stroke-dasharray:none"
     d="m 706.30158,168.90944 1.26985,128.25397"
     id="path4578"
     inkscape:connector-curvature="0" />
  <path
     style="fill:none;fill-rule:evenodd;stroke:#00ffff;stroke-width:3.2;stroke-linecap:butt;stroke-linejoin:miter;stroke-opacity:1;stroke-miterlimit:10;stroke-dasharray:none"
     d="M -9.8888888,83.830072 791.38095,86.36976"
     id="path4580"
     inkscape:connector-curvature="0" />
</svg>
