<?xml version="1.0" encoding="UTF-8"?>
<svg xmlns="http://www.w3.org/2000/svg" xmlns:xlink="http://www.w3.org/1999/xlink" width="125.123pt" height="120.021pt" viewBox="0 0 125.123 120.021" version="1.1">
<defs>
<clipPath id="clip1">
  <path d="M 0 102 L 18 102 L 18 120.019531 L 0 120.019531 Z M 0 102 "/>
</clipPath>
<clipPath id="clip2">
  <path d="M 107 102 L 125.121094 102 L 125.121094 120.019531 L 107 120.019531 Z M 107 102 "/>
</clipPath>
<clipPath id="clip3">
  <path d="M 0 67 L 53 67 L 53 120.019531 L 0 120.019531 Z M 0 67 "/>
</clipPath>
<clipPath id="clip4">
  <path d="M 72 67 L 125.121094 67 L 125.121094 120.019531 L 72 120.019531 Z M 72 67 "/>
</clipPath>
</defs>
<g id="surface1">
<g clip-path="url(#clip1)" clip-rule="nonzero">
<path style="fill:none;stroke-width:0.3985;stroke-linecap:butt;stroke-linejoin:miter;stroke:rgb(0%,0%,0%);stroke-opacity:1;stroke-miterlimit:10;" d="M 5.670063 -28.346344 C 5.670063 -25.217438 3.131 -22.678375 -0.0018125 -22.678375 C -3.130719 -22.678375 -5.669781 -25.217438 -5.669781 -28.346344 C -5.669781 -31.479156 -3.130719 -34.014313 -0.0018125 -34.014313 C 3.131 -34.014313 5.670063 -31.479156 5.670063 -28.346344 Z M 5.670063 -28.346344 " transform="matrix(1,0,0,-1,5.869,85.806)"/>
</g>
<path style="fill:none;stroke-width:1.59404;stroke-linecap:butt;stroke-linejoin:miter;stroke:rgb(0%,0%,0%);stroke-opacity:1;stroke-miterlimit:10;" d="M 34.017719 0.0013125 C 34.017719 3.130219 31.478656 5.669281 28.345844 5.669281 C 25.216938 5.669281 22.677875 3.130219 22.677875 0.0013125 C 22.677875 -3.1315 25.216938 -5.670563 28.345844 -5.670563 C 31.478656 -5.670563 34.017719 -3.1315 34.017719 0.0013125 Z M 34.017719 0.0013125 " transform="matrix(1,0,0,-1,5.869,85.806)"/>
<path style="fill:none;stroke-width:1.59404;stroke-linecap:butt;stroke-linejoin:miter;stroke:rgb(0%,0%,0%);stroke-opacity:1;stroke-miterlimit:10;" d="M 90.709125 0.0013125 C 90.709125 3.130219 88.170063 5.669281 85.041156 5.669281 C 81.908344 5.669281 79.369281 3.130219 79.369281 0.0013125 C 79.369281 -3.1315 81.908344 -5.670563 85.041156 -5.670563 C 88.170063 -5.670563 90.709125 -3.1315 90.709125 0.0013125 Z M 90.709125 0.0013125 " transform="matrix(1,0,0,-1,5.869,85.806)"/>
<g clip-path="url(#clip2)" clip-rule="nonzero">
<path style="fill:none;stroke-width:0.3985;stroke-linecap:butt;stroke-linejoin:miter;stroke:rgb(0%,0%,0%);stroke-opacity:1;stroke-miterlimit:10;" d="M 119.056781 -28.346344 C 119.056781 -25.217438 116.517719 -22.678375 113.388813 -22.678375 C 110.256 -22.678375 107.716938 -25.217438 107.716938 -28.346344 C 107.716938 -31.479156 110.256 -34.014313 113.388813 -34.014313 C 116.517719 -34.014313 119.056781 -31.479156 119.056781 -28.346344 Z M 119.056781 -28.346344 " transform="matrix(1,0,0,-1,5.869,85.806)"/>
</g>
<path style="fill:none;stroke-width:1.59404;stroke-linecap:butt;stroke-linejoin:miter;stroke:rgb(0%,0%,0%);stroke-opacity:1;stroke-miterlimit:10;" d="M 62.361469 39.970062 C 62.361469 43.098969 59.826313 45.638031 56.6935 45.638031 C 53.560688 45.638031 51.025531 43.098969 51.025531 39.970062 C 51.025531 36.83725 53.560688 34.298187 56.6935 34.298187 C 59.826313 34.298187 62.361469 36.83725 62.361469 39.970062 Z M 62.361469 39.970062 " transform="matrix(1,0,0,-1,5.869,85.806)"/>
<path style="fill:none;stroke-width:0.3985;stroke-linecap:butt;stroke-linejoin:miter;stroke:rgb(0%,0%,0%);stroke-opacity:1;stroke-miterlimit:10;" d="M 62.361469 79.938812 C 62.361469 83.067719 59.826313 85.606781 56.6935 85.606781 C 53.560688 85.606781 51.025531 83.067719 51.025531 79.938812 C 51.025531 76.806 53.560688 74.266937 56.6935 74.266937 C 59.826313 74.266937 62.361469 76.806 62.361469 79.938812 Z M 62.361469 79.938812 " transform="matrix(1,0,0,-1,5.869,85.806)"/>
<g clip-path="url(#clip3)" clip-rule="nonzero">
<path style="fill:none;stroke-width:1.59404;stroke-linecap:butt;stroke-linejoin:miter;stroke:rgb(0%,0%,0%);stroke-opacity:1;stroke-miterlimit:10;" d="M 4.150531 -24.197906 L 23.775531 -4.572906 " transform="matrix(1,0,0,-1,5.869,85.806)"/>
</g>
<g clip-path="url(#clip4)" clip-rule="nonzero">
<path style="fill:none;stroke-width:1.59404;stroke-linecap:butt;stroke-linejoin:miter;stroke:rgb(0%,0%,0%);stroke-opacity:1;stroke-miterlimit:10;" d="M 89.611469 -4.572906 L 109.236469 -24.197906 " transform="matrix(1,0,0,-1,5.869,85.806)"/>
</g>
<path style="fill:none;stroke-width:1.59404;stroke-linecap:butt;stroke-linejoin:miter;stroke:rgb(0%,0%,0%);stroke-opacity:1;stroke-miterlimit:10;" d="M 56.6935 46.434906 L 56.6935 74.067719 " transform="matrix(1,0,0,-1,5.869,85.806)"/>
<path style="fill:none;stroke-width:0.3985;stroke-linecap:butt;stroke-linejoin:miter;stroke:rgb(0%,0%,0%);stroke-opacity:1;stroke-miterlimit:10;" d="M 34.814594 0.0013125 L 78.572406 0.0013125 M 81.283344 5.298187 L 60.451313 34.673187 M 52.935688 34.673187 L 32.103656 5.298187 " transform="matrix(1,0,0,-1,5.869,85.806)"/>
</g>
</svg>
