<?xml version="1.0" encoding="UTF-8"?>
<svg xmlns="http://www.w3.org/2000/svg" xmlns:xlink="http://www.w3.org/1999/xlink" width="69.6pt" height="69.6pt" viewBox="0 0 69.6 69.6" version="1.1">
<g id="surface1">
<rect x="0" y="0" width="69.6" height="69.6" style="fill:rgb(100%,100%,100%);fill-opacity:1;stroke:none;"/>
<path style="fill-rule:nonzero;fill:rgb(100%,57.647705%,0%);fill-opacity:1;stroke-width:1;stroke-linecap:round;stroke-linejoin:round;stroke:rgb(0%,0%,0%);stroke-opacity:1;stroke-miterlimit:10;" d="M 113.382812 113.382813 L 141.729167 113.382813 L 141.729167 141.729167 L 113.382812 141.729167 Z M 113.382812 113.382813 " transform="matrix(0.3,0,0,0.3,-33.3,-33.3)"/>
<path style="fill-rule:nonzero;fill:rgb(100%,100%,100%);fill-opacity:1;stroke-width:1;stroke-linecap:round;stroke-linejoin:round;stroke:rgb(0%,0%,0%);stroke-opacity:1;stroke-miterlimit:10;" d="M 141.729167 113.382813 L 170.075521 113.382813 L 170.075521 141.729167 L 141.729167 141.729167 Z M 141.729167 113.382813 " transform="matrix(0.3,0,0,0.3,-33.3,-33.3)"/>
<path style="fill-rule:nonzero;fill:rgb(100%,57.647705%,0%);fill-opacity:1;stroke-width:1;stroke-linecap:round;stroke-linejoin:round;stroke:rgb(0%,0%,0%);stroke-opacity:1;stroke-miterlimit:10;" d="M 170.075521 113.382813 L 198.421875 113.382813 L 198.421875 141.729167 L 170.075521 141.729167 Z M 170.075521 113.382813 " transform="matrix(0.3,0,0,0.3,-33.3,-33.3)"/>
<path style="fill-rule:nonzero;fill:rgb(100%,100%,100%);fill-opacity:1;stroke-width:1;stroke-linecap:round;stroke-linejoin:round;stroke:rgb(0%,0%,0%);stroke-opacity:1;stroke-miterlimit:10;" d="M 198.421875 113.382813 L 226.768229 113.382813 L 226.768229 141.729167 L 198.421875 141.729167 Z M 198.421875 113.382813 " transform="matrix(0.3,0,0,0.3,-33.3,-33.3)"/>
<path style="fill-rule:nonzero;fill:rgb(100%,57.647705%,0%);fill-opacity:1;stroke-width:1;stroke-linecap:round;stroke-linejoin:round;stroke:rgb(0%,0%,0%);stroke-opacity:1;stroke-miterlimit:10;" d="M 113.382812 198.421875 L 141.729167 198.421875 L 141.729167 226.768229 L 113.382812 226.768229 Z M 113.382812 198.421875 " transform="matrix(0.3,0,0,0.3,-33.3,-33.3)"/>
<path style="fill-rule:nonzero;fill:rgb(100%,100%,100%);fill-opacity:1;stroke-width:1;stroke-linecap:round;stroke-linejoin:round;stroke:rgb(0%,0%,0%);stroke-opacity:1;stroke-miterlimit:10;" d="M 141.729167 198.421875 L 170.075521 198.421875 L 170.075521 226.768229 L 141.729167 226.768229 Z M 141.729167 198.421875 " transform="matrix(0.3,0,0,0.3,-33.3,-33.3)"/>
<path style="fill-rule:nonzero;fill:rgb(100%,57.647705%,0%);fill-opacity:1;stroke-width:1;stroke-linecap:round;stroke-linejoin:round;stroke:rgb(0%,0%,0%);stroke-opacity:1;stroke-miterlimit:10;" d="M 170.075521 198.421875 L 198.421875 198.421875 L 198.421875 226.768229 L 170.075521 226.768229 Z M 170.075521 198.421875 " transform="matrix(0.3,0,0,0.3,-33.3,-33.3)"/>
<path style="fill-rule:nonzero;fill:rgb(100%,57.647705%,0%);fill-opacity:1;stroke-width:1;stroke-linecap:round;stroke-linejoin:round;stroke:rgb(0%,0%,0%);stroke-opacity:1;stroke-miterlimit:10;" d="M 198.421875 198.421875 L 226.768229 198.421875 L 226.768229 226.768229 L 198.421875 226.768229 Z M 198.421875 198.421875 " transform="matrix(0.3,0,0,0.3,-33.3,-33.3)"/>
<path style="fill-rule:nonzero;fill:rgb(100%,100%,100%);fill-opacity:1;stroke-width:1;stroke-linecap:round;stroke-linejoin:round;stroke:rgb(0%,0%,0%);stroke-opacity:1;stroke-miterlimit:10;" d="M 113.382812 141.729167 L 141.729167 141.729167 L 141.729167 170.075521 L 113.382812 170.075521 Z M 113.382812 141.729167 " transform="matrix(0.3,0,0,0.3,-33.3,-33.3)"/>
<path style="fill-rule:nonzero;fill:rgb(100%,100%,100%);fill-opacity:1;stroke-width:1;stroke-linecap:round;stroke-linejoin:round;stroke:rgb(0%,0%,0%);stroke-opacity:1;stroke-miterlimit:10;" d="M 141.729167 141.729167 L 170.075521 141.729167 L 170.075521 170.075521 L 141.729167 170.075521 Z M 141.729167 141.729167 " transform="matrix(0.3,0,0,0.3,-33.3,-33.3)"/>
<path style="fill-rule:nonzero;fill:rgb(100%,100%,100%);fill-opacity:1;stroke-width:1;stroke-linecap:round;stroke-linejoin:round;stroke:rgb(0%,0%,0%);stroke-opacity:1;stroke-miterlimit:10;" d="M 170.075521 141.729167 L 198.421875 141.729167 L 198.421875 170.075521 L 170.075521 170.075521 Z M 170.075521 141.729167 " transform="matrix(0.3,0,0,0.3,-33.3,-33.3)"/>
<path style="fill-rule:nonzero;fill:rgb(100%,100%,100%);fill-opacity:1;stroke-width:1;stroke-linecap:round;stroke-linejoin:round;stroke:rgb(0%,0%,0%);stroke-opacity:1;stroke-miterlimit:10;" d="M 198.421875 170.075521 L 226.768229 170.075521 L 226.768229 198.421875 L 198.421875 198.421875 Z M 198.421875 170.075521 " transform="matrix(0.3,0,0,0.3,-33.3,-33.3)"/>
<path style="fill-rule:nonzero;fill:rgb(100%,57.647705%,0%);fill-opacity:1;stroke-width:1;stroke-linecap:round;stroke-linejoin:round;stroke:rgb(0%,0%,0%);stroke-opacity:1;stroke-miterlimit:10;" d="M 198.421875 141.729167 L 226.768229 141.729167 L 226.768229 170.075521 L 198.421875 170.075521 Z M 198.421875 141.729167 " transform="matrix(0.3,0,0,0.3,-33.3,-33.3)"/>
<path style="fill-rule:nonzero;fill:rgb(100%,57.647705%,0%);fill-opacity:1;stroke-width:1;stroke-linecap:round;stroke-linejoin:round;stroke:rgb(0%,0%,0%);stroke-opacity:1;stroke-miterlimit:10;" d="M 170.075521 170.075521 L 198.421875 170.075521 L 198.421875 198.421875 L 170.075521 198.421875 Z M 170.075521 170.075521 " transform="matrix(0.3,0,0,0.3,-33.3,-33.3)"/>
<path style="fill-rule:nonzero;fill:rgb(100%,57.647705%,0%);fill-opacity:1;stroke-width:1;stroke-linecap:round;stroke-linejoin:round;stroke:rgb(0%,0%,0%);stroke-opacity:1;stroke-miterlimit:10;" d="M 141.729167 170.075521 L 170.075521 170.075521 L 170.075521 198.421875 L 141.729167 198.421875 Z M 141.729167 170.075521 " transform="matrix(0.3,0,0,0.3,-33.3,-33.3)"/>
<path style="fill-rule:nonzero;fill:rgb(100%,57.647705%,0%);fill-opacity:1;stroke-width:1;stroke-linecap:round;stroke-linejoin:round;stroke:rgb(0%,0%,0%);stroke-opacity:1;stroke-miterlimit:10;" d="M 113.382812 170.075521 L 141.729167 170.075521 L 141.729167 198.421875 L 113.382812 198.421875 Z M 113.382812 170.075521 " transform="matrix(0.3,0,0,0.3,-33.3,-33.3)"/>
<path style="fill-rule:nonzero;fill:rgb(100%,57.647705%,0%);fill-opacity:1;stroke-width:1;stroke-linecap:round;stroke-linejoin:round;stroke:rgb(0%,0%,0%);stroke-opacity:1;stroke-miterlimit:10;" d="M 113.382812 226.768229 L 141.729167 226.768229 L 141.729167 255.114583 L 113.382812 255.114583 Z M 113.382812 226.768229 " transform="matrix(0.3,0,0,0.3,-33.3,-33.3)"/>
<path style="fill-rule:nonzero;fill:rgb(100%,100%,100%);fill-opacity:1;stroke-width:1;stroke-linecap:round;stroke-linejoin:round;stroke:rgb(0%,0%,0%);stroke-opacity:1;stroke-miterlimit:10;" d="M 141.729167 226.768229 L 170.075521 226.768229 L 170.075521 255.114583 L 141.729167 255.114583 Z M 141.729167 226.768229 " transform="matrix(0.3,0,0,0.3,-33.3,-33.3)"/>
<path style="fill-rule:nonzero;fill:rgb(100%,57.647705%,0%);fill-opacity:1;stroke-width:1;stroke-linecap:round;stroke-linejoin:round;stroke:rgb(0%,0%,0%);stroke-opacity:1;stroke-miterlimit:10;" d="M 170.075521 226.768229 L 198.421875 226.768229 L 198.421875 255.114583 L 170.075521 255.114583 Z M 170.075521 226.768229 " transform="matrix(0.3,0,0,0.3,-33.3,-33.3)"/>
<path style="fill-rule:nonzero;fill:rgb(100%,57.647705%,0%);fill-opacity:1;stroke-width:1;stroke-linecap:round;stroke-linejoin:round;stroke:rgb(0%,0%,0%);stroke-opacity:1;stroke-miterlimit:10;" d="M 198.421875 226.768229 L 226.768229 226.768229 L 226.768229 255.114583 L 198.421875 255.114583 Z M 198.421875 226.768229 " transform="matrix(0.3,0,0,0.3,-33.3,-33.3)"/>
<path style="fill-rule:nonzero;fill:rgb(100%,57.647705%,0%);fill-opacity:1;stroke-width:1;stroke-linecap:round;stroke-linejoin:round;stroke:rgb(0%,0%,0%);stroke-opacity:1;stroke-miterlimit:10;" d="M 113.382812 311.807292 L 141.729167 311.807292 L 141.729167 340.153646 L 113.382812 340.153646 Z M 113.382812 311.807292 " transform="matrix(0.3,0,0,0.3,-33.3,-33.3)"/>
<path style="fill-rule:nonzero;fill:rgb(100%,100%,100%);fill-opacity:1;stroke-width:1;stroke-linecap:round;stroke-linejoin:round;stroke:rgb(0%,0%,0%);stroke-opacity:1;stroke-miterlimit:10;" d="M 141.729167 311.807292 L 170.075521 311.807292 L 170.075521 340.153646 L 141.729167 340.153646 Z M 141.729167 311.807292 " transform="matrix(0.3,0,0,0.3,-33.3,-33.3)"/>
<path style="fill-rule:nonzero;fill:rgb(100%,57.647705%,0%);fill-opacity:1;stroke-width:1;stroke-linecap:round;stroke-linejoin:round;stroke:rgb(0%,0%,0%);stroke-opacity:1;stroke-miterlimit:10;" d="M 170.075521 311.807292 L 198.421875 311.807292 L 198.421875 340.153646 L 170.075521 340.153646 Z M 170.075521 311.807292 " transform="matrix(0.3,0,0,0.3,-33.3,-33.3)"/>
<path style="fill-rule:nonzero;fill:rgb(100%,100%,100%);fill-opacity:1;stroke-width:1;stroke-linecap:round;stroke-linejoin:round;stroke:rgb(0%,0%,0%);stroke-opacity:1;stroke-miterlimit:10;" d="M 198.421875 311.807292 L 226.768229 311.807292 L 226.768229 340.153646 L 198.421875 340.153646 Z M 198.421875 311.807292 " transform="matrix(0.3,0,0,0.3,-33.3,-33.3)"/>
<path style="fill-rule:nonzero;fill:rgb(100%,100%,100%);fill-opacity:1;stroke-width:1;stroke-linecap:round;stroke-linejoin:round;stroke:rgb(0%,0%,0%);stroke-opacity:1;stroke-miterlimit:10;" d="M 113.382812 255.114583 L 141.729167 255.114583 L 141.729167 283.460938 L 113.382812 283.460938 Z M 113.382812 255.114583 " transform="matrix(0.3,0,0,0.3,-33.3,-33.3)"/>
<path style="fill-rule:nonzero;fill:rgb(100%,100%,100%);fill-opacity:1;stroke-width:1;stroke-linecap:round;stroke-linejoin:round;stroke:rgb(0%,0%,0%);stroke-opacity:1;stroke-miterlimit:10;" d="M 141.729167 255.114583 L 170.075521 255.114583 L 170.075521 283.460938 L 141.729167 283.460938 Z M 141.729167 255.114583 " transform="matrix(0.3,0,0,0.3,-33.3,-33.3)"/>
<path style="fill-rule:nonzero;fill:rgb(100%,100%,100%);fill-opacity:1;stroke-width:1;stroke-linecap:round;stroke-linejoin:round;stroke:rgb(0%,0%,0%);stroke-opacity:1;stroke-miterlimit:10;" d="M 170.075521 255.114583 L 198.421875 255.114583 L 198.421875 283.460938 L 170.075521 283.460938 Z M 170.075521 255.114583 " transform="matrix(0.3,0,0,0.3,-33.3,-33.3)"/>
<path style="fill-rule:nonzero;fill:rgb(100%,57.647705%,0%);fill-opacity:1;stroke-width:1;stroke-linecap:round;stroke-linejoin:round;stroke:rgb(0%,0%,0%);stroke-opacity:1;stroke-miterlimit:10;" d="M 198.421875 283.460938 L 226.768229 283.460938 L 226.768229 311.807292 L 198.421875 311.807292 Z M 198.421875 283.460938 " transform="matrix(0.3,0,0,0.3,-33.3,-33.3)"/>
<path style="fill-rule:nonzero;fill:rgb(100%,57.647705%,0%);fill-opacity:1;stroke-width:1;stroke-linecap:round;stroke-linejoin:round;stroke:rgb(0%,0%,0%);stroke-opacity:1;stroke-miterlimit:10;" d="M 198.421875 255.114583 L 226.768229 255.114583 L 226.768229 283.460938 L 198.421875 283.460938 Z M 198.421875 255.114583 " transform="matrix(0.3,0,0,0.3,-33.3,-33.3)"/>
<path style="fill-rule:nonzero;fill:rgb(100%,57.647705%,0%);fill-opacity:1;stroke-width:1;stroke-linecap:round;stroke-linejoin:round;stroke:rgb(0%,0%,0%);stroke-opacity:1;stroke-miterlimit:10;" d="M 170.075521 283.460938 L 198.421875 283.460938 L 198.421875 311.807292 L 170.075521 311.807292 Z M 170.075521 283.460938 " transform="matrix(0.3,0,0,0.3,-33.3,-33.3)"/>
<path style="fill-rule:nonzero;fill:rgb(100%,100%,100%);fill-opacity:1;stroke-width:1;stroke-linecap:round;stroke-linejoin:round;stroke:rgb(0%,0%,0%);stroke-opacity:1;stroke-miterlimit:10;" d="M 141.729167 283.460938 L 170.075521 283.460938 L 170.075521 311.807292 L 141.729167 311.807292 Z M 141.729167 283.460938 " transform="matrix(0.3,0,0,0.3,-33.3,-33.3)"/>
<path style="fill-rule:nonzero;fill:rgb(100%,57.647705%,0%);fill-opacity:1;stroke-width:1;stroke-linecap:round;stroke-linejoin:round;stroke:rgb(0%,0%,0%);stroke-opacity:1;stroke-miterlimit:10;" d="M 113.382812 283.460938 L 141.729167 283.460938 L 141.729167 311.807292 L 113.382812 311.807292 Z M 113.382812 283.460938 " transform="matrix(0.3,0,0,0.3,-33.3,-33.3)"/>
<path style="fill-rule:nonzero;fill:rgb(100%,100%,100%);fill-opacity:1;stroke-width:1;stroke-linecap:round;stroke-linejoin:round;stroke:rgb(0%,0%,0%);stroke-opacity:1;stroke-miterlimit:10;" d="M 226.768229 113.382813 L 255.114583 113.382813 L 255.114583 141.729167 L 226.768229 141.729167 Z M 226.768229 113.382813 " transform="matrix(0.3,0,0,0.3,-33.3,-33.3)"/>
<path style="fill-rule:nonzero;fill:rgb(100%,57.647705%,0%);fill-opacity:1;stroke-width:1;stroke-linecap:round;stroke-linejoin:round;stroke:rgb(0%,0%,0%);stroke-opacity:1;stroke-miterlimit:10;" d="M 255.114583 113.382813 L 283.460937 113.382813 L 283.460937 141.729167 L 255.114583 141.729167 Z M 255.114583 113.382813 " transform="matrix(0.3,0,0,0.3,-33.3,-33.3)"/>
<path style="fill-rule:nonzero;fill:rgb(100%,57.647705%,0%);fill-opacity:1;stroke-width:1;stroke-linecap:round;stroke-linejoin:round;stroke:rgb(0%,0%,0%);stroke-opacity:1;stroke-miterlimit:10;" d="M 283.460937 113.382813 L 311.807292 113.382813 L 311.807292 141.729167 L 283.460937 141.729167 Z M 283.460937 113.382813 " transform="matrix(0.3,0,0,0.3,-33.3,-33.3)"/>
<path style="fill-rule:nonzero;fill:rgb(100%,100%,100%);fill-opacity:1;stroke-width:1;stroke-linecap:round;stroke-linejoin:round;stroke:rgb(0%,0%,0%);stroke-opacity:1;stroke-miterlimit:10;" d="M 311.807292 113.382813 L 340.153646 113.382813 L 340.153646 141.729167 L 311.807292 141.729167 Z M 311.807292 113.382813 " transform="matrix(0.3,0,0,0.3,-33.3,-33.3)"/>
<path style="fill-rule:nonzero;fill:rgb(100%,57.647705%,0%);fill-opacity:1;stroke-width:1;stroke-linecap:round;stroke-linejoin:round;stroke:rgb(0%,0%,0%);stroke-opacity:1;stroke-miterlimit:10;" d="M 226.768229 198.421875 L 255.114583 198.421875 L 255.114583 226.768229 L 226.768229 226.768229 Z M 226.768229 198.421875 " transform="matrix(0.3,0,0,0.3,-33.3,-33.3)"/>
<path style="fill-rule:nonzero;fill:rgb(100%,57.647705%,0%);fill-opacity:1;stroke-width:1;stroke-linecap:round;stroke-linejoin:round;stroke:rgb(0%,0%,0%);stroke-opacity:1;stroke-miterlimit:10;" d="M 255.114583 198.421875 L 283.460937 198.421875 L 283.460937 226.768229 L 255.114583 226.768229 Z M 255.114583 198.421875 " transform="matrix(0.3,0,0,0.3,-33.3,-33.3)"/>
<path style="fill-rule:nonzero;fill:rgb(100%,57.647705%,0%);fill-opacity:1;stroke-width:1;stroke-linecap:round;stroke-linejoin:round;stroke:rgb(0%,0%,0%);stroke-opacity:1;stroke-miterlimit:10;" d="M 283.460937 198.421875 L 311.807292 198.421875 L 311.807292 226.768229 L 283.460937 226.768229 Z M 283.460937 198.421875 " transform="matrix(0.3,0,0,0.3,-33.3,-33.3)"/>
<path style="fill-rule:nonzero;fill:rgb(100%,100%,100%);fill-opacity:1;stroke-width:1;stroke-linecap:round;stroke-linejoin:round;stroke:rgb(0%,0%,0%);stroke-opacity:1;stroke-miterlimit:10;" d="M 311.807292 198.421875 L 340.153646 198.421875 L 340.153646 226.768229 L 311.807292 226.768229 Z M 311.807292 198.421875 " transform="matrix(0.3,0,0,0.3,-33.3,-33.3)"/>
<path style="fill-rule:nonzero;fill:rgb(100%,57.647705%,0%);fill-opacity:1;stroke-width:1;stroke-linecap:round;stroke-linejoin:round;stroke:rgb(0%,0%,0%);stroke-opacity:1;stroke-miterlimit:10;" d="M 226.768229 141.729167 L 255.114583 141.729167 L 255.114583 170.075521 L 226.768229 170.075521 Z M 226.768229 141.729167 " transform="matrix(0.3,0,0,0.3,-33.3,-33.3)"/>
<path style="fill-rule:nonzero;fill:rgb(100%,100%,100%);fill-opacity:1;stroke-width:1;stroke-linecap:round;stroke-linejoin:round;stroke:rgb(0%,0%,0%);stroke-opacity:1;stroke-miterlimit:10;" d="M 255.114583 141.729167 L 283.460937 141.729167 L 283.460937 170.075521 L 255.114583 170.075521 Z M 255.114583 141.729167 " transform="matrix(0.3,0,0,0.3,-33.3,-33.3)"/>
<path style="fill-rule:nonzero;fill:rgb(100%,100%,100%);fill-opacity:1;stroke-width:1;stroke-linecap:round;stroke-linejoin:round;stroke:rgb(0%,0%,0%);stroke-opacity:1;stroke-miterlimit:10;" d="M 283.460937 141.729167 L 311.807292 141.729167 L 311.807292 170.075521 L 283.460937 170.075521 Z M 283.460937 141.729167 " transform="matrix(0.3,0,0,0.3,-33.3,-33.3)"/>
<path style="fill-rule:nonzero;fill:rgb(100%,57.647705%,0%);fill-opacity:1;stroke-width:1;stroke-linecap:round;stroke-linejoin:round;stroke:rgb(0%,0%,0%);stroke-opacity:1;stroke-miterlimit:10;" d="M 311.807292 170.075521 L 340.153646 170.075521 L 340.153646 198.421875 L 311.807292 198.421875 Z M 311.807292 170.075521 " transform="matrix(0.3,0,0,0.3,-33.3,-33.3)"/>
<path style="fill-rule:nonzero;fill:rgb(100%,57.647705%,0%);fill-opacity:1;stroke-width:1;stroke-linecap:round;stroke-linejoin:round;stroke:rgb(0%,0%,0%);stroke-opacity:1;stroke-miterlimit:10;" d="M 311.807292 141.729167 L 340.153646 141.729167 L 340.153646 170.075521 L 311.807292 170.075521 Z M 311.807292 141.729167 " transform="matrix(0.3,0,0,0.3,-33.3,-33.3)"/>
<path style="fill-rule:nonzero;fill:rgb(100%,57.647705%,0%);fill-opacity:1;stroke-width:1;stroke-linecap:round;stroke-linejoin:round;stroke:rgb(0%,0%,0%);stroke-opacity:1;stroke-miterlimit:10;" d="M 283.460937 170.075521 L 311.807292 170.075521 L 311.807292 198.421875 L 283.460937 198.421875 Z M 283.460937 170.075521 " transform="matrix(0.3,0,0,0.3,-33.3,-33.3)"/>
<path style="fill-rule:nonzero;fill:rgb(100%,57.647705%,0%);fill-opacity:1;stroke-width:1;stroke-linecap:round;stroke-linejoin:round;stroke:rgb(0%,0%,0%);stroke-opacity:1;stroke-miterlimit:10;" d="M 255.114583 170.075521 L 283.460937 170.075521 L 283.460937 198.421875 L 255.114583 198.421875 Z M 255.114583 170.075521 " transform="matrix(0.3,0,0,0.3,-33.3,-33.3)"/>
<path style="fill-rule:nonzero;fill:rgb(100%,100%,100%);fill-opacity:1;stroke-width:1;stroke-linecap:round;stroke-linejoin:round;stroke:rgb(0%,0%,0%);stroke-opacity:1;stroke-miterlimit:10;" d="M 226.768229 170.075521 L 255.114583 170.075521 L 255.114583 198.421875 L 226.768229 198.421875 Z M 226.768229 170.075521 " transform="matrix(0.3,0,0,0.3,-33.3,-33.3)"/>
<path style="fill-rule:nonzero;fill:rgb(100%,57.647705%,0%);fill-opacity:1;stroke-width:1;stroke-linecap:round;stroke-linejoin:round;stroke:rgb(0%,0%,0%);stroke-opacity:1;stroke-miterlimit:10;" d="M 226.768229 226.768229 L 255.114583 226.768229 L 255.114583 255.114583 L 226.768229 255.114583 Z M 226.768229 226.768229 " transform="matrix(0.3,0,0,0.3,-33.3,-33.3)"/>
<path style="fill-rule:nonzero;fill:rgb(100%,57.647705%,0%);fill-opacity:1;stroke-width:1;stroke-linecap:round;stroke-linejoin:round;stroke:rgb(0%,0%,0%);stroke-opacity:1;stroke-miterlimit:10;" d="M 255.114583 226.768229 L 283.460937 226.768229 L 283.460937 255.114583 L 255.114583 255.114583 Z M 255.114583 226.768229 " transform="matrix(0.3,0,0,0.3,-33.3,-33.3)"/>
<path style="fill-rule:nonzero;fill:rgb(100%,57.647705%,0%);fill-opacity:1;stroke-width:1;stroke-linecap:round;stroke-linejoin:round;stroke:rgb(0%,0%,0%);stroke-opacity:1;stroke-miterlimit:10;" d="M 283.460937 226.768229 L 311.807292 226.768229 L 311.807292 255.114583 L 283.460937 255.114583 Z M 283.460937 226.768229 " transform="matrix(0.3,0,0,0.3,-33.3,-33.3)"/>
<path style="fill-rule:nonzero;fill:rgb(100%,100%,100%);fill-opacity:1;stroke-width:1;stroke-linecap:round;stroke-linejoin:round;stroke:rgb(0%,0%,0%);stroke-opacity:1;stroke-miterlimit:10;" d="M 311.807292 226.768229 L 340.153646 226.768229 L 340.153646 255.114583 L 311.807292 255.114583 Z M 311.807292 226.768229 " transform="matrix(0.3,0,0,0.3,-33.3,-33.3)"/>
<path style="fill-rule:nonzero;fill:rgb(100%,57.647705%,0%);fill-opacity:1;stroke-width:1;stroke-linecap:round;stroke-linejoin:round;stroke:rgb(0%,0%,0%);stroke-opacity:1;stroke-miterlimit:10;" d="M 226.768229 311.807292 L 255.114583 311.807292 L 255.114583 340.153646 L 226.768229 340.153646 Z M 226.768229 311.807292 " transform="matrix(0.3,0,0,0.3,-33.3,-33.3)"/>
<path style="fill-rule:nonzero;fill:rgb(100%,57.647705%,0%);fill-opacity:1;stroke-width:1;stroke-linecap:round;stroke-linejoin:round;stroke:rgb(0%,0%,0%);stroke-opacity:1;stroke-miterlimit:10;" d="M 255.114583 311.807292 L 283.460937 311.807292 L 283.460937 340.153646 L 255.114583 340.153646 Z M 255.114583 311.807292 " transform="matrix(0.3,0,0,0.3,-33.3,-33.3)"/>
<path style="fill-rule:nonzero;fill:rgb(100%,57.647705%,0%);fill-opacity:1;stroke-width:1;stroke-linecap:round;stroke-linejoin:round;stroke:rgb(0%,0%,0%);stroke-opacity:1;stroke-miterlimit:10;" d="M 283.460937 311.807292 L 311.807292 311.807292 L 311.807292 340.153646 L 283.460937 340.153646 Z M 283.460937 311.807292 " transform="matrix(0.3,0,0,0.3,-33.3,-33.3)"/>
<path style="fill-rule:nonzero;fill:rgb(100%,57.647705%,0%);fill-opacity:1;stroke-width:1;stroke-linecap:round;stroke-linejoin:round;stroke:rgb(0%,0%,0%);stroke-opacity:1;stroke-miterlimit:10;" d="M 311.807292 311.807292 L 340.153646 311.807292 L 340.153646 340.153646 L 311.807292 340.153646 Z M 311.807292 311.807292 " transform="matrix(0.3,0,0,0.3,-33.3,-33.3)"/>
<path style="fill-rule:nonzero;fill:rgb(100%,100%,100%);fill-opacity:1;stroke-width:1;stroke-linecap:round;stroke-linejoin:round;stroke:rgb(0%,0%,0%);stroke-opacity:1;stroke-miterlimit:10;" d="M 226.768229 255.114583 L 255.114583 255.114583 L 255.114583 283.460938 L 226.768229 283.460938 Z M 226.768229 255.114583 " transform="matrix(0.3,0,0,0.3,-33.3,-33.3)"/>
<path style="fill-rule:nonzero;fill:rgb(100%,100%,100%);fill-opacity:1;stroke-width:1;stroke-linecap:round;stroke-linejoin:round;stroke:rgb(0%,0%,0%);stroke-opacity:1;stroke-miterlimit:10;" d="M 255.114583 255.114583 L 283.460937 255.114583 L 283.460937 283.460938 L 255.114583 283.460938 Z M 255.114583 255.114583 " transform="matrix(0.3,0,0,0.3,-33.3,-33.3)"/>
<path style="fill-rule:nonzero;fill:rgb(100%,100%,100%);fill-opacity:1;stroke-width:1;stroke-linecap:round;stroke-linejoin:round;stroke:rgb(0%,0%,0%);stroke-opacity:1;stroke-miterlimit:10;" d="M 283.460937 255.114583 L 311.807292 255.114583 L 311.807292 283.460938 L 283.460937 283.460938 Z M 283.460937 255.114583 " transform="matrix(0.3,0,0,0.3,-33.3,-33.3)"/>
<path style="fill-rule:nonzero;fill:rgb(100%,100%,100%);fill-opacity:1;stroke-width:1;stroke-linecap:round;stroke-linejoin:round;stroke:rgb(0%,0%,0%);stroke-opacity:1;stroke-miterlimit:10;" d="M 311.807292 283.460938 L 340.153646 283.460938 L 340.153646 311.807292 L 311.807292 311.807292 Z M 311.807292 283.460938 " transform="matrix(0.3,0,0,0.3,-33.3,-33.3)"/>
<path style="fill-rule:nonzero;fill:rgb(100%,57.647705%,0%);fill-opacity:1;stroke-width:1;stroke-linecap:round;stroke-linejoin:round;stroke:rgb(0%,0%,0%);stroke-opacity:1;stroke-miterlimit:10;" d="M 311.807292 255.114583 L 340.153646 255.114583 L 340.153646 283.460938 L 311.807292 283.460938 Z M 311.807292 255.114583 " transform="matrix(0.3,0,0,0.3,-33.3,-33.3)"/>
<path style="fill-rule:nonzero;fill:rgb(100%,57.647705%,0%);fill-opacity:1;stroke-width:1;stroke-linecap:round;stroke-linejoin:round;stroke:rgb(0%,0%,0%);stroke-opacity:1;stroke-miterlimit:10;" d="M 283.460937 283.460938 L 311.807292 283.460938 L 311.807292 311.807292 L 283.460937 311.807292 Z M 283.460937 283.460938 " transform="matrix(0.3,0,0,0.3,-33.3,-33.3)"/>
<path style="fill-rule:nonzero;fill:rgb(100%,57.647705%,0%);fill-opacity:1;stroke-width:1;stroke-linecap:round;stroke-linejoin:round;stroke:rgb(0%,0%,0%);stroke-opacity:1;stroke-miterlimit:10;" d="M 255.114583 283.460938 L 283.460937 283.460938 L 283.460937 311.807292 L 255.114583 311.807292 Z M 255.114583 283.460938 " transform="matrix(0.3,0,0,0.3,-33.3,-33.3)"/>
<path style="fill-rule:nonzero;fill:rgb(100%,57.647705%,0%);fill-opacity:1;stroke-width:1;stroke-linecap:round;stroke-linejoin:round;stroke:rgb(0%,0%,0%);stroke-opacity:1;stroke-miterlimit:10;" d="M 226.768229 283.460938 L 255.114583 283.460938 L 255.114583 311.807292 L 226.768229 311.807292 Z M 226.768229 283.460938 " transform="matrix(0.3,0,0,0.3,-33.3,-33.3)"/>
</g>
</svg>
