<?xml version="1.0" encoding="UTF-8"?>
<svg xmlns="http://www.w3.org/2000/svg" xmlns:xlink="http://www.w3.org/1999/xlink" width="141.6pt" height="55.2pt" viewBox="0 0 141.6 55.2" version="1.1">
<defs>
<clipPath id="clip1">
  <path d="M 0 0 L 141.601562 0 L 141.601562 55.199219 L 0 55.199219 Z M 0 0 "/>
</clipPath>
<clipPath id="clip2">
  <path d="M 135 5 L 141.601562 5 L 141.601562 12 L 135 12 Z M 135 5 "/>
</clipPath>
</defs>
<g id="surface1">
<g clip-path="url(#clip1)" clip-rule="nonzero">
<rect x="0" y="0" width="141.6" height="55.2" style="fill:rgb(100%,100%,100%);fill-opacity:1;stroke:none;"/>
</g>
<path style="fill:none;stroke-width:2;stroke-linecap:round;stroke-linejoin:round;stroke:rgb(100%,14.901733%,0%);stroke-opacity:1;stroke-miterlimit:10;" d="M 117 243.005208 C 117 243.005208 155.697917 234.151042 170.997396 252.002604 C 186.296875 269.854167 163.354167 306 170.997396 306 C 178.653646 306 175.046875 272.393229 198.002604 252.002604 C 220.945312 231.598958 236.700521 231.455729 252 233.994792 C 267.299479 236.546875 259.643229 240.596354 252 261 C 244.356771 281.403646 219.903646 303.447917 224.994792 306 C 230.098958 308.552083 254.695312 290.401042 269.994792 269.997396 C 285.294271 249.606771 263.705729 244.203125 279.005208 233.994792 C 294.304688 223.799479 311.244792 218.695312 324.005208 233.994792 C 336.752604 249.294271 308.705729 262.497396 324.005208 288.005208 C 339.304688 313.5 370.346354 326.546875 378.002604 323.994792 C 385.645833 321.455729 358.653646 304.502604 350.997396 278.994792 C 343.354167 253.5 335.697917 246.755208 350.997396 233.994792 C 366.296875 221.247396 369.304688 239.098958 404.994792 233.994792 C 440.697917 228.903646 433.653646 216 477 216 C 520.346354 216 558.002604 233.994792 558.002604 233.994792 " transform="matrix(0.3,0,0,0.3,-29.1,-58.8)"/>
<path style="fill:none;stroke-width:2;stroke-linecap:round;stroke-linejoin:round;stroke:rgb(0%,58.824158%,100%);stroke-opacity:1;stroke-miterlimit:10;" d="M 116.947917 234.997396 L 180.059896 242.002604 " transform="matrix(0.3,0,0,0.3,-29.1,-58.8)"/>
<path style="fill:none;stroke-width:2;stroke-linecap:round;stroke-linejoin:round;stroke:rgb(0%,58.824158%,100%);stroke-opacity:1;stroke-miterlimit:10;" d="M 189.005208 243.005208 L 269.994792 224.997396 L 404.994792 224.997396 L 477 207.002604 L 558.002604 224.997396 " transform="matrix(0.3,0,0,0.3,-29.1,-58.8)"/>
<path style="fill-rule:nonzero;fill:rgb(100%,14.901733%,0%);fill-opacity:1;stroke-width:1;stroke-linecap:round;stroke-linejoin:round;stroke:rgb(0%,0%,0%);stroke-opacity:1;stroke-miterlimit:10;" d="M 114.369792 227.640625 C 117.872396 231.15625 117.872396 236.846354 114.369792 240.361979 C 110.854167 243.877604 105.151042 243.877604 101.635417 240.361979 C 98.119792 236.846354 98.119792 231.15625 101.635417 227.640625 C 105.151042 224.125 110.854167 224.125 114.369792 227.640625 " transform="matrix(0.3,0,0,0.3,-29.1,-58.8)"/>
<path style="fill-rule:nonzero;fill:rgb(100%,14.901733%,0%);fill-opacity:1;stroke-width:1;stroke-linecap:round;stroke-linejoin:round;stroke:rgb(0%,0%,0%);stroke-opacity:1;stroke-miterlimit:10;" d="M 195.359375 236.638021 C 198.875 240.153646 198.875 245.84375 195.359375 249.359375 C 191.84375 252.875 186.153646 252.875 182.638021 249.359375 C 179.122396 245.84375 179.122396 240.153646 182.638021 236.638021 C 186.153646 233.122396 191.84375 233.122396 195.359375 236.638021 " transform="matrix(0.3,0,0,0.3,-29.1,-58.8)"/>
<path style="fill-rule:nonzero;fill:rgb(100%,14.901733%,0%);fill-opacity:1;stroke-width:1;stroke-linecap:round;stroke-linejoin:round;stroke:rgb(0%,0%,0%);stroke-opacity:1;stroke-miterlimit:10;" d="M 411.361979 218.630208 C 414.877604 222.145833 414.877604 227.848958 411.361979 231.364583 C 407.846354 234.880208 402.15625 234.880208 398.640625 231.364583 C 395.125 227.848958 395.125 222.145833 398.640625 218.630208 C 402.15625 215.127604 407.846354 215.127604 411.361979 218.630208 " transform="matrix(0.3,0,0,0.3,-29.1,-58.8)"/>
<path style=" stroke:none;fill-rule:nonzero;fill:rgb(100%,14.901733%,0%);fill-opacity:1;" d="M 140.210938 6.789062 C 141.261719 7.84375 141.261719 9.554688 140.210938 10.609375 C 139.15625 11.664062 137.445312 11.664062 136.390625 10.609375 C 135.335938 9.554688 135.335938 7.84375 136.390625 6.789062 C 137.445312 5.738281 139.15625 5.738281 140.210938 6.789062 "/>
<g clip-path="url(#clip2)" clip-rule="nonzero">
<path style="fill:none;stroke-width:1;stroke-linecap:round;stroke-linejoin:round;stroke:rgb(0%,0%,0%);stroke-opacity:1;stroke-miterlimit:10;" d="M 564.369792 218.630208 C 567.872396 222.145833 567.872396 227.848958 564.369792 231.364583 C 560.854167 234.880208 555.151042 234.880208 551.635417 231.364583 C 548.119792 227.848958 548.119792 222.145833 551.635417 218.630208 C 555.151042 215.127604 560.854167 215.127604 564.369792 218.630208 " transform="matrix(0.3,0,0,0.3,-29.1,-58.8)"/>
</g>
<path style="fill-rule:nonzero;fill:rgb(0%,0%,0%);fill-opacity:1;stroke-width:1;stroke-linecap:round;stroke-linejoin:round;stroke:rgb(0%,0%,0%);stroke-opacity:1;stroke-miterlimit:10;" d="M 501.361979 254.632812 C 504.877604 258.148437 504.877604 263.851562 501.361979 267.367187 C 497.846354 270.882812 492.15625 270.882812 488.640625 267.367187 C 485.125 263.851562 485.125 258.148437 488.640625 254.632812 C 492.15625 251.117187 497.846354 251.117187 501.361979 254.632812 " transform="matrix(0.3,0,0,0.3,-29.1,-58.8)"/>
<path style="fill-rule:nonzero;fill:rgb(0%,0%,0%);fill-opacity:1;stroke-width:1;stroke-linecap:round;stroke-linejoin:round;stroke:rgb(0%,0%,0%);stroke-opacity:1;stroke-miterlimit:10;" d="M 465.359375 254.632812 C 468.875 258.148437 468.875 263.851562 465.359375 267.367187 C 461.84375 270.882812 456.153646 270.882812 452.638021 267.367187 C 449.122396 263.851562 449.122396 258.148437 452.638021 254.632812 C 456.153646 251.117187 461.84375 251.117187 465.359375 254.632812 " transform="matrix(0.3,0,0,0.3,-29.1,-58.8)"/>
<path style="fill-rule:nonzero;fill:rgb(0%,0%,0%);fill-opacity:1;stroke-width:1;stroke-linecap:round;stroke-linejoin:round;stroke:rgb(0%,0%,0%);stroke-opacity:1;stroke-miterlimit:10;" d="M 312.364583 353.630208 C 315.880208 357.145833 315.880208 362.848958 312.364583 366.364583 C 308.848958 369.880208 303.145833 369.880208 299.630208 366.364583 C 296.127604 362.848958 296.127604 357.145833 299.630208 353.630208 C 303.145833 350.127604 308.848958 350.127604 312.364583 353.630208 " transform="matrix(0.3,0,0,0.3,-29.1,-58.8)"/>
<path style="fill-rule:nonzero;fill:rgb(0%,0%,0%);fill-opacity:1;stroke-width:1;stroke-linecap:round;stroke-linejoin:round;stroke:rgb(0%,0%,0%);stroke-opacity:1;stroke-miterlimit:10;" d="M 303.367188 308.630208 C 306.882812 312.145833 306.882812 317.848958 303.367188 321.364583 C 299.851562 324.880208 294.148438 324.880208 290.632812 321.364583 C 287.117188 317.848958 287.117188 312.145833 290.632812 308.630208 C 294.148438 305.127604 299.851562 305.127604 303.367188 308.630208 " transform="matrix(0.3,0,0,0.3,-29.1,-58.8)"/>
<path style="fill-rule:nonzero;fill:rgb(0%,0%,0%);fill-opacity:1;stroke-width:1;stroke-linecap:round;stroke-linejoin:round;stroke:rgb(0%,0%,0%);stroke-opacity:1;stroke-miterlimit:10;" d="M 267.364583 362.640625 C 270.880208 366.15625 270.880208 371.846354 267.364583 375.361979 C 263.848958 378.877604 258.145833 378.877604 254.630208 375.361979 C 251.127604 371.846354 251.127604 366.15625 254.630208 362.640625 C 258.145833 359.125 263.848958 359.125 267.364583 362.640625 " transform="matrix(0.3,0,0,0.3,-29.1,-58.8)"/>
<path style="fill-rule:nonzero;fill:rgb(100%,14.901733%,0%);fill-opacity:1;stroke-width:1;stroke-linecap:round;stroke-linejoin:round;stroke:rgb(0%,0%,0%);stroke-opacity:1;stroke-miterlimit:10;" d="M 177.364583 299.632812 C 180.880208 303.148437 180.880208 308.851562 177.364583 312.367187 C 173.848958 315.882812 168.145833 315.882812 164.630208 312.367187 C 161.127604 308.851562 161.127604 303.148437 164.630208 299.632812 C 168.145833 296.117187 173.848958 296.117187 177.364583 299.632812 " transform="matrix(0.3,0,0,0.3,-29.1,-58.8)"/>
<path style="fill:none;stroke-width:2;stroke-linecap:round;stroke-linejoin:round;stroke:rgb(0%,0%,0%);stroke-opacity:1;stroke-miterlimit:10;" d="M 186.53125 251.651042 L 173.471354 297.341146 " transform="matrix(0.3,0,0,0.3,-29.1,-58.8)"/>
<path style="fill:none;stroke-width:2;stroke-linecap:round;stroke-linejoin:round;stroke:rgb(0%,0%,0%);stroke-opacity:1;stroke-miterlimit:10;" d="M 459.005208 261 L 477 207.002604 L 494.994792 261 " transform="matrix(0.3,0,0,0.3,-29.1,-58.8)"/>
<path style="fill:none;stroke-width:2;stroke-linecap:round;stroke-linejoin:round;stroke:rgb(0%,0%,0%);stroke-opacity:1;stroke-miterlimit:10;" d="M 333.002604 224.997396 L 333.002604 278.994792 L 297 314.997396 L 305.997396 359.997396 " transform="matrix(0.3,0,0,0.3,-29.1,-58.8)"/>
<path style="fill:none;stroke-width:2;stroke-linecap:round;stroke-linejoin:round;stroke:rgb(0%,0%,0%);stroke-opacity:1;stroke-miterlimit:10;" d="M 260.997396 368.994792 L 297 314.997396 " transform="matrix(0.3,0,0,0.3,-29.1,-58.8)"/>
<path style="fill:none;stroke-width:2;stroke-linecap:round;stroke-linejoin:round;stroke:rgb(0%,0%,0%);stroke-opacity:1;stroke-miterlimit:10;" d="M 378.002604 323.994792 L 333.002604 278.994792 " transform="matrix(0.3,0,0,0.3,-29.1,-58.8)"/>
<path style="fill:none;stroke-width:2;stroke-linecap:round;stroke-linejoin:round;stroke:rgb(0%,0%,0%);stroke-opacity:1;stroke-miterlimit:10;" d="M 224.994792 314.997396 L 260.997396 269.997396 L 269.994792 224.997396 " transform="matrix(0.3,0,0,0.3,-29.1,-58.8)"/>
<path style="fill-rule:nonzero;fill:rgb(100%,14.901733%,0%);fill-opacity:1;stroke-width:1;stroke-linecap:round;stroke-linejoin:round;stroke:rgb(0%,0%,0%);stroke-opacity:1;stroke-miterlimit:10;" d="M 267.364583 263.630208 C 270.880208 267.145833 270.880208 272.848958 267.364583 276.364583 C 263.848958 279.880208 258.145833 279.880208 254.630208 276.364583 C 251.127604 272.848958 251.127604 267.145833 254.630208 263.630208 C 258.145833 260.127604 263.848958 260.127604 267.364583 263.630208 " transform="matrix(0.3,0,0,0.3,-29.1,-58.8)"/>
<path style="fill-rule:nonzero;fill:rgb(100%,14.901733%,0%);fill-opacity:1;stroke-width:1;stroke-linecap:round;stroke-linejoin:round;stroke:rgb(0%,0%,0%);stroke-opacity:1;stroke-miterlimit:10;" d="M 276.361979 218.630208 C 279.877604 222.145833 279.877604 227.848958 276.361979 231.364583 C 272.846354 234.880208 267.15625 234.880208 263.640625 231.364583 C 260.125 227.848958 260.125 222.145833 263.640625 218.630208 C 267.15625 215.127604 272.846354 215.127604 276.361979 218.630208 " transform="matrix(0.3,0,0,0.3,-29.1,-58.8)"/>
<path style="fill-rule:nonzero;fill:rgb(100%,14.901733%,0%);fill-opacity:1;stroke-width:1;stroke-linecap:round;stroke-linejoin:round;stroke:rgb(0%,0%,0%);stroke-opacity:1;stroke-miterlimit:10;" d="M 231.361979 308.630208 C 234.877604 312.145833 234.877604 317.848958 231.361979 321.364583 C 227.846354 324.880208 222.15625 324.880208 218.640625 321.364583 C 215.125 317.848958 215.125 312.145833 218.640625 308.630208 C 222.15625 305.127604 227.846354 305.127604 231.361979 308.630208 " transform="matrix(0.3,0,0,0.3,-29.1,-58.8)"/>
<path style="fill-rule:nonzero;fill:rgb(100%,14.901733%,0%);fill-opacity:1;stroke-width:1;stroke-linecap:round;stroke-linejoin:round;stroke:rgb(0%,0%,0%);stroke-opacity:1;stroke-miterlimit:10;" d="M 384.369792 317.640625 C 387.872396 321.15625 387.872396 326.846354 384.369792 330.361979 C 380.854167 333.877604 375.151042 333.877604 371.635417 330.361979 C 368.119792 326.846354 368.119792 321.15625 371.635417 317.640625 C 375.151042 314.125 380.854167 314.125 384.369792 317.640625 " transform="matrix(0.3,0,0,0.3,-29.1,-58.8)"/>
<path style="fill-rule:nonzero;fill:rgb(100%,14.901733%,0%);fill-opacity:1;stroke-width:1;stroke-linecap:round;stroke-linejoin:round;stroke:rgb(0%,0%,0%);stroke-opacity:1;stroke-miterlimit:10;" d="M 339.369792 272.640625 C 342.872396 276.15625 342.872396 281.846354 339.369792 285.361979 C 335.854167 288.877604 330.151042 288.877604 326.635417 285.361979 C 323.119792 281.846354 323.119792 276.15625 326.635417 272.640625 C 330.151042 269.125 335.854167 269.125 339.369792 272.640625 " transform="matrix(0.3,0,0,0.3,-29.1,-58.8)"/>
<path style="fill-rule:nonzero;fill:rgb(100%,14.901733%,0%);fill-opacity:1;stroke-width:1;stroke-linecap:round;stroke-linejoin:round;stroke:rgb(0%,0%,0%);stroke-opacity:1;stroke-miterlimit:10;" d="M 339.369792 218.630208 C 342.872396 222.145833 342.872396 227.848958 339.369792 231.364583 C 335.854167 234.880208 330.151042 234.880208 326.635417 231.364583 C 323.119792 227.848958 323.119792 222.145833 326.635417 218.630208 C 330.151042 215.127604 335.854167 215.127604 339.369792 218.630208 " transform="matrix(0.3,0,0,0.3,-29.1,-58.8)"/>
<path style="fill-rule:nonzero;fill:rgb(100%,14.901733%,0%);fill-opacity:1;stroke-width:1;stroke-linecap:round;stroke-linejoin:round;stroke:rgb(0%,0%,0%);stroke-opacity:1;stroke-miterlimit:10;" d="M 483.367187 200.635417 C 486.882812 204.151042 486.882812 209.854167 483.367187 213.369792 C 479.851562 216.872396 474.148437 216.872396 470.632812 213.369792 C 467.117187 209.854167 467.117187 204.151042 470.632812 200.635417 C 474.148437 197.119792 479.851562 197.119792 483.367187 200.635417 " transform="matrix(0.3,0,0,0.3,-29.1,-58.8)"/>
</g>
</svg>
