<?xml version="1.0" encoding="UTF-8" standalone="no"?>
<!DOCTYPE svg PUBLIC "-//W3C//DTD SVG 1.1//EN"
 "http://www.w3.org/Graphics/SVG/1.1/DTD/svg11.dtd">
<!-- Generated by graphviz version 2.38.0 (20140413.2041)
 -->
<!-- Title: G Pages: 1 -->
<svg width="481pt" height="117pt"
 viewBox="0.00 0.00 481.45 116.91" xmlns="http://www.w3.org/2000/svg" xmlns:xlink="http://www.w3.org/1999/xlink">
<g id="graph0" class="graph" transform="scale(1 1) rotate(0) translate(4 112.907)">
<title>G</title>
<polygon fill="white" stroke="none" points="-4,4 -4,-112.907 477.454,-112.907 477.454,4 -4,4"/>
<!-- r1 -->
<g id="node1" class="node"><title>r1</title>
<ellipse fill="none" stroke="black" cx="347.454" cy="-90.9074" rx="18" ry="18"/>
<text text-anchor="middle" x="347.454" y="-86.7074" font-family="Times,serif" font-size="14.00">r1</text>
</g>
<!-- c2 -->
<g id="node10" class="node"><title>c2</title>
<ellipse fill="none" stroke="black" cx="238.454" cy="-18.4537" rx="18.4075" ry="18.4075"/>
<text text-anchor="middle" x="238.454" y="-14.2537" font-family="Times,serif" font-size="14.00">c2</text>
</g>
<!-- r1&#45;&#45;c2 -->
<g id="edge1" class="edge"><title>r1&#45;&#45;c2</title>
<path fill="none" stroke="black" d="M332.753,-80.4057C312.066,-67.0343 274.557,-42.7897 253.62,-29.2569"/>
</g>
<!-- c4 -->
<g id="node12" class="node"><title>c4</title>
<ellipse fill="none" stroke="black" cx="403.454" cy="-18.4537" rx="18.4075" ry="18.4075"/>
<text text-anchor="middle" x="403.454" y="-14.2537" font-family="Times,serif" font-size="14.00">c4</text>
</g>
<!-- r1&#45;&#45;c4 -->
<g id="edge23" class="edge"><title>r1&#45;&#45;c4</title>
<path fill="none" stroke="blue" stroke-width="2" d="M358.251,-76.3232C368.04,-64.0074 382.41,-45.9293 392.306,-33.4784"/>
</g>
<!-- c5 -->
<g id="node13" class="node"><title>c5</title>
<ellipse fill="none" stroke="black" cx="348.454" cy="-18.4537" rx="18.4075" ry="18.4075"/>
<text text-anchor="middle" x="348.454" y="-14.2537" font-family="Times,serif" font-size="14.00">c5</text>
</g>
<!-- r1&#45;&#45;c5 -->
<g id="edge2" class="edge"><title>r1&#45;&#45;c5</title>
<path fill="none" stroke="black" d="M347.696,-72.8525C347.848,-62.1012 348.045,-48.2401 348.2,-37.3346"/>
</g>
<!-- c8 -->
<g id="node16" class="node"><title>c8</title>
<ellipse fill="none" stroke="black" cx="293.454" cy="-18.4537" rx="18.4075" ry="18.4075"/>
<text text-anchor="middle" x="293.454" y="-14.2537" font-family="Times,serif" font-size="14.00">c8</text>
</g>
<!-- r1&#45;&#45;c8 -->
<g id="edge3" class="edge"><title>r1&#45;&#45;c8</title>
<path fill="none" stroke="black" d="M336.785,-75.988C327.441,-63.7969 313.917,-46.1522 304.471,-33.8279"/>
</g>
<!-- r2 -->
<g id="node2" class="node"><title>r2</title>
<ellipse fill="none" stroke="black" cx="77.4537" cy="-90.9074" rx="18" ry="18"/>
<text text-anchor="middle" x="77.4537" y="-86.7074" font-family="Times,serif" font-size="14.00">r2</text>
</g>
<!-- c1 -->
<g id="node9" class="node"><title>c1</title>
<ellipse fill="none" stroke="black" cx="128.454" cy="-18.4537" rx="18.4075" ry="18.4075"/>
<text text-anchor="middle" x="128.454" y="-14.2537" font-family="Times,serif" font-size="14.00">c1</text>
</g>
<!-- r2&#45;&#45;c1 -->
<g id="edge4" class="edge"><title>r2&#45;&#45;c1</title>
<path fill="none" stroke="black" d="M87.5297,-75.988C96.3545,-63.7969 109.127,-46.1522 118.049,-33.8279"/>
</g>
<!-- r2&#45;&#45;c2 -->
<g id="edge5" class="edge"><title>r2&#45;&#45;c2</title>
<path fill="none" stroke="black" d="M91.9519,-79.9077C95.9023,-77.4272 100.253,-74.9089 104.454,-72.9074 149.369,-51.5057 165.49,-58.2078 210.454,-36.9074 214.802,-34.8475 219.312,-32.2602 223.408,-29.7134"/>
</g>
<!-- c3 -->
<g id="node11" class="node"><title>c3</title>
<ellipse fill="none" stroke="black" cx="183.454" cy="-18.4537" rx="18.4075" ry="18.4075"/>
<text text-anchor="middle" x="183.454" y="-14.2537" font-family="Times,serif" font-size="14.00">c3</text>
</g>
<!-- r2&#45;&#45;c3 -->
<g id="edge22" class="edge"><title>r2&#45;&#45;c3</title>
<path fill="none" stroke="blue" stroke-width="2" d="M92.1925,-80.1111C112.33,-66.7264 148.248,-42.8534 168.498,-29.3939"/>
</g>
<!-- c6 -->
<g id="node14" class="node"><title>c6</title>
<ellipse fill="none" stroke="black" cx="18.4537" cy="-18.4537" rx="18.4075" ry="18.4075"/>
<text text-anchor="middle" x="18.4537" y="-14.2537" font-family="Times,serif" font-size="14.00">c6</text>
</g>
<!-- r2&#45;&#45;c6 -->
<g id="edge6" class="edge"><title>r2&#45;&#45;c6</title>
<path fill="none" stroke="black" d="M66.3563,-76.6556C55.9415,-64.219 40.4317,-45.6983 29.9038,-33.1267"/>
</g>
<!-- c7 -->
<g id="node15" class="node"><title>c7</title>
<ellipse fill="none" stroke="black" cx="73.4537" cy="-18.4537" rx="18.4075" ry="18.4075"/>
<text text-anchor="middle" x="73.4537" y="-14.2537" font-family="Times,serif" font-size="14.00">c7</text>
</g>
<!-- r2&#45;&#45;c7 -->
<g id="edge7" class="edge"><title>r2&#45;&#45;c7</title>
<path fill="none" stroke="black" d="M76.4854,-72.8525C75.875,-62.1012 75.088,-48.2401 74.4689,-37.3346"/>
</g>
<!-- r3 -->
<g id="node3" class="node"><title>r3</title>
<ellipse fill="none" stroke="black" cx="455.454" cy="-90.9074" rx="18" ry="18"/>
<text text-anchor="middle" x="455.454" y="-86.7074" font-family="Times,serif" font-size="14.00">r3</text>
</g>
<!-- r3&#45;&#45;c4 -->
<g id="edge8" class="edge"><title>r3&#45;&#45;c4</title>
<path fill="none" stroke="black" d="M445.18,-75.988C436.182,-63.7969 423.159,-46.1522 414.063,-33.8279"/>
</g>
<!-- r3&#45;&#45;c5 -->
<g id="edge24" class="edge"><title>r3&#45;&#45;c5</title>
<path fill="none" stroke="blue" stroke-width="2" d="M440.576,-80.1111C420.248,-66.7264 383.991,-42.8534 363.55,-29.3939"/>
</g>
<!-- r4 -->
<g id="node4" class="node"><title>r4</title>
<ellipse fill="none" stroke="black" cx="185.454" cy="-90.9074" rx="18" ry="18"/>
<text text-anchor="middle" x="185.454" y="-86.7074" font-family="Times,serif" font-size="14.00">r4</text>
</g>
<!-- r4&#45;&#45;c2 -->
<g id="edge9" class="edge"><title>r4&#45;&#45;c2</title>
<path fill="none" stroke="black" d="M195.925,-75.988C205.096,-63.7969 218.369,-46.1522 227.64,-33.8279"/>
</g>
<!-- r4&#45;&#45;c8 -->
<g id="edge25" class="edge"><title>r4&#45;&#45;c8</title>
<path fill="none" stroke="blue" stroke-width="2" d="M200.471,-80.1111C220.988,-66.7264 257.584,-42.8534 278.216,-29.3939"/>
</g>
<!-- r5 -->
<g id="node5" class="node"><title>r5</title>
<ellipse fill="none" stroke="black" cx="239.454" cy="-90.9074" rx="18" ry="18"/>
<text text-anchor="middle" x="239.454" y="-86.7074" font-family="Times,serif" font-size="14.00">r5</text>
</g>
<!-- r5&#45;&#45;c2 -->
<g id="edge21" class="edge"><title>r5&#45;&#45;c2</title>
<path fill="none" stroke="blue" stroke-width="2" d="M239.212,-72.8525C239.059,-62.1012 238.862,-48.2401 238.708,-37.3346"/>
</g>
<!-- r5&#45;&#45;c8 -->
<g id="edge10" class="edge"><title>r5&#45;&#45;c8</title>
<path fill="none" stroke="black" d="M250.122,-75.988C259.466,-63.7969 272.99,-46.1522 282.436,-33.8279"/>
</g>
<!-- r6 -->
<g id="node6" class="node"><title>r6</title>
<ellipse fill="none" stroke="black" cx="131.454" cy="-90.9074" rx="18" ry="18"/>
<text text-anchor="middle" x="131.454" y="-86.7074" font-family="Times,serif" font-size="14.00">r6</text>
</g>
<!-- r6&#45;&#45;c1 -->
<g id="edge20" class="edge"><title>r6&#45;&#45;c1</title>
<path fill="none" stroke="blue" stroke-width="2" d="M130.727,-72.8525C130.27,-62.1012 129.679,-48.2401 129.215,-37.3346"/>
</g>
<!-- r6&#45;&#45;c2 -->
<g id="edge11" class="edge"><title>r6&#45;&#45;c2</title>
<path fill="none" stroke="black" d="M146.332,-80.1111C166.659,-66.7264 202.916,-42.8534 223.357,-29.3939"/>
</g>
<!-- r6&#45;&#45;c3 -->
<g id="edge12" class="edge"><title>r6&#45;&#45;c3</title>
<path fill="none" stroke="black" d="M141.727,-75.988C150.725,-63.7969 163.748,-46.1522 172.845,-33.8279"/>
</g>
<!-- r6&#45;&#45;c5 -->
<g id="edge13" class="edge"><title>r6&#45;&#45;c5</title>
<path fill="none" stroke="black" d="M145.813,-79.5946C149.764,-77.1165 154.151,-74.6777 158.454,-72.9074 226.663,-44.846 252.181,-64.8149 320.454,-36.9074 325.014,-35.0434 329.67,-32.4621 333.843,-29.8557"/>
</g>
<!-- r6&#45;&#45;c6 -->
<g id="edge14" class="edge"><title>r6&#45;&#45;c6</title>
<path fill="none" stroke="black" d="M116.61,-80.5375C112.662,-78.0521 108.399,-75.3739 104.454,-72.9074 78.7275,-56.8246 72.2161,-52.9321 46.4537,-36.9074 42.3679,-34.366 37.9488,-31.6132 33.855,-29.0614"/>
</g>
<!-- r6&#45;&#45;c7 -->
<g id="edge15" class="edge"><title>r6&#45;&#45;c7</title>
<path fill="none" stroke="black" d="M120.271,-76.3232C110.132,-64.0074 95.2493,-45.9293 84.9993,-33.4784"/>
</g>
<!-- r7 -->
<g id="node7" class="node"><title>r7</title>
<ellipse fill="red" stroke="red" cx="293.454" cy="-90.9074" rx="18" ry="18"/>
<text text-anchor="middle" x="293.454" y="-86.7074" font-family="Times,serif" font-size="14.00">r7</text>
</g>
<!-- r7&#45;&#45;c2 -->
<g id="edge16" class="edge"><title>r7&#45;&#45;c2</title>
<path fill="none" stroke="black" d="M282.849,-76.3232C273.235,-64.0074 259.122,-45.9293 249.402,-33.4784"/>
</g>
<!-- r7&#45;&#45;c8 -->
<g id="edge17" class="edge"><title>r7&#45;&#45;c8</title>
<path fill="none" stroke="black" d="M293.454,-72.8525C293.454,-62.1012 293.454,-48.2401 293.454,-37.3346"/>
</g>
<!-- r8 -->
<g id="node8" class="node"><title>r8</title>
<ellipse fill="red" stroke="red" cx="401.454" cy="-90.9074" rx="18" ry="18"/>
<text text-anchor="middle" x="401.454" y="-86.7074" font-family="Times,serif" font-size="14.00">r8</text>
</g>
<!-- r8&#45;&#45;c2 -->
<g id="edge18" class="edge"><title>r8&#45;&#45;c2</title>
<path fill="none" stroke="black" d="M386.963,-79.8917C383.013,-77.4113 378.66,-74.897 374.454,-72.9074 328.716,-51.2724 312.24,-58.4392 266.454,-36.9074 262.099,-34.8597 257.588,-32.2767 253.491,-29.7301"/>
</g>
<!-- r8&#45;&#45;c4 -->
<g id="edge19" class="edge"><title>r8&#45;&#45;c4</title>
<path fill="none" stroke="black" d="M401.938,-72.8525C402.243,-62.1012 402.637,-48.2401 402.946,-37.3346"/>
</g>
</g>
</svg>
