<?xml version="1.0" encoding="UTF-8" standalone="no"?>
<!DOCTYPE svg PUBLIC "-//W3C//DTD SVG 1.1//EN"
 "http://www.w3.org/Graphics/SVG/1.1/DTD/svg11.dtd">
<!-- Generated by graphviz version 2.38.0 (20140413.2041)
 -->
<!-- Title: G Pages: 1 -->
<svg width="782pt" height="260pt"
 viewBox="0.00 0.00 782.13 260.00" xmlns="http://www.w3.org/2000/svg" xmlns:xlink="http://www.w3.org/1999/xlink">
<g id="graph0" class="graph" transform="scale(1 1) rotate(0) translate(4 256)">
<title>G</title>
<polygon fill="white" stroke="none" points="-4,4 -4,-256 778.133,-256 778.133,4 -4,4"/>
<!-- 0 -->
<g id="node1" class="node"><title>0</title>
<ellipse fill="none" stroke="black" cx="175.567" cy="-234" rx="148.244" ry="18"/>
<text text-anchor="middle" x="175.567" y="-229.8" font-family="Times,serif" font-size="14.00">lazyset/lazyadd/maxval/minval/sumval</text>
</g>
<!-- 1 -->
<g id="node2" class="node"><title>1</title>
<ellipse fill="none" stroke="black" cx="386.567" cy="-234" rx="44.9768" ry="18"/>
<text text-anchor="middle" x="386.567" y="-229.8" font-family="Times,serif" font-size="14.00">&#45;/0/7/0/42</text>
</g>
<!-- 2 -->
<g id="node3" class="node"><title>2</title>
<ellipse fill="none" stroke="black" cx="311.567" cy="-162" rx="44.9768" ry="18"/>
<text text-anchor="middle" x="311.567" y="-157.8" font-family="Times,serif" font-size="14.00">&#45;/0/7/0/14</text>
</g>
<!-- 1&#45;&gt;2 -->
<g id="edge1" class="edge"><title>1&#45;&gt;2</title>
<path fill="none" stroke="black" d="M369.548,-217.116C359.671,-207.897 347.06,-196.127 336.123,-185.919"/>
<polygon fill="black" stroke="black" points="338.217,-183.086 328.518,-178.821 333.44,-188.203 338.217,-183.086"/>
</g>
<!-- 3 -->
<g id="node4" class="node"><title>3</title>
<ellipse fill="yellow" stroke="yellow" cx="461.567" cy="-162" rx="46.4304" ry="18"/>
<text text-anchor="middle" x="461.567" y="-157.8" font-family="Times,serif" font-size="14.00">7/0/7/7/28</text>
</g>
<!-- 1&#45;&gt;3 -->
<g id="edge2" class="edge"><title>1&#45;&gt;3</title>
<path fill="none" stroke="black" d="M403.585,-217.116C413.462,-207.897 426.074,-196.127 437.011,-185.919"/>
<polygon fill="black" stroke="black" points="439.693,-188.203 444.615,-178.821 434.917,-183.086 439.693,-188.203"/>
</g>
<!-- 4 -->
<g id="node5" class="node"><title>4</title>
<ellipse fill="none" stroke="black" cx="139.567" cy="-90" rx="40.6335" ry="18"/>
<text text-anchor="middle" x="139.567" y="-85.8" font-family="Times,serif" font-size="14.00">&#45;/0/0/0/0</text>
</g>
<!-- 2&#45;&gt;4 -->
<g id="edge3" class="edge"><title>2&#45;&gt;4</title>
<path fill="none" stroke="black" d="M281.212,-148.647C252.495,-136.959 209.27,-119.368 178.126,-106.693"/>
<polygon fill="black" stroke="black" points="179.054,-103.292 168.472,-102.764 176.415,-109.775 179.054,-103.292"/>
</g>
<!-- 5 -->
<g id="node6" class="node"><title>5</title>
<ellipse fill="yellow" stroke="yellow" cx="311.567" cy="-90" rx="46.4304" ry="18"/>
<text text-anchor="middle" x="311.567" y="-85.8" font-family="Times,serif" font-size="14.00">7/0/7/7/14</text>
</g>
<!-- 2&#45;&gt;5 -->
<g id="edge4" class="edge"><title>2&#45;&gt;5</title>
<path fill="none" stroke="black" d="M311.567,-143.697C311.567,-135.983 311.567,-126.712 311.567,-118.112"/>
<polygon fill="black" stroke="black" points="315.067,-118.104 311.567,-108.104 308.067,-118.104 315.067,-118.104"/>
</g>
<!-- 6 -->
<g id="node7" class="node"><title>6</title>
<ellipse fill="none" stroke="black" cx="461.567" cy="-90" rx="40.6335" ry="18"/>
<text text-anchor="middle" x="461.567" y="-85.8" font-family="Times,serif" font-size="14.00">&#45;/0/0/0/0</text>
</g>
<!-- 3&#45;&gt;6 -->
<g id="edge5" class="edge"><title>3&#45;&gt;6</title>
<path fill="none" stroke="black" d="M461.567,-143.697C461.567,-135.983 461.567,-126.712 461.567,-118.112"/>
<polygon fill="black" stroke="black" points="465.067,-118.104 461.567,-108.104 458.067,-118.104 465.067,-118.104"/>
</g>
<!-- 7 -->
<g id="node8" class="node"><title>7</title>
<ellipse fill="none" stroke="black" cx="634.567" cy="-90" rx="40.6335" ry="18"/>
<text text-anchor="middle" x="634.567" y="-85.8" font-family="Times,serif" font-size="14.00">&#45;/0/0/0/0</text>
</g>
<!-- 3&#45;&gt;7 -->
<g id="edge6" class="edge"><title>3&#45;&gt;7</title>
<path fill="none" stroke="black" d="M492.496,-148.485C521.436,-136.775 564.768,-119.242 595.964,-106.62"/>
<polygon fill="black" stroke="black" points="597.675,-109.703 605.632,-102.708 595.049,-103.214 597.675,-109.703"/>
</g>
<!-- 8 -->
<g id="node9" class="node"><title>8</title>
<ellipse fill="none" stroke="black" cx="40.5667" cy="-18" rx="40.6335" ry="18"/>
<text text-anchor="middle" x="40.5667" y="-13.8" font-family="Times,serif" font-size="14.00">&#45;/0/0/0/0</text>
</g>
<!-- 4&#45;&gt;8 -->
<g id="edge7" class="edge"><title>4&#45;&gt;8</title>
<path fill="none" stroke="black" d="M118.571,-74.1548C104.3,-64.064 85.2334,-50.5825 69.5232,-39.4743"/>
<polygon fill="black" stroke="black" points="71.3781,-36.4993 61.1923,-33.5838 67.3368,-42.2149 71.3781,-36.4993"/>
</g>
<!-- 9 -->
<g id="node10" class="node"><title>9</title>
<ellipse fill="none" stroke="black" cx="139.567" cy="-18" rx="40.6335" ry="18"/>
<text text-anchor="middle" x="139.567" y="-13.8" font-family="Times,serif" font-size="14.00">&#45;/0/0/0/0</text>
</g>
<!-- 4&#45;&gt;9 -->
<g id="edge8" class="edge"><title>4&#45;&gt;9</title>
<path fill="none" stroke="black" d="M139.567,-71.6966C139.567,-63.9827 139.567,-54.7125 139.567,-46.1124"/>
<polygon fill="black" stroke="black" points="143.067,-46.1043 139.567,-36.1043 136.067,-46.1044 143.067,-46.1043"/>
</g>
<!-- 10 -->
<g id="node11" class="node"><title>10</title>
<ellipse fill="none" stroke="black" cx="238.567" cy="-18" rx="40.6335" ry="18"/>
<text text-anchor="middle" x="238.567" y="-13.8" font-family="Times,serif" font-size="14.00">&#45;/0/0/0/0</text>
</g>
<!-- 5&#45;&gt;10 -->
<g id="edge9" class="edge"><title>5&#45;&gt;10</title>
<path fill="none" stroke="black" d="M295.002,-73.1159C285.321,-63.8326 272.94,-51.961 262.243,-41.7037"/>
<polygon fill="black" stroke="black" points="264.455,-38.9751 254.814,-34.5801 259.61,-44.0276 264.455,-38.9751"/>
</g>
<!-- 11 -->
<g id="node12" class="node"><title>11</title>
<ellipse fill="none" stroke="black" cx="337.567" cy="-18" rx="40.6335" ry="18"/>
<text text-anchor="middle" x="337.567" y="-13.8" font-family="Times,serif" font-size="14.00">&#45;/0/0/0/0</text>
</g>
<!-- 5&#45;&gt;11 -->
<g id="edge10" class="edge"><title>5&#45;&gt;11</title>
<path fill="none" stroke="black" d="M317.861,-72.055C320.831,-64.0586 324.444,-54.3308 327.761,-45.3995"/>
<polygon fill="black" stroke="black" points="331.13,-46.3819 331.331,-35.789 324.568,-43.9446 331.13,-46.3819"/>
</g>
<!-- 12 -->
<g id="node13" class="node"><title>12</title>
<ellipse fill="none" stroke="black" cx="436.567" cy="-18" rx="40.6335" ry="18"/>
<text text-anchor="middle" x="436.567" y="-13.8" font-family="Times,serif" font-size="14.00">&#45;/0/0/0/0</text>
</g>
<!-- 6&#45;&gt;12 -->
<g id="edge11" class="edge"><title>6&#45;&gt;12</title>
<path fill="none" stroke="black" d="M455.515,-72.055C452.701,-64.1762 449.287,-54.6165 446.136,-45.794"/>
<polygon fill="black" stroke="black" points="449.396,-44.5155 442.736,-36.2753 442.804,-46.8699 449.396,-44.5155"/>
</g>
<!-- 13 -->
<g id="node14" class="node"><title>13</title>
<ellipse fill="none" stroke="black" cx="535.567" cy="-18" rx="40.6335" ry="18"/>
<text text-anchor="middle" x="535.567" y="-13.8" font-family="Times,serif" font-size="14.00">&#45;/0/0/0/0</text>
</g>
<!-- 6&#45;&gt;13 -->
<g id="edge12" class="edge"><title>6&#45;&gt;13</title>
<path fill="none" stroke="black" d="M477.99,-73.4647C487.953,-64.0396 500.836,-51.8531 511.889,-41.3981"/>
<polygon fill="black" stroke="black" points="514.33,-43.9065 519.19,-34.4918 509.52,-38.8212 514.33,-43.9065"/>
</g>
<!-- 14 -->
<g id="node15" class="node"><title>14</title>
<ellipse fill="none" stroke="black" cx="634.567" cy="-18" rx="40.6335" ry="18"/>
<text text-anchor="middle" x="634.567" y="-13.8" font-family="Times,serif" font-size="14.00">&#45;/0/0/0/0</text>
</g>
<!-- 7&#45;&gt;14 -->
<g id="edge13" class="edge"><title>7&#45;&gt;14</title>
<path fill="none" stroke="black" d="M634.567,-71.6966C634.567,-63.9827 634.567,-54.7125 634.567,-46.1124"/>
<polygon fill="black" stroke="black" points="638.067,-46.1043 634.567,-36.1043 631.067,-46.1044 638.067,-46.1043"/>
</g>
<!-- 15 -->
<g id="node16" class="node"><title>15</title>
<ellipse fill="none" stroke="black" cx="733.567" cy="-18" rx="40.6335" ry="18"/>
<text text-anchor="middle" x="733.567" y="-13.8" font-family="Times,serif" font-size="14.00">&#45;/0/0/0/0</text>
</g>
<!-- 7&#45;&gt;15 -->
<g id="edge14" class="edge"><title>7&#45;&gt;15</title>
<path fill="none" stroke="black" d="M655.562,-74.1548C669.833,-64.064 688.9,-50.5825 704.61,-39.4743"/>
<polygon fill="black" stroke="black" points="706.797,-42.2149 712.941,-33.5838 702.755,-36.4993 706.797,-42.2149"/>
</g>
</g>
</svg>
