<?xml version="1.0" encoding="UTF-8" standalone="no"?>
<!DOCTYPE svg PUBLIC "-//W3C//DTD SVG 1.1//EN"
 "http://www.w3.org/Graphics/SVG/1.1/DTD/svg11.dtd">
<!-- Generated by graphviz version 2.38.0 (20140413.2041)
 -->
<!-- Title: G Pages: 1 -->
<svg width="590pt" height="260pt"
 viewBox="0.00 0.00 589.57 260.00" xmlns="http://www.w3.org/2000/svg" xmlns:xlink="http://www.w3.org/1999/xlink">
<g id="graph0" class="graph" transform="scale(1 1) rotate(0) translate(4 256)">
<title>G</title>
<polygon fill="white" stroke="none" points="-4,4 -4,-256 585.572,-256 585.572,4 -4,4"/>
<!-- 0 -->
<g id="node1" class="node"><title>0</title>
<ellipse fill="none" stroke="black" cx="148.286" cy="-234" rx="91.3153" ry="18"/>
<text text-anchor="middle" x="148.286" y="-229.8" font-family="Times,serif" font-size="14.00">maxval/minval/sumval</text>
</g>
<!-- 1 -->
<g id="node2" class="node"><title>1</title>
<ellipse fill="none" stroke="black" cx="290.286" cy="-234" rx="32.9168" ry="18"/>
<text text-anchor="middle" x="290.286" y="-229.8" font-family="Times,serif" font-size="14.00">7/0/42</text>
</g>
<!-- 2 -->
<g id="node3" class="node"><title>2</title>
<ellipse fill="none" stroke="black" cx="233.286" cy="-162" rx="32.9168" ry="18"/>
<text text-anchor="middle" x="233.286" y="-157.8" font-family="Times,serif" font-size="14.00">7/0/14</text>
</g>
<!-- 1&#45;&gt;2 -->
<g id="edge1" class="edge"><title>1&#45;&gt;2</title>
<path fill="none" stroke="black" d="M277.352,-217.116C270.064,-208.166 260.817,-196.81 252.678,-186.815"/>
<polygon fill="black" stroke="black" points="255.197,-184.366 246.169,-178.821 249.769,-188.786 255.197,-184.366"/>
</g>
<!-- 3 -->
<g id="node4" class="node"><title>3</title>
<ellipse fill="none" stroke="black" cx="347.286" cy="-162" rx="32.9168" ry="18"/>
<text text-anchor="middle" x="347.286" y="-157.8" font-family="Times,serif" font-size="14.00">7/7/28</text>
</g>
<!-- 1&#45;&gt;3 -->
<g id="edge2" class="edge"><title>1&#45;&gt;3</title>
<path fill="none" stroke="black" d="M303.22,-217.116C310.508,-208.166 319.755,-196.81 327.894,-186.815"/>
<polygon fill="black" stroke="black" points="330.803,-188.786 334.403,-178.821 325.375,-184.366 330.803,-188.786"/>
</g>
<!-- 4 -->
<g id="node5" class="node"><title>4</title>
<ellipse fill="none" stroke="black" cx="103.286" cy="-90" rx="28.0736" ry="18"/>
<text text-anchor="middle" x="103.286" y="-85.8" font-family="Times,serif" font-size="14.00">0/0/0</text>
</g>
<!-- 2&#45;&gt;4 -->
<g id="edge3" class="edge"><title>2&#45;&gt;4</title>
<path fill="none" stroke="black" d="M210.642,-148.807C189.192,-137.257 156.843,-119.838 133.262,-107.141"/>
<polygon fill="black" stroke="black" points="134.845,-104.018 124.381,-102.359 131.526,-110.181 134.845,-104.018"/>
</g>
<!-- 5 -->
<g id="node6" class="node"><title>5</title>
<ellipse fill="none" stroke="black" cx="233.286" cy="-90" rx="32.9168" ry="18"/>
<text text-anchor="middle" x="233.286" y="-85.8" font-family="Times,serif" font-size="14.00">7/7/14</text>
</g>
<!-- 2&#45;&gt;5 -->
<g id="edge4" class="edge"><title>2&#45;&gt;5</title>
<path fill="none" stroke="black" d="M233.286,-143.697C233.286,-135.983 233.286,-126.712 233.286,-118.112"/>
<polygon fill="black" stroke="black" points="236.786,-118.104 233.286,-108.104 229.786,-118.104 236.786,-118.104"/>
</g>
<!-- 6 -->
<g id="node7" class="node"><title>6</title>
<ellipse fill="none" stroke="black" cx="347.286" cy="-90" rx="32.9168" ry="18"/>
<text text-anchor="middle" x="347.286" y="-85.8" font-family="Times,serif" font-size="14.00">7/7/14</text>
</g>
<!-- 3&#45;&gt;6 -->
<g id="edge5" class="edge"><title>3&#45;&gt;6</title>
<path fill="none" stroke="black" d="M347.286,-143.697C347.286,-135.983 347.286,-126.712 347.286,-118.112"/>
<polygon fill="black" stroke="black" points="350.786,-118.104 347.286,-108.104 343.786,-118.104 350.786,-118.104"/>
</g>
<!-- 7 -->
<g id="node8" class="node"><title>7</title>
<ellipse fill="none" stroke="black" cx="478.286" cy="-90" rx="32.9168" ry="18"/>
<text text-anchor="middle" x="478.286" y="-85.8" font-family="Times,serif" font-size="14.00">7/7/14</text>
</g>
<!-- 3&#45;&gt;7 -->
<g id="edge6" class="edge"><title>3&#45;&gt;7</title>
<path fill="none" stroke="black" d="M370.104,-148.807C391.331,-137.465 423.15,-120.462 446.791,-107.83"/>
<polygon fill="black" stroke="black" points="448.559,-110.853 455.729,-103.053 445.26,-104.679 448.559,-110.853"/>
</g>
<!-- 8 -->
<g id="node9" class="node"><title>8</title>
<ellipse fill="none" stroke="black" cx="28.286" cy="-18" rx="28.0736" ry="18"/>
<text text-anchor="middle" x="28.286" y="-13.8" font-family="Times,serif" font-size="14.00">0/0/0</text>
</g>
<!-- 4&#45;&gt;8 -->
<g id="edge7" class="edge"><title>4&#45;&gt;8</title>
<path fill="none" stroke="black" d="M87.746,-74.496C77.1166,-64.5752 62.8529,-51.2624 50.9602,-40.1626"/>
<polygon fill="black" stroke="black" points="53.2482,-37.5105 43.5495,-33.246 48.472,-42.6279 53.2482,-37.5105"/>
</g>
<!-- 9 -->
<g id="node10" class="node"><title>9</title>
<ellipse fill="none" stroke="black" cx="103.286" cy="-18" rx="28.0736" ry="18"/>
<text text-anchor="middle" x="103.286" y="-13.8" font-family="Times,serif" font-size="14.00">0/0/0</text>
</g>
<!-- 4&#45;&gt;9 -->
<g id="edge8" class="edge"><title>4&#45;&gt;9</title>
<path fill="none" stroke="black" d="M103.286,-71.6966C103.286,-63.9827 103.286,-54.7125 103.286,-46.1124"/>
<polygon fill="black" stroke="black" points="106.786,-46.1043 103.286,-36.1043 99.7861,-46.1044 106.786,-46.1043"/>
</g>
<!-- 10 -->
<g id="node11" class="node"><title>10</title>
<ellipse fill="yellow" stroke="yellow" cx="178.286" cy="-18" rx="28.0736" ry="18"/>
<text text-anchor="middle" x="178.286" y="-13.8" font-family="Times,serif" font-size="14.00">7/7/7</text>
</g>
<!-- 5&#45;&gt;10 -->
<g id="edge9" class="edge"><title>5&#45;&gt;10</title>
<path fill="none" stroke="black" d="M220.806,-73.1159C213.675,-64.0399 204.6,-52.4901 196.667,-42.3934"/>
<polygon fill="black" stroke="black" points="199.269,-40.041 190.339,-34.3402 193.765,-44.3658 199.269,-40.041"/>
</g>
<!-- 11 -->
<g id="node12" class="node"><title>11</title>
<ellipse fill="yellow" stroke="yellow" cx="253.286" cy="-18" rx="28.0736" ry="18"/>
<text text-anchor="middle" x="253.286" y="-13.8" font-family="Times,serif" font-size="14.00">7/7/7</text>
</g>
<!-- 5&#45;&gt;11 -->
<g id="edge10" class="edge"><title>5&#45;&gt;11</title>
<path fill="none" stroke="black" d="M238.127,-72.055C240.388,-64.1446 243.132,-54.5398 245.661,-45.6879"/>
<polygon fill="black" stroke="black" points="249.107,-46.3658 248.489,-35.789 242.377,-44.4427 249.107,-46.3658"/>
</g>
<!-- 12 -->
<g id="node13" class="node"><title>12</title>
<ellipse fill="yellow" stroke="yellow" cx="328.286" cy="-18" rx="28.0736" ry="18"/>
<text text-anchor="middle" x="328.286" y="-13.8" font-family="Times,serif" font-size="14.00">7/7/7</text>
</g>
<!-- 6&#45;&gt;12 -->
<g id="edge11" class="edge"><title>6&#45;&gt;12</title>
<path fill="none" stroke="black" d="M342.687,-72.055C340.54,-64.1446 337.933,-54.5398 335.53,-45.6879"/>
<polygon fill="black" stroke="black" points="338.84,-44.523 332.843,-35.789 332.085,-46.3567 338.84,-44.523"/>
</g>
<!-- 13 -->
<g id="node14" class="node"><title>13</title>
<ellipse fill="yellow" stroke="yellow" cx="403.286" cy="-18" rx="28.0736" ry="18"/>
<text text-anchor="middle" x="403.286" y="-13.8" font-family="Times,serif" font-size="14.00">7/7/7</text>
</g>
<!-- 6&#45;&gt;13 -->
<g id="edge12" class="edge"><title>6&#45;&gt;13</title>
<path fill="none" stroke="black" d="M359.993,-73.1159C367.254,-64.0399 376.494,-52.4901 384.571,-42.3934"/>
<polygon fill="black" stroke="black" points="387.5,-44.3353 391.014,-34.3402 382.034,-39.9624 387.5,-44.3353"/>
</g>
<!-- 14 -->
<g id="node15" class="node"><title>14</title>
<ellipse fill="yellow" stroke="yellow" cx="478.286" cy="-18" rx="28.0736" ry="18"/>
<text text-anchor="middle" x="478.286" y="-13.8" font-family="Times,serif" font-size="14.00">7/7/7</text>
</g>
<!-- 7&#45;&gt;14 -->
<g id="edge13" class="edge"><title>7&#45;&gt;14</title>
<path fill="none" stroke="black" d="M478.286,-71.6966C478.286,-63.9827 478.286,-54.7125 478.286,-46.1124"/>
<polygon fill="black" stroke="black" points="481.786,-46.1043 478.286,-36.1043 474.786,-46.1044 481.786,-46.1043"/>
</g>
<!-- 15 -->
<g id="node16" class="node"><title>15</title>
<ellipse fill="yellow" stroke="yellow" cx="553.286" cy="-18" rx="28.0736" ry="18"/>
<text text-anchor="middle" x="553.286" y="-13.8" font-family="Times,serif" font-size="14.00">7/7/7</text>
</g>
<!-- 7&#45;&gt;15 -->
<g id="edge14" class="edge"><title>7&#45;&gt;15</title>
<path fill="none" stroke="black" d="M494.192,-74.1548C504.773,-64.2784 518.835,-51.154 530.587,-40.1857"/>
<polygon fill="black" stroke="black" points="532.994,-42.727 537.916,-33.345 528.218,-37.6096 532.994,-42.727"/>
</g>
</g>
</svg>
