<?xml version="1.0" encoding="UTF-8" standalone="no"?>
<!DOCTYPE svg PUBLIC "-//W3C//DTD SVG 1.1//EN"
 "http://www.w3.org/Graphics/SVG/1.1/DTD/svg11.dtd">
<!-- Generated by graphviz version 2.38.0 (20140413.2041)
 -->
<!-- Title: G Pages: 1 -->
<svg width="789pt" height="260pt"
 viewBox="0.00 0.00 789.13 260.00" xmlns="http://www.w3.org/2000/svg" xmlns:xlink="http://www.w3.org/1999/xlink">
<g id="graph0" class="graph" transform="scale(1 1) rotate(0) translate(4 256)">
<title>G</title>
<polygon fill="white" stroke="none" points="-4,4 -4,-256 785.133,-256 785.133,4 -4,4"/>
<!-- 0 -->
<g id="node1" class="node"><title>0</title>
<ellipse fill="none" stroke="black" cx="177.567" cy="-234" rx="148.244" ry="18"/>
<text text-anchor="middle" x="177.567" y="-229.8" font-family="Times,serif" font-size="14.00">lazyset/lazyadd/maxval/minval/sumval</text>
</g>
<!-- 1 -->
<g id="node2" class="node"><title>1</title>
<ellipse fill="none" stroke="black" cx="388.567" cy="-234" rx="44.9768" ry="18"/>
<text text-anchor="middle" x="388.567" y="-229.8" font-family="Times,serif" font-size="14.00">&#45;/0/7/0/42</text>
</g>
<!-- 2 -->
<g id="node3" class="node"><title>2</title>
<ellipse fill="none" stroke="black" cx="312.567" cy="-162" rx="44.9768" ry="18"/>
<text text-anchor="middle" x="312.567" y="-157.8" font-family="Times,serif" font-size="14.00">&#45;/0/7/0/14</text>
</g>
<!-- 1&#45;&gt;2 -->
<g id="edge1" class="edge"><title>1&#45;&gt;2</title>
<path fill="none" stroke="black" d="M371.321,-217.116C361.215,-207.808 348.285,-195.898 337.128,-185.622"/>
<polygon fill="black" stroke="black" points="339.471,-183.022 329.744,-178.821 334.728,-188.17 339.471,-183.022"/>
</g>
<!-- 3 -->
<g id="node4" class="node"><title>3</title>
<ellipse fill="none" stroke="black" cx="463.567" cy="-162" rx="44.9768" ry="18"/>
<text text-anchor="middle" x="463.567" y="-157.8" font-family="Times,serif" font-size="14.00">&#45;/0/7/7/28</text>
</g>
<!-- 1&#45;&gt;3 -->
<g id="edge2" class="edge"><title>1&#45;&gt;3</title>
<path fill="none" stroke="black" d="M405.585,-217.116C415.462,-207.897 428.074,-196.127 439.011,-185.919"/>
<polygon fill="black" stroke="black" points="441.693,-188.203 446.615,-178.821 436.917,-183.086 441.693,-188.203"/>
</g>
<!-- 4 -->
<g id="node5" class="node"><title>4</title>
<ellipse fill="none" stroke="black" cx="139.567" cy="-90" rx="40.6335" ry="18"/>
<text text-anchor="middle" x="139.567" y="-85.8" font-family="Times,serif" font-size="14.00">&#45;/0/0/0/0</text>
</g>
<!-- 2&#45;&gt;4 -->
<g id="edge3" class="edge"><title>2&#45;&gt;4</title>
<path fill="none" stroke="black" d="M282.036,-148.647C253.026,-136.909 209.298,-119.215 177.944,-106.528"/>
<polygon fill="black" stroke="black" points="179.223,-103.27 168.64,-102.764 176.597,-109.759 179.223,-103.27"/>
</g>
<!-- 5 -->
<g id="node6" class="node"><title>5</title>
<ellipse fill="yellow" stroke="yellow" cx="312.567" cy="-90" rx="46.4304" ry="18"/>
<text text-anchor="middle" x="312.567" y="-85.8" font-family="Times,serif" font-size="14.00">7/0/7/7/14</text>
</g>
<!-- 2&#45;&gt;5 -->
<g id="edge4" class="edge"><title>2&#45;&gt;5</title>
<path fill="none" stroke="black" d="M312.567,-143.697C312.567,-135.983 312.567,-126.712 312.567,-118.112"/>
<polygon fill="black" stroke="black" points="316.067,-118.104 312.567,-108.104 309.067,-118.104 316.067,-118.104"/>
</g>
<!-- 6 -->
<g id="node7" class="node"><title>6</title>
<ellipse fill="cyan" stroke="cyan" cx="463.567" cy="-90" rx="44.9768" ry="18"/>
<text text-anchor="middle" x="463.567" y="-85.8" font-family="Times,serif" font-size="14.00">&#45;/0/7/7/14</text>
</g>
<!-- 3&#45;&gt;6 -->
<g id="edge5" class="edge"><title>3&#45;&gt;6</title>
<path fill="none" stroke="black" d="M463.567,-143.697C463.567,-135.983 463.567,-126.712 463.567,-118.112"/>
<polygon fill="black" stroke="black" points="467.067,-118.104 463.567,-108.104 460.067,-118.104 467.067,-118.104"/>
</g>
<!-- 7 -->
<g id="node8" class="node"><title>7</title>
<ellipse fill="yellow" stroke="yellow" cx="641.567" cy="-90" rx="42.087" ry="18"/>
<text text-anchor="middle" x="641.567" y="-85.8" font-family="Times,serif" font-size="14.00">7/0/0/0/0</text>
</g>
<!-- 3&#45;&gt;7 -->
<g id="edge6" class="edge"><title>3&#45;&gt;7</title>
<path fill="none" stroke="black" d="M494.572,-148.807C524.36,-137.092 569.501,-119.34 601.896,-106.601"/>
<polygon fill="black" stroke="black" points="603.485,-109.737 611.51,-102.82 600.923,-103.223 603.485,-109.737"/>
</g>
<!-- 8 -->
<g id="node9" class="node"><title>8</title>
<ellipse fill="none" stroke="black" cx="40.5667" cy="-18" rx="40.6335" ry="18"/>
<text text-anchor="middle" x="40.5667" y="-13.8" font-family="Times,serif" font-size="14.00">&#45;/0/0/0/0</text>
</g>
<!-- 4&#45;&gt;8 -->
<g id="edge7" class="edge"><title>4&#45;&gt;8</title>
<path fill="none" stroke="black" d="M118.571,-74.1548C104.3,-64.064 85.2334,-50.5825 69.5232,-39.4743"/>
<polygon fill="black" stroke="black" points="71.3781,-36.4993 61.1923,-33.5838 67.3368,-42.2149 71.3781,-36.4993"/>
</g>
<!-- 9 -->
<g id="node10" class="node"><title>9</title>
<ellipse fill="none" stroke="black" cx="139.567" cy="-18" rx="40.6335" ry="18"/>
<text text-anchor="middle" x="139.567" y="-13.8" font-family="Times,serif" font-size="14.00">&#45;/0/0/0/0</text>
</g>
<!-- 4&#45;&gt;9 -->
<g id="edge8" class="edge"><title>4&#45;&gt;9</title>
<path fill="none" stroke="black" d="M139.567,-71.6966C139.567,-63.9827 139.567,-54.7125 139.567,-46.1124"/>
<polygon fill="black" stroke="black" points="143.067,-46.1043 139.567,-36.1043 136.067,-46.1044 143.067,-46.1043"/>
</g>
<!-- 10 -->
<g id="node11" class="node"><title>10</title>
<ellipse fill="none" stroke="black" cx="238.567" cy="-18" rx="40.6335" ry="18"/>
<text text-anchor="middle" x="238.567" y="-13.8" font-family="Times,serif" font-size="14.00">&#45;/0/0/0/0</text>
</g>
<!-- 5&#45;&gt;10 -->
<g id="edge9" class="edge"><title>5&#45;&gt;10</title>
<path fill="none" stroke="black" d="M295.775,-73.1159C285.961,-63.8326 273.411,-51.961 262.568,-41.7037"/>
<polygon fill="black" stroke="black" points="264.707,-38.9095 255.037,-34.5801 259.897,-43.9948 264.707,-38.9095"/>
</g>
<!-- 11 -->
<g id="node12" class="node"><title>11</title>
<ellipse fill="none" stroke="black" cx="337.567" cy="-18" rx="40.6335" ry="18"/>
<text text-anchor="middle" x="337.567" y="-13.8" font-family="Times,serif" font-size="14.00">&#45;/0/0/0/0</text>
</g>
<!-- 5&#45;&gt;11 -->
<g id="edge10" class="edge"><title>5&#45;&gt;11</title>
<path fill="none" stroke="black" d="M318.618,-72.055C321.432,-64.1762 324.847,-54.6165 327.997,-45.794"/>
<polygon fill="black" stroke="black" points="331.33,-46.8699 331.397,-36.2753 324.737,-44.5155 331.33,-46.8699"/>
</g>
<!-- 12 -->
<g id="node13" class="node"><title>12</title>
<ellipse fill="yellow" stroke="yellow" cx="438.567" cy="-18" rx="42.087" ry="18"/>
<text text-anchor="middle" x="438.567" y="-13.8" font-family="Times,serif" font-size="14.00">7/0/0/0/0</text>
</g>
<!-- 6&#45;&gt;12 -->
<g id="edge11" class="edge"><title>6&#45;&gt;12</title>
<path fill="none" stroke="black" d="M457.515,-72.055C454.701,-64.1762 451.287,-54.6165 448.136,-45.794"/>
<polygon fill="black" stroke="black" points="451.396,-44.5155 444.736,-36.2753 444.804,-46.8699 451.396,-44.5155"/>
</g>
<!-- 13 -->
<g id="node14" class="node"><title>13</title>
<ellipse fill="yellow" stroke="yellow" cx="540.567" cy="-18" rx="42.087" ry="18"/>
<text text-anchor="middle" x="540.567" y="-13.8" font-family="Times,serif" font-size="14.00">7/0/0/0/0</text>
</g>
<!-- 6&#45;&gt;13 -->
<g id="edge12" class="edge"><title>6&#45;&gt;13</title>
<path fill="none" stroke="black" d="M481.039,-73.1159C491.35,-63.7424 504.563,-51.7302 515.921,-41.4054"/>
<polygon fill="black" stroke="black" points="518.384,-43.8967 523.429,-34.5801 513.675,-38.7171 518.384,-43.8967"/>
</g>
<!-- 14 -->
<g id="node15" class="node"><title>14</title>
<ellipse fill="none" stroke="black" cx="641.567" cy="-18" rx="40.6335" ry="18"/>
<text text-anchor="middle" x="641.567" y="-13.8" font-family="Times,serif" font-size="14.00">&#45;/0/0/0/0</text>
</g>
<!-- 7&#45;&gt;14 -->
<g id="edge13" class="edge"><title>7&#45;&gt;14</title>
<path fill="none" stroke="black" d="M641.567,-71.6966C641.567,-63.9827 641.567,-54.7125 641.567,-46.1124"/>
<polygon fill="black" stroke="black" points="645.067,-46.1043 641.567,-36.1043 638.067,-46.1044 645.067,-46.1043"/>
</g>
<!-- 15 -->
<g id="node16" class="node"><title>15</title>
<ellipse fill="none" stroke="black" cx="740.567" cy="-18" rx="40.6335" ry="18"/>
<text text-anchor="middle" x="740.567" y="-13.8" font-family="Times,serif" font-size="14.00">&#45;/0/0/0/0</text>
</g>
<!-- 7&#45;&gt;15 -->
<g id="edge14" class="edge"><title>7&#45;&gt;15</title>
<path fill="none" stroke="black" d="M662.562,-74.1548C676.833,-64.064 695.9,-50.5825 711.61,-39.4743"/>
<polygon fill="black" stroke="black" points="713.797,-42.2149 719.941,-33.5838 709.755,-36.4993 713.797,-42.2149"/>
</g>
</g>
</svg>
