<?xml version="1.0" encoding="UTF-8"?>
<svg xmlns="http://www.w3.org/2000/svg" xmlns:xlink="http://www.w3.org/1999/xlink" width="106.8pt" height="69.3pt" viewBox="0 0 106.8 69.3" version="1.1">
<defs>
<clipPath id="clip1">
  <path d="M 92 53 L 106.800781 53 L 106.800781 54 L 92 54 Z M 92 53 "/>
</clipPath>
</defs>
<g id="surface1">
<rect x="0" y="0" width="106.8" height="69.3" style="fill:rgb(100%,100%,100%);fill-opacity:1;stroke:none;"/>
<path style="fill:none;stroke-width:1;stroke-linecap:round;stroke-linejoin:round;stroke:rgb(0%,0%,0%);stroke-opacity:1;stroke-miterlimit:10;" d="M 323.997396 225.005208 L 387.005208 225.005208 L 387.005208 288 L 323.997396 288 Z M 323.997396 225.005208 " transform="matrix(0.3,0,0,0.3,-21,-23.4)"/>
<path style="fill:none;stroke-width:1;stroke-linecap:round;stroke-linejoin:round;stroke:rgb(57.255554%,57.255554%,57.255554%);stroke-opacity:1;stroke-miterlimit:10;" d="M 197.994792 225.005208 L 261.002604 225.005208 L 261.002604 288 L 197.994792 288 Z M 197.994792 225.005208 " transform="matrix(0.3,0,0,0.3,-21,-23.4)"/>
<path style="fill:none;stroke-width:2;stroke-linecap:round;stroke-linejoin:round;stroke:rgb(100%,14.901733%,0%);stroke-opacity:1;stroke-miterlimit:10;" d="M 229.505208 238.416667 L 247.5 256.411458 " transform="matrix(0.3,0,0,0.3,-21,-23.4)"/>
<path style="fill:none;stroke-width:2;stroke-linecap:round;stroke-linejoin:round;stroke:rgb(0%,0%,0%);stroke-opacity:1;stroke-miterlimit:10;" d="M 229.505208 206.997396 L 229.505208 238.416667 " transform="matrix(0.3,0,0,0.3,-21,-23.4)"/>
<path style="fill:none;stroke-width:2;stroke-linecap:round;stroke-linejoin:round;stroke:rgb(0%,0%,0%);stroke-opacity:1;stroke-miterlimit:10;" d="M 211.497396 256.411458 L 229.505208 238.416667 " transform="matrix(0.3,0,0,0.3,-21,-23.4)"/>
<path style="fill:none;stroke-width:1;stroke-linecap:round;stroke-linejoin:round;stroke:rgb(57.255554%,57.255554%,57.255554%);stroke-opacity:1;stroke-miterlimit:10;" d="M 135 225.005208 L 197.994792 225.005208 L 197.994792 288 L 135 288 Z M 135 225.005208 " transform="matrix(0.3,0,0,0.3,-21,-23.4)"/>
<path style="fill:none;stroke-width:1;stroke-linecap:round;stroke-linejoin:round;stroke:rgb(57.255554%,57.255554%,57.255554%);stroke-opacity:1;stroke-miterlimit:10;" d="M 72.005208 225.005208 L 135 225.005208 L 135 288 L 72.005208 288 Z M 72.005208 225.005208 " transform="matrix(0.3,0,0,0.3,-21,-23.4)"/>
<path style="fill:none;stroke-width:1;stroke-linecap:round;stroke-linejoin:round;stroke:rgb(57.255554%,57.255554%,57.255554%);stroke-opacity:1;stroke-miterlimit:10;" d="M 261.002604 225.005208 L 323.997396 225.005208 L 323.997396 288 L 261.002604 288 Z M 261.002604 225.005208 " transform="matrix(0.3,0,0,0.3,-21,-23.4)"/>
<path style="fill-rule:nonzero;fill:rgb(0%,0%,0%);fill-opacity:1;stroke-width:1;stroke-linecap:round;stroke-linejoin:round;stroke:rgb(0%,0%,0%);stroke-opacity:1;stroke-miterlimit:10;" d="M 107.148438 234.927083 C 109.075521 236.710938 109.179688 239.71875 107.408854 241.632812 C 105.625 243.559896 102.617188 243.677083 100.703125 241.893229 C 98.776042 240.109375 98.658854 237.114583 100.442708 235.1875 C 102.226562 233.260417 105.221354 233.15625 107.148438 234.927083 " transform="matrix(0.3,0,0,0.3,-21,-23.4)"/>
<path style="fill-rule:nonzero;fill:rgb(0%,0%,0%);fill-opacity:1;stroke-width:1;stroke-linecap:round;stroke-linejoin:round;stroke:rgb(0%,0%,0%);stroke-opacity:1;stroke-miterlimit:10;" d="M 125.143229 252.934896 C 127.070312 254.71875 127.1875 257.713542 125.403646 259.640625 C 123.619792 261.554688 120.625 261.671875 118.697917 259.888021 C 116.770833 258.117188 116.666667 255.109375 118.4375 253.182292 C 120.221354 251.268229 123.229167 251.151042 125.143229 252.934896 " transform="matrix(0.3,0,0,0.3,-21,-23.4)"/>
<path style="fill-rule:nonzero;fill:rgb(0%,0%,0%);fill-opacity:1;stroke-width:1;stroke-linecap:round;stroke-linejoin:round;stroke:rgb(0%,0%,0%);stroke-opacity:1;stroke-miterlimit:10;" d="M 107.148438 271.111979 C 109.075521 272.882812 109.179688 275.890625 107.408854 277.817708 C 105.625 279.731771 102.617188 279.848958 100.703125 278.065104 C 98.776042 276.28125 98.658854 273.286458 100.442708 271.359375 C 102.226562 269.445312 105.221354 269.328125 107.148438 271.111979 " transform="matrix(0.3,0,0,0.3,-21,-23.4)"/>
<path style="fill:none;stroke-width:2;stroke-linecap:round;stroke-linejoin:round;stroke:rgb(100%,14.901733%,0%);stroke-opacity:1;stroke-miterlimit:10;" d="M 121.927083 256.411458 L 103.919271 274.588542 " transform="matrix(0.3,0,0,0.3,-21,-23.4)"/>
<path style="fill:none;stroke-width:2;stroke-linecap:round;stroke-linejoin:round;stroke:rgb(0%,0%,0%);stroke-opacity:1;stroke-miterlimit:10;" d="M 103.919271 238.416667 L 121.927083 256.411458 " transform="matrix(0.3,0,0,0.3,-21,-23.4)"/>
<path style="fill-rule:nonzero;fill:rgb(0%,0%,0%);fill-opacity:1;stroke-width:1;stroke-linecap:round;stroke-linejoin:round;stroke:rgb(0%,0%,0%);stroke-opacity:1;stroke-miterlimit:10;" d="M 232.721354 234.927083 C 234.648437 236.710938 234.765625 239.71875 232.981771 241.632812 C 231.197917 243.559896 228.203125 243.677083 226.276042 241.893229 C 224.348958 240.109375 224.231771 237.114583 226.015625 235.1875 C 227.799479 233.260417 230.807292 233.15625 232.721354 234.927083 " transform="matrix(0.3,0,0,0.3,-21,-23.4)"/>
<path style="fill-rule:nonzero;fill:rgb(0%,0%,0%);fill-opacity:1;stroke-width:1;stroke-linecap:round;stroke-linejoin:round;stroke:rgb(0%,0%,0%);stroke-opacity:1;stroke-miterlimit:10;" d="M 214.726562 252.934896 C 216.653646 254.71875 216.757812 257.713542 214.986979 259.640625 C 213.203125 261.554688 210.195312 261.671875 208.268229 259.888021 C 206.354167 258.117188 206.236979 255.109375 208.020833 253.182292 C 209.804688 251.268229 212.799479 251.151042 214.726562 252.934896 " transform="matrix(0.3,0,0,0.3,-21,-23.4)"/>
<path style=" stroke:none;fill-rule:nonzero;fill:rgb(0%,0%,0%);fill-opacity:1;" d="M 54.21875 52.480469 C 54.792969 53.015625 54.828125 53.914062 54.292969 54.492188 C 53.761719 55.066406 52.859375 55.101562 52.28125 54.566406 C 51.707031 54.035156 51.671875 53.132812 52.207031 52.554688 C 52.742188 51.980469 53.640625 51.945312 54.21875 52.480469 "/>
<path style="fill:none;stroke-width:1;stroke-linecap:round;stroke-linejoin:round;stroke:rgb(0%,0%,0%);stroke-opacity:1;stroke-miterlimit:10;" d="M 250.729167 252.934896 C 252.643229 254.71875 252.760417 257.713542 250.976562 259.640625 C 249.192708 261.554688 246.197917 261.671875 244.270833 259.888021 C 242.356771 258.117188 242.239583 255.109375 244.023437 253.182292 C 245.807292 251.268229 248.802083 251.151042 250.729167 252.934896 " transform="matrix(0.3,0,0,0.3,-21,-23.4)"/>
<path style="fill:none;stroke-width:2;stroke-linecap:round;stroke-linejoin:round;stroke:rgb(100%,14.901733%,0%);stroke-opacity:1;stroke-miterlimit:10;" d="M 103.919271 206.997396 L 103.919271 238.416667 " transform="matrix(0.3,0,0,0.3,-21,-23.4)"/>
<path style="fill:none;stroke-width:2;stroke-linecap:round;stroke-linejoin:round;stroke:rgb(0%,0%,0%);stroke-opacity:1;stroke-miterlimit:10;" d="M 103.919271 274.588542 L 103.919271 305.994792 " transform="matrix(0.3,0,0,0.3,-21,-23.4)"/>
<path style="fill:none;stroke-width:2;stroke-linecap:round;stroke-linejoin:round;stroke:rgb(0%,0%,0%);stroke-opacity:1;stroke-miterlimit:10;" d="M 121.927083 256.411458 L 211.497396 256.411458 " transform="matrix(0.3,0,0,0.3,-21,-23.4)"/>
<path style="fill:none;stroke-width:2;stroke-linecap:round;stroke-linejoin:round;stroke:rgb(0%,0%,0%);stroke-opacity:1;stroke-miterlimit:10;" d="M 247.5 256.411458 L 332.760417 256.411458 " transform="matrix(0.3,0,0,0.3,-21,-23.4)"/>
<path style="fill:none;stroke-width:2;stroke-linecap:round;stroke-linejoin:round;stroke:rgb(0%,0%,0%);stroke-opacity:1;stroke-miterlimit:10;" d="M 229.505208 279.666667 L 229.505208 305.994792 " transform="matrix(0.3,0,0,0.3,-21,-23.4)"/>
<path style="fill-rule:nonzero;fill:rgb(0%,0%,0%);fill-opacity:1;stroke-width:1;stroke-linecap:round;stroke-linejoin:round;stroke:rgb(0%,0%,0%);stroke-opacity:1;stroke-miterlimit:10;" d="M 232.721354 271.4375 C 234.648437 273.221354 234.765625 276.229167 232.981771 278.143229 C 231.197917 280.070312 228.203125 280.1875 226.276042 278.403646 C 224.348958 276.619792 224.231771 273.625 226.015625 271.697917 C 227.799479 269.770833 230.807292 269.666667 232.721354 271.4375 " transform="matrix(0.3,0,0,0.3,-21,-23.4)"/>
<path style="fill:none;stroke-width:2;stroke-linecap:round;stroke-linejoin:round;stroke:rgb(0%,0%,0%);stroke-opacity:1;stroke-miterlimit:10;" d="M 355.494792 238.416667 L 373.502604 256.411458 " transform="matrix(0.3,0,0,0.3,-21,-23.4)"/>
<path style="fill:none;stroke-width:2;stroke-linecap:round;stroke-linejoin:round;stroke:rgb(100%,14.901733%,0%);stroke-opacity:1;stroke-miterlimit:10;" d="M 355.494792 206.997396 L 355.494792 238.416667 " transform="matrix(0.3,0,0,0.3,-21,-23.4)"/>
<path style="fill:none;stroke-width:2;stroke-linecap:round;stroke-linejoin:round;stroke:rgb(0%,0%,0%);stroke-opacity:1;stroke-miterlimit:10;" d="M 337.5 256.411458 L 355.494792 238.416667 " transform="matrix(0.3,0,0,0.3,-21,-23.4)"/>
<path style="fill-rule:nonzero;fill:rgb(0%,0%,0%);fill-opacity:1;stroke-width:1;stroke-linecap:round;stroke-linejoin:round;stroke:rgb(0%,0%,0%);stroke-opacity:1;stroke-miterlimit:10;" d="M 358.723958 234.927083 C 360.651042 236.710938 360.768229 239.71875 358.984375 241.632812 C 357.200521 243.559896 354.192708 243.677083 352.278646 241.893229 C 350.351562 240.109375 350.234375 237.114583 352.018229 235.1875 C 353.802083 233.260417 356.796875 233.15625 358.723958 234.927083 " transform="matrix(0.3,0,0,0.3,-21,-23.4)"/>
<path style=" stroke:none;fill-rule:nonzero;fill:rgb(0%,0%,0%);fill-opacity:1;" d="M 81.21875 52.480469 C 81.792969 53.015625 81.828125 53.914062 81.292969 54.492188 C 80.761719 55.066406 79.859375 55.101562 79.28125 54.566406 C 78.707031 54.035156 78.671875 53.132812 79.207031 52.554688 C 79.742188 51.980469 80.640625 51.945312 81.21875 52.480469 "/>
<path style="fill:none;stroke-width:1;stroke-linecap:round;stroke-linejoin:round;stroke:rgb(0%,0%,0%);stroke-opacity:1;stroke-miterlimit:10;" d="M 340.729167 252.934896 C 342.643229 254.71875 342.760417 257.713542 340.976562 259.640625 C 339.192708 261.554688 336.197917 261.671875 334.270833 259.888021 C 332.356771 258.117188 332.239583 255.109375 334.023438 253.182292 C 335.807292 251.268229 338.802083 251.151042 340.729167 252.934896 " transform="matrix(0.3,0,0,0.3,-21,-23.4)"/>
<path style="fill-rule:nonzero;fill:rgb(0%,0%,0%);fill-opacity:1;stroke-width:1;stroke-linecap:round;stroke-linejoin:round;stroke:rgb(0%,0%,0%);stroke-opacity:1;stroke-miterlimit:10;" d="M 376.731771 252.934896 C 378.645833 254.71875 378.763021 257.713542 376.979167 259.640625 C 375.195312 261.554688 372.200521 261.671875 370.273438 259.888021 C 368.346354 258.117188 368.242188 255.109375 370.013021 253.182292 C 371.796875 251.268229 374.804688 251.151042 376.731771 252.934896 " transform="matrix(0.3,0,0,0.3,-21,-23.4)"/>
<path style="fill:none;stroke-width:2;stroke-linecap:round;stroke-linejoin:round;stroke:rgb(0%,0%,0%);stroke-opacity:1;stroke-miterlimit:10;" d="M 355.494792 279.666667 L 355.494792 305.994792 " transform="matrix(0.3,0,0,0.3,-21,-23.4)"/>
<path style="fill-rule:nonzero;fill:rgb(0%,0%,0%);fill-opacity:1;stroke-width:1;stroke-linecap:round;stroke-linejoin:round;stroke:rgb(0%,0%,0%);stroke-opacity:1;stroke-miterlimit:10;" d="M 358.723958 271.4375 C 360.651042 273.221354 360.768229 276.229167 358.984375 278.143229 C 357.200521 280.070312 354.192708 280.1875 352.278646 278.403646 C 350.351562 276.619792 350.234375 273.625 352.018229 271.697917 C 353.802083 269.770833 356.796875 269.666667 358.723958 271.4375 " transform="matrix(0.3,0,0,0.3,-21,-23.4)"/>
<path style="fill:none;stroke-width:2;stroke-linecap:round;stroke-linejoin:round;stroke:rgb(100%,14.901733%,0%);stroke-opacity:1;stroke-miterlimit:10;" d="M 340.807292 259.809896 L 352.1875 271.515625 " transform="matrix(0.3,0,0,0.3,-21,-23.4)"/>
<path style="fill:none;stroke-width:2;stroke-linecap:round;stroke-linejoin:round;stroke:rgb(0%,0%,0%);stroke-opacity:1;stroke-miterlimit:10;" d="M 358.802083 271.515625 L 370.195312 259.809896 " transform="matrix(0.3,0,0,0.3,-21,-23.4)"/>
<path style="fill:none;stroke-width:2;stroke-linecap:round;stroke-linejoin:round;stroke:rgb(0%,0%,0%);stroke-opacity:1;stroke-miterlimit:10;" d="M 232.8125 271.515625 L 247.5 256.411458 " transform="matrix(0.3,0,0,0.3,-21,-23.4)"/>
<path style="fill:none;stroke-width:2;stroke-linecap:round;stroke-linejoin:round;stroke:rgb(100%,14.901733%,0%);stroke-opacity:1;stroke-miterlimit:10;" d="M 226.197917 271.515625 L 214.804688 259.809896 " transform="matrix(0.3,0,0,0.3,-21,-23.4)"/>
<path style="fill:none;stroke-width:1;stroke-linecap:round;stroke-linejoin:round;stroke:rgb(57.255554%,57.255554%,57.255554%);stroke-opacity:1;stroke-miterlimit:10;" d="M 72.005208 90.005208 L 135 90.005208 L 135 153 L 72.005208 153 Z M 72.005208 90.005208 " transform="matrix(0.3,0,0,0.3,-21,-23.4)"/>
<path style="fill:none;stroke-width:1;stroke-linecap:round;stroke-linejoin:round;stroke:rgb(57.255554%,57.255554%,57.255554%);stroke-opacity:1;stroke-miterlimit:10;" d="M 261.002604 90.005208 L 323.997396 90.005208 L 323.997396 153 L 261.002604 153 Z M 261.002604 90.005208 " transform="matrix(0.3,0,0,0.3,-21,-23.4)"/>
<path style="fill:none;stroke-width:1;stroke-linecap:round;stroke-linejoin:round;stroke:rgb(57.255554%,57.255554%,57.255554%);stroke-opacity:1;stroke-miterlimit:10;" d="M 197.994792 90.005208 L 261.002604 90.005208 L 261.002604 153 L 197.994792 153 Z M 197.994792 90.005208 " transform="matrix(0.3,0,0,0.3,-21,-23.4)"/>
<path style="fill:none;stroke-width:5;stroke-linecap:square;stroke-linejoin:round;stroke:rgb(47.450256%,47.450256%,47.450256%);stroke-opacity:1;stroke-miterlimit:10;" d="M 81.002604 144.002604 L 126.002604 99.002604 " transform="matrix(0.3,0,0,0.3,-21,-23.4)"/>
<path style="fill:none;stroke-width:5;stroke-linecap:square;stroke-linejoin:round;stroke:rgb(47.450256%,47.450256%,47.450256%);stroke-opacity:1;stroke-miterlimit:10;" d="M 207.005208 99.002604 L 252.005208 144.002604 " transform="matrix(0.3,0,0,0.3,-21,-23.4)"/>
<path style="fill:none;stroke-width:1;stroke-linecap:round;stroke-linejoin:round;stroke:rgb(57.255554%,57.255554%,57.255554%);stroke-opacity:1;stroke-miterlimit:10;" d="M 323.997396 90.005208 L 387.005208 90.005208 L 387.005208 153 L 323.997396 153 Z M 323.997396 90.005208 " transform="matrix(0.3,0,0,0.3,-21,-23.4)"/>
<path style="fill:none;stroke-width:5;stroke-linecap:square;stroke-linejoin:round;stroke:rgb(47.450256%,47.450256%,47.450256%);stroke-opacity:1;stroke-miterlimit:10;" d="M 332.994792 99.002604 L 377.994792 144.002604 " transform="matrix(0.3,0,0,0.3,-21,-23.4)"/>
<path style="fill:none;stroke-width:1;stroke-linecap:round;stroke-linejoin:round;stroke:rgb(57.255554%,57.255554%,57.255554%);stroke-opacity:1;stroke-miterlimit:10;" d="M 135 90.005208 L 197.994792 90.005208 L 197.994792 153 L 135 153 Z M 135 90.005208 " transform="matrix(0.3,0,0,0.3,-21,-23.4)"/>
<path style="fill:none;stroke-width:2;stroke-linecap:round;stroke-linejoin:round;stroke:rgb(55.686951%,98.039246%,0%);stroke-opacity:1;stroke-miterlimit:10;" d="M 107.994792 161.997396 L 107.565104 130.513021 " transform="matrix(0.3,0,0,0.3,-21,-23.4)"/>
<path style="fill-rule:nonzero;fill:rgb(55.686951%,98.039246%,0%);fill-opacity:1;stroke-width:2;stroke-linecap:butt;stroke-linejoin:miter;stroke:rgb(55.686951%,98.039246%,0%);stroke-opacity:1;stroke-miterlimit:10;" d="M 107.434896 120.916667 L 103.971354 130.565104 L 111.158854 130.460938 Z M 107.434896 120.916667 " transform="matrix(0.3,0,0,0.3,-21,-23.4)"/>
<path style="fill:none;stroke-width:2;stroke-linecap:round;stroke-linejoin:round;stroke:rgb(55.686951%,98.039246%,0%);stroke-opacity:1;stroke-miterlimit:10;" d="M 104.648438 120.34375 L 216.927083 121.671875 " transform="matrix(0.3,0,0,0.3,-21,-23.4)"/>
<path style="fill-rule:nonzero;fill:rgb(55.686951%,98.039246%,0%);fill-opacity:1;stroke-width:2;stroke-linecap:butt;stroke-linejoin:miter;stroke:rgb(55.686951%,98.039246%,0%);stroke-opacity:1;stroke-miterlimit:10;" d="M 226.523438 121.776042 L 216.966146 118.065104 L 216.875 125.265625 Z M 226.523438 121.776042 " transform="matrix(0.3,0,0,0.3,-21,-23.4)"/>
<path style="fill:none;stroke-width:2;stroke-linecap:round;stroke-linejoin:round;stroke:rgb(55.686951%,98.039246%,0%);stroke-opacity:1;stroke-miterlimit:10;" d="M 228.880208 120.877604 L 228.880208 158.104167 " transform="matrix(0.3,0,0,0.3,-21,-23.4)"/>
<path style="fill-rule:nonzero;fill:rgb(55.686951%,98.039246%,0%);fill-opacity:1;stroke-width:2;stroke-linecap:butt;stroke-linejoin:miter;stroke:rgb(55.686951%,98.039246%,0%);stroke-opacity:1;stroke-miterlimit:10;" d="M 228.880208 167.700521 L 232.473958 158.104167 L 225.273438 158.104167 Z M 228.880208 167.700521 " transform="matrix(0.3,0,0,0.3,-21,-23.4)"/>
<path style="fill:none;stroke-width:2;stroke-linecap:round;stroke-linejoin:round;stroke:rgb(55.686951%,98.039246%,0%);stroke-opacity:1;stroke-miterlimit:10;" d="M 225 80.994792 L 224.752604 103.716146 " transform="matrix(0.3,0,0,0.3,-21,-23.4)"/>
<path style="fill-rule:nonzero;fill:rgb(55.686951%,98.039246%,0%);fill-opacity:1;stroke-width:2;stroke-linecap:butt;stroke-linejoin:miter;stroke:rgb(55.686951%,98.039246%,0%);stroke-opacity:1;stroke-miterlimit:10;" d="M 224.648438 113.3125 L 228.359375 103.755208 L 221.158854 103.677083 Z M 224.648438 113.3125 " transform="matrix(0.3,0,0,0.3,-21,-23.4)"/>
<path style="fill:none;stroke-width:2;stroke-linecap:round;stroke-linejoin:round;stroke:rgb(55.686951%,98.039246%,0%);stroke-opacity:1;stroke-miterlimit:10;" d="M 224.609375 116.619792 L 339.140625 117.895833 " transform="matrix(0.3,0,0,0.3,-21,-23.4)"/>
<path style="fill-rule:nonzero;fill:rgb(55.686951%,98.039246%,0%);fill-opacity:1;stroke-width:2;stroke-linecap:butt;stroke-linejoin:miter;stroke:rgb(55.686951%,98.039246%,0%);stroke-opacity:1;stroke-miterlimit:10;" d="M 348.75 118.013021 L 339.192708 114.302083 L 339.101562 121.502604 Z M 348.75 118.013021 " transform="matrix(0.3,0,0,0.3,-21,-23.4)"/>
<path style="fill:none;stroke-width:2;stroke-linecap:round;stroke-linejoin:round;stroke:rgb(55.686951%,98.039246%,0%);stroke-opacity:1;stroke-miterlimit:10;" d="M 350.989583 116.984375 L 351.002604 158.104167 " transform="matrix(0.3,0,0,0.3,-21,-23.4)"/>
<path style="fill-rule:nonzero;fill:rgb(55.686951%,98.039246%,0%);fill-opacity:1;stroke-width:2;stroke-linecap:butt;stroke-linejoin:miter;stroke:rgb(55.686951%,98.039246%,0%);stroke-opacity:1;stroke-miterlimit:10;" d="M 351.002604 167.700521 L 354.596354 158.104167 L 347.395833 158.104167 Z M 351.002604 167.700521 " transform="matrix(0.3,0,0,0.3,-21,-23.4)"/>
<g clip-path="url(#clip1)" clip-rule="nonzero">
<path style="fill:none;stroke-width:2;stroke-linecap:round;stroke-linejoin:round;stroke:rgb(100%,14.901733%,0%);stroke-opacity:1;stroke-miterlimit:10;" d="M 378.242188 256.411458 L 422.994792 256.411458 " transform="matrix(0.3,0,0,0.3,-21,-23.4)"/>
</g>
</g>
</svg>
