<?xml version="1.0" standalone="yes"?>

<svg version="1.1" viewBox="0.0 0.0 800.0 600.0" fill="none" stroke="none" stroke-linecap="square" stroke-miterlimit="10" xmlns="http://www.w3.org/2000/svg" xmlns:xlink="http://www.w3.org/1999/xlink"><clipPath id="p.0"><path d="m0 0l800.0 0l0 600.0l-800.0 0l0 -600.0z" clip-rule="nonzero"></path></clipPath><g clip-path="url(#p.0)"><path fill="#000000" fill-opacity="0.0" d="m0 0l800.0 0l0 600.0l-800.0 0z" fill-rule="nonzero"></path><path fill="#ff0000" d="m163.0 139.16798l208.0 0l0 268.0l-208.0 0z" fill-rule="nonzero"></path><path fill="#ffff00" d="m255.0 207.16798l341.98425 0l0 133.98424l-341.98425 0z" fill-rule="nonzero"></path><path fill="#4a86e8" d="m204.0 91.16798l128.0 0l0 430.01575l-128.0 0z" fill-rule="nonzero"></path><path fill="#9900ff" d="m288.0 168.16798l66.99213 0l0 57.984253l-66.99213 0z" fill-rule="nonzero"></path><path fill="#00ff00" d="m127.0 252.16798l62.015747 0l0 183.99998l-62.015747 0z" fill-rule="nonzero"></path><path fill="#a64d79" d="m124.51181 105.16798l66.99213 0l0 57.98426l-66.99213 0z" fill-rule="nonzero"></path><path fill="#674ea7" d="m346.98425 373.16797l196.0 0l0 57.984253l-196.0 0z" fill-rule="nonzero"></path><path fill="#f6b26b" d="m442.0 144.16798l40.0 0l0 317.00787l-40.0 0z" fill-rule="nonzero"></path></g></svg>

