<?xml version="1.0" encoding="UTF-8"?>
<svg xmlns="http://www.w3.org/2000/svg" xmlns:xlink="http://www.w3.org/1999/xlink" width="266pt" height="10.5pt" viewBox="0 0 266 10.5" version="1.1">
<g id="surface1">
<path style="fill:none;stroke-width:1;stroke-linecap:round;stroke-linejoin:miter;stroke:rgb(69.410706%,0%,10.980225%);stroke-opacity:1;stroke-miterlimit:10;" d="M 74.5 144 L 141.5 144 " transform="matrix(0.5,0,0,0.5,-33.5,-69)"/>
<path style="fill:none;stroke-width:1;stroke-linecap:butt;stroke-linejoin:miter;stroke:rgb(69.410706%,0%,10.980225%);stroke-opacity:1;stroke-miterlimit:10;" d="M 141.5 140 L 141.5 148 " transform="matrix(0.5,0,0,0.5,-33.5,-69)"/>
<path style="fill:none;stroke-width:1;stroke-linecap:butt;stroke-linejoin:miter;stroke:rgb(69.410706%,0%,10.980225%);stroke-opacity:1;stroke-miterlimit:10;" d="M 74.5 148 L 74.5 140 " transform="matrix(0.5,0,0,0.5,-33.5,-69)"/>
<path style="fill:none;stroke-width:1;stroke-linecap:round;stroke-linejoin:miter;stroke:rgb(69.410706%,0%,10.980225%);stroke-opacity:1;stroke-miterlimit:10;" d="M 155.5 144 L 186.5 144 " transform="matrix(0.5,0,0,0.5,-33.5,-69)"/>
<path style="fill:none;stroke-width:1;stroke-linecap:butt;stroke-linejoin:miter;stroke:rgb(69.410706%,0%,10.980225%);stroke-opacity:1;stroke-miterlimit:10;" d="M 186.5 140 L 186.5 148 " transform="matrix(0.5,0,0,0.5,-33.5,-69)"/>
<path style="fill:none;stroke-width:1;stroke-linecap:butt;stroke-linejoin:miter;stroke:rgb(69.410706%,0%,10.980225%);stroke-opacity:1;stroke-miterlimit:10;" d="M 155.5 148 L 155.5 140 " transform="matrix(0.5,0,0,0.5,-33.5,-69)"/>
<path style="fill:none;stroke-width:1;stroke-linecap:round;stroke-linejoin:miter;stroke:rgb(69.410706%,0%,10.980225%);stroke-opacity:1;stroke-miterlimit:10;" d="M 263.5 144 L 411.5 144 " transform="matrix(0.5,0,0,0.5,-33.5,-69)"/>
<path style="fill:none;stroke-width:1;stroke-linecap:butt;stroke-linejoin:miter;stroke:rgb(69.410706%,0%,10.980225%);stroke-opacity:1;stroke-miterlimit:10;" d="M 411.5 140 L 411.5 148 " transform="matrix(0.5,0,0,0.5,-33.5,-69)"/>
<path style="fill:none;stroke-width:1;stroke-linecap:butt;stroke-linejoin:miter;stroke:rgb(69.410706%,0%,10.980225%);stroke-opacity:1;stroke-miterlimit:10;" d="M 263.5 148 L 263.5 140 " transform="matrix(0.5,0,0,0.5,-33.5,-69)"/>
<path style="fill:none;stroke-width:1;stroke-linecap:round;stroke-linejoin:miter;stroke:rgb(69.410706%,0%,10.980225%);stroke-opacity:1;stroke-miterlimit:10;" d="M 412.5 144 L 470.5 144 " transform="matrix(0.5,0,0,0.5,-33.5,-69)"/>
<path style="fill:none;stroke-width:1;stroke-linecap:butt;stroke-linejoin:miter;stroke:rgb(69.410706%,0%,10.980225%);stroke-opacity:1;stroke-miterlimit:10;" d="M 470.5 140 L 470.5 148 " transform="matrix(0.5,0,0,0.5,-33.5,-69)"/>
<path style="fill:none;stroke-width:1;stroke-linecap:butt;stroke-linejoin:miter;stroke:rgb(69.410706%,0%,10.980225%);stroke-opacity:1;stroke-miterlimit:10;" d="M 412.5 148 L 412.5 140 " transform="matrix(0.5,0,0,0.5,-33.5,-69)"/>
<path style="fill:none;stroke-width:1;stroke-linecap:round;stroke-linejoin:miter;stroke:rgb(13.725281%,36.862183%,0%);stroke-opacity:1;stroke-miterlimit:10;" d="M 110.5 153 L 240.5 153 " transform="matrix(0.5,0,0,0.5,-33.5,-69)"/>
<path style="fill:none;stroke-width:1;stroke-linecap:butt;stroke-linejoin:miter;stroke:rgb(13.725281%,36.862183%,0%);stroke-opacity:1;stroke-miterlimit:10;" d="M 240.5 149 L 240.5 157 " transform="matrix(0.5,0,0,0.5,-33.5,-69)"/>
<path style="fill:none;stroke-width:1;stroke-linecap:butt;stroke-linejoin:miter;stroke:rgb(13.725281%,36.862183%,0%);stroke-opacity:1;stroke-miterlimit:10;" d="M 110.5 157 L 110.5 149 " transform="matrix(0.5,0,0,0.5,-33.5,-69)"/>
<path style="fill:none;stroke-width:1;stroke-linecap:round;stroke-linejoin:miter;stroke:rgb(13.725281%,36.862183%,0%);stroke-opacity:1;stroke-miterlimit:10;" d="M 326.5 153 L 348.5 153 " transform="matrix(0.5,0,0,0.5,-33.5,-69)"/>
<path style="fill:none;stroke-width:1;stroke-linecap:butt;stroke-linejoin:miter;stroke:rgb(13.725281%,36.862183%,0%);stroke-opacity:1;stroke-miterlimit:10;" d="M 348.5 149 L 348.5 157 " transform="matrix(0.5,0,0,0.5,-33.5,-69)"/>
<path style="fill:none;stroke-width:1;stroke-linecap:butt;stroke-linejoin:miter;stroke:rgb(13.725281%,36.862183%,0%);stroke-opacity:1;stroke-miterlimit:10;" d="M 326.5 157 L 326.5 149 " transform="matrix(0.5,0,0,0.5,-33.5,-69)"/>
<path style="fill:none;stroke-width:1;stroke-linecap:round;stroke-linejoin:miter;stroke:rgb(13.725281%,36.862183%,0%);stroke-opacity:1;stroke-miterlimit:10;" d="M 497.5 153 L 546.5 153 " transform="matrix(0.5,0,0,0.5,-33.5,-69)"/>
<path style="fill:none;stroke-width:1;stroke-linecap:butt;stroke-linejoin:miter;stroke:rgb(13.725281%,36.862183%,0%);stroke-opacity:1;stroke-miterlimit:10;" d="M 546.5 149 L 546.5 157 " transform="matrix(0.5,0,0,0.5,-33.5,-69)"/>
<path style="fill:none;stroke-width:1;stroke-linecap:butt;stroke-linejoin:miter;stroke:rgb(13.725281%,36.862183%,0%);stroke-opacity:1;stroke-miterlimit:10;" d="M 497.5 157 L 497.5 149 " transform="matrix(0.5,0,0,0.5,-33.5,-69)"/>
<path style="fill:none;stroke-width:1;stroke-linecap:round;stroke-linejoin:miter;stroke:rgb(13.725281%,36.862183%,0%);stroke-opacity:1;stroke-miterlimit:10;" d="M 560.5 153 L 591.5 153 " transform="matrix(0.5,0,0,0.5,-33.5,-69)"/>
<path style="fill:none;stroke-width:1;stroke-linecap:butt;stroke-linejoin:miter;stroke:rgb(13.725281%,36.862183%,0%);stroke-opacity:1;stroke-miterlimit:10;" d="M 591.5 149 L 591.5 157 " transform="matrix(0.5,0,0,0.5,-33.5,-69)"/>
<path style="fill:none;stroke-width:1;stroke-linecap:butt;stroke-linejoin:miter;stroke:rgb(13.725281%,36.862183%,0%);stroke-opacity:1;stroke-miterlimit:10;" d="M 560.5 157 L 560.5 149 " transform="matrix(0.5,0,0,0.5,-33.5,-69)"/>
</g>
</svg>
